<svg width="323" height="73" viewBox="0 0 323 73" fill="none" xmlns="http://www.w3.org/2000/svg">
<path d="M19.2173 1.9998H303.628C303.912 1.9998 304.195 2.00513 304.473 2.02246C304.756 2.03313 305.04 2.0558 305.317 2.0838C305.6 2.11046 305.879 2.14379 306.156 2.18913C306.435 2.22779 306.712 2.27713 306.989 2.33313C307.267 2.3838 307.54 2.45046 307.817 2.51713C308.089 2.5838 308.361 2.66113 308.628 2.73846C308.901 2.82246 309.168 2.91046 309.428 3.00513C309.695 3.0998 309.961 3.20513 310.223 3.31046C310.479 3.41713 310.74 3.53313 310.995 3.6558C311.245 3.7718 311.5 3.8998 311.745 4.03313C311.995 4.16646 312.24 4.30513 312.484 4.45046C312.723 4.59446 312.961 4.74379 313.195 4.89979C313.433 5.06113 313.661 5.22246 313.889 5.38913C314.112 5.5558 314.335 5.72779 314.556 5.91046C314.773 6.08913 314.984 6.2718 315.195 6.46113C315.4 6.65046 315.607 6.8438 315.807 7.0438C316.007 7.2438 316.201 7.4438 316.389 7.6558C316.579 7.86646 316.761 8.07713 316.94 8.29446C317.117 8.51046 317.295 8.73313 317.461 8.96113C317.628 9.18913 317.789 9.41713 317.945 9.65046C318.107 9.88913 318.256 10.1225 318.4 10.3665C318.545 10.6051 318.684 10.8558 318.817 11.0998C318.951 11.3505 319.073 11.5998 319.195 11.8558C319.317 12.1105 319.428 12.3665 319.54 12.6278C319.645 12.8891 319.745 13.1505 319.84 13.4171C319.94 13.6838 320.028 13.9505 320.107 14.2225C320.189 14.4891 320.261 14.7611 320.335 15.0331C320.4 15.3051 320.461 15.5838 320.517 15.8611C320.573 16.1331 320.623 16.4105 320.661 16.6945C320.707 16.9718 320.74 17.2505 320.767 17.5331C320.795 17.8105 320.817 18.0945 320.828 18.3718C320.84 18.6558 320.851 18.9385 320.851 19.2171V53.6611C320.851 53.9438 320.84 54.2278 320.828 54.5051C320.817 54.7891 320.795 55.0718 320.767 55.3505C320.74 55.6331 320.707 55.9105 320.661 56.1891C320.623 56.4665 320.573 56.7438 320.517 57.0225C320.461 57.2998 320.4 57.5718 320.335 57.8438C320.261 58.1225 320.189 58.3945 320.107 58.6611C320.028 58.9331 319.94 59.1998 319.84 59.4665C319.745 59.7278 319.645 59.9945 319.54 60.2505C319.428 60.5105 319.317 60.7718 319.195 61.0278C319.073 61.2771 318.951 61.5331 318.817 61.7771C318.684 62.0278 318.545 62.2718 318.4 62.5171C318.256 62.7558 318.107 62.9945 317.945 63.2278C317.789 63.4611 317.628 63.6945 317.461 63.9225C317.295 64.1438 317.117 64.3665 316.94 64.5891C316.761 64.8051 316.579 65.0171 316.389 65.2278C316.201 65.4331 316.007 65.6385 315.807 65.8385C315.607 66.0385 315.4 66.2331 315.195 66.4225C314.984 66.6105 314.773 66.7945 314.556 66.9718C314.335 67.1505 314.112 67.3278 313.889 67.4945C313.661 67.6611 313.433 67.8225 313.195 67.9771C312.961 68.1385 312.723 68.2891 312.484 68.4331C312.24 68.5771 311.995 68.7171 311.745 68.8505C311.5 68.9838 311.245 69.1051 310.995 69.2278C310.74 69.3505 310.479 69.4611 310.223 69.5718C309.961 69.6771 309.695 69.7771 309.428 69.8771C309.168 69.9718 308.901 70.0611 308.628 70.1385C308.361 70.2225 308.089 70.2998 307.817 70.3665C307.54 70.4331 307.267 70.4945 306.989 70.5505C306.712 70.6051 306.435 70.6558 306.156 70.6945C305.879 70.7385 305.6 70.7718 305.317 70.7998C305.04 70.8278 304.756 70.8505 304.473 70.8611C304.195 70.8771 303.912 70.8838 303.628 70.8838H19.2173C18.9347 70.8838 18.656 70.8771 18.3733 70.8611C18.0893 70.8505 17.812 70.8278 17.528 70.7998C17.2507 70.7718 16.968 70.7385 16.6893 70.6945C16.412 70.6558 16.1333 70.6051 15.856 70.5505C15.584 70.4945 15.3067 70.4331 15.0347 70.3665C14.7613 70.2998 14.4893 70.2225 14.2173 70.1385C13.9507 70.0611 13.684 69.9718 13.4173 69.8771C13.1507 69.7771 12.8893 69.6771 12.628 69.5718C12.368 69.4611 12.112 69.3505 11.856 69.2278C11.6013 69.1051 11.3507 68.9838 11.1013 68.8505C10.8507 68.7171 10.6067 68.5771 10.368 68.4331C10.1227 68.2891 9.884 68.1385 9.65067 67.9771C9.41733 67.8225 9.184 67.6611 8.96133 67.4945C8.73333 67.3278 8.512 67.1505 8.29467 66.9718C8.07867 66.7945 7.86133 66.6105 7.656 66.4225C7.44533 66.2331 7.24 66.0385 7.04 65.8385C6.84533 65.6385 6.65067 65.4331 6.46133 65.2278C6.268 65.0171 6.084 64.8051 5.90667 64.5891C5.728 64.3665 5.556 64.1438 5.38933 63.9225C5.21733 63.6945 5.056 63.4611 4.9 63.2278C4.74533 62.9945 4.59467 62.7558 4.45067 62.5171C4.30667 62.2718 4.16667 62.0278 4.03467 61.7771C3.9 61.5331 3.77333 61.2771 3.65067 61.0278C3.53467 60.7718 3.41733 60.5105 3.312 60.2505C3.20133 59.9945 3.10133 59.7278 3.00667 59.4665C2.912 59.1998 2.82267 58.9331 2.74 58.6611C2.656 58.3945 2.584 58.1225 2.51733 57.8438C2.44533 57.5718 2.384 57.2998 2.328 57.0225C2.27333 56.7438 2.228 56.4665 2.184 56.1891C2.14533 55.9105 2.112 55.6331 2.084 55.3505C2.056 55.0718 2.03467 54.7891 2.01733 54.5051C2.00667 54.2278 2 53.9438 2 53.6611V19.2171C2 18.9385 2.00667 18.6558 2.01733 18.3718C2.03467 18.0945 2.056 17.8105 2.084 17.5331C2.112 17.2505 2.14533 16.9718 2.184 16.6945C2.228 16.4105 2.27333 16.1331 2.328 15.8611C2.384 15.5838 2.44533 15.3051 2.51733 15.0331C2.584 14.7611 2.656 14.4891 2.74 14.2225C2.82267 13.9505 2.912 13.6838 3.00667 13.4171C3.10133 13.1505 3.20133 12.8891 3.312 12.6278C3.41733 12.3665 3.53467 12.1105 3.65067 11.8558C3.77333 11.5998 3.9 11.3505 4.03467 11.0998C4.16667 10.8558 4.30667 10.6051 4.45067 10.3665C4.59467 10.1225 4.74533 9.88913 4.9 9.65046C5.056 9.41713 5.21733 9.18913 5.38933 8.96113C5.556 8.73313 5.728 8.51046 5.90667 8.29446C6.084 8.07713 6.268 7.86646 6.46133 7.6558C6.65067 7.4438 6.84533 7.2438 7.04 7.0438C7.24 6.8438 7.44533 6.65046 7.656 6.46113C7.86133 6.2718 8.07867 6.08913 8.29467 5.91046C8.512 5.72779 8.73333 5.5558 8.96133 5.38913C9.184 5.22246 9.41733 5.06113 9.65067 4.89979C9.884 4.74379 10.1227 4.59446 10.368 4.45046C10.6067 4.30513 10.8507 4.16646 11.1013 4.03313C11.3507 3.8998 11.6013 3.7718 11.856 3.6558C12.112 3.53313 12.368 3.41713 12.628 3.31046C12.8893 3.20513 13.1507 3.0998 13.4173 3.00513C13.684 2.91046 13.9507 2.82246 14.2173 2.73846C14.4893 2.66113 14.7613 2.5838 15.0347 2.51713C15.3067 2.45046 15.584 2.3838 15.856 2.33313C16.1333 2.27713 16.412 2.22779 16.6893 2.18913C16.968 2.14379 17.2507 2.11046 17.528 2.0838C17.812 2.0558 18.0893 2.03313 18.3733 2.02246C18.656 2.00513 18.9347 1.9998 19.2173 1.9998Z" fill="#ED4600"/>
<path d="M19.2173 1.9998H303.628C303.912 1.9998 304.195 2.00513 304.473 2.02246C304.756 2.03313 305.04 2.0558 305.317 2.0838C305.6 2.11046 305.879 2.14379 306.156 2.18913C306.435 2.22779 306.712 2.27713 306.989 2.33313C307.267 2.3838 307.54 2.45046 307.817 2.51713C308.089 2.5838 308.361 2.66113 308.628 2.73846C308.901 2.82246 309.168 2.91046 309.428 3.00513C309.695 3.0998 309.961 3.20513 310.223 3.31046C310.479 3.41713 310.74 3.53313 310.995 3.6558C311.245 3.7718 311.5 3.8998 311.745 4.03313C311.995 4.16646 312.24 4.30513 312.484 4.45046C312.723 4.59446 312.961 4.74379 313.195 4.89979C313.433 5.06113 313.661 5.22246 313.889 5.38913C314.112 5.5558 314.335 5.72779 314.556 5.91046C314.773 6.08913 314.984 6.2718 315.195 6.46113C315.4 6.65046 315.607 6.8438 315.807 7.0438C316.007 7.2438 316.201 7.4438 316.389 7.6558C316.579 7.86646 316.761 8.07713 316.94 8.29446C317.117 8.51046 317.295 8.73313 317.461 8.96113C317.628 9.18913 317.789 9.41713 317.945 9.65046C318.107 9.88913 318.256 10.1225 318.4 10.3665C318.545 10.6051 318.684 10.8558 318.817 11.0998C318.951 11.3505 319.073 11.5998 319.195 11.8558C319.317 12.1105 319.428 12.3665 319.54 12.6278C319.645 12.8891 319.745 13.1505 319.84 13.4171C319.94 13.6838 320.028 13.9505 320.107 14.2225C320.189 14.4891 320.261 14.7611 320.335 15.0331C320.4 15.3051 320.461 15.5838 320.517 15.8611C320.573 16.1331 320.623 16.4105 320.661 16.6945C320.707 16.9718 320.74 17.2505 320.767 17.5331C320.795 17.8105 320.817 18.0945 320.828 18.3718C320.84 18.6558 320.851 18.9385 320.851 19.2171V53.6611C320.851 53.9438 320.84 54.2278 320.828 54.5051C320.817 54.7891 320.795 55.0718 320.767 55.3505C320.74 55.6331 320.707 55.9105 320.661 56.1891C320.623 56.4665 320.573 56.7438 320.517 57.0225C320.461 57.2998 320.4 57.5718 320.335 57.8438C320.261 58.1225 320.189 58.3945 320.107 58.6611C320.028 58.9331 319.94 59.1998 319.84 59.4665C319.745 59.7278 319.645 59.9945 319.54 60.2505C319.428 60.5105 319.317 60.7718 319.195 61.0278C319.073 61.2771 318.951 61.5331 318.817 61.7771C318.684 62.0278 318.545 62.2718 318.4 62.5171C318.256 62.7558 318.107 62.9945 317.945 63.2278C317.789 63.4611 317.628 63.6945 317.461 63.9225C317.295 64.1438 317.117 64.3665 316.94 64.5891C316.761 64.8051 316.579 65.0171 316.389 65.2278C316.201 65.4331 316.007 65.6385 315.807 65.8385C315.607 66.0385 315.4 66.2331 315.195 66.4225C314.984 66.6105 314.773 66.7945 314.556 66.9718C314.335 67.1505 314.112 67.3278 313.889 67.4945C313.661 67.6611 313.433 67.8225 313.195 67.9771C312.961 68.1385 312.723 68.2891 312.484 68.4331C312.24 68.5771 311.995 68.7171 311.745 68.8505C311.5 68.9838 311.245 69.1051 310.995 69.2278C310.74 69.3505 310.479 69.4611 310.223 69.5718C309.961 69.6771 309.695 69.7771 309.428 69.8771C309.168 69.9718 308.901 70.0611 308.628 70.1385C308.361 70.2225 308.089 70.2998 307.817 70.3665C307.54 70.4331 307.267 70.4945 306.989 70.5505C306.712 70.6051 306.435 70.6558 306.156 70.6945C305.879 70.7385 305.6 70.7718 305.317 70.7998C305.04 70.8278 304.756 70.8505 304.473 70.8611C304.195 70.8771 303.912 70.8838 303.628 70.8838H19.2173C18.9347 70.8838 18.656 70.8771 18.3733 70.8611C18.0893 70.8505 17.812 70.8278 17.528 70.7998C17.2507 70.7718 16.968 70.7385 16.6893 70.6945C16.412 70.6558 16.1333 70.6051 15.856 70.5505C15.584 70.4945 15.3067 70.4331 15.0347 70.3665C14.7613 70.2998 14.4893 70.2225 14.2173 70.1385C13.9507 70.0611 13.684 69.9718 13.4173 69.8771C13.1507 69.7771 12.8893 69.6771 12.628 69.5718C12.368 69.4611 12.112 69.3505 11.856 69.2278C11.6013 69.1051 11.3507 68.9838 11.1013 68.8505C10.8507 68.7171 10.6067 68.5771 10.368 68.4331C10.1227 68.2891 9.884 68.1385 9.65067 67.9771C9.41733 67.8225 9.184 67.6611 8.96133 67.4945C8.73333 67.3278 8.512 67.1505 8.29467 66.9718C8.07867 66.7945 7.86133 66.6105 7.656 66.4225C7.44533 66.2331 7.24 66.0385 7.04 65.8385C6.84533 65.6385 6.65067 65.4331 6.46133 65.2278C6.268 65.0171 6.084 64.8051 5.90667 64.5891C5.728 64.3665 5.556 64.1438 5.38933 63.9225C5.21733 63.6945 5.056 63.4611 4.9 63.2278C4.74533 62.9945 4.59467 62.7558 4.45067 62.5171C4.30667 62.2718 4.16667 62.0278 4.03467 61.7771C3.9 61.5331 3.77333 61.2771 3.65067 61.0278C3.53467 60.7718 3.41733 60.5105 3.312 60.2505C3.20133 59.9945 3.10133 59.7278 3.00667 59.4665C2.912 59.1998 2.82267 58.9331 2.74 58.6611C2.656 58.3945 2.584 58.1225 2.51733 57.8438C2.44533 57.5718 2.384 57.2998 2.328 57.0225C2.27333 56.7438 2.228 56.4665 2.184 56.1891C2.14533 55.9105 2.112 55.6331 2.084 55.3505C2.056 55.0718 2.03467 54.7891 2.01733 54.5051C2.00667 54.2278 2 53.9438 2 53.6611V19.2171C2 18.9385 2.00667 18.6558 2.01733 18.3718C2.03467 18.0945 2.056 17.8105 2.084 17.5331C2.112 17.2505 2.14533 16.9718 2.184 16.6945C2.228 16.4105 2.27333 16.1331 2.328 15.8611C2.384 15.5838 2.44533 15.3051 2.51733 15.0331C2.584 14.7611 2.656 14.4891 2.74 14.2225C2.82267 13.9505 2.912 13.6838 3.00667 13.4171C3.10133 13.1505 3.20133 12.8891 3.312 12.6278C3.41733 12.3665 3.53467 12.1105 3.65067 11.8558C3.77333 11.5998 3.9 11.3505 4.03467 11.0998C4.16667 10.8558 4.30667 10.6051 4.45067 10.3665C4.59467 10.1225 4.74533 9.88913 4.9 9.65046C5.056 9.41713 5.21733 9.18913 5.38933 8.96113C5.556 8.73313 5.728 8.51046 5.90667 8.29446C6.084 8.07713 6.268 7.86646 6.46133 7.6558C6.65067 7.4438 6.84533 7.2438 7.04 7.0438C7.24 6.8438 7.44533 6.65046 7.656 6.46113C7.86133 6.2718 8.07867 6.08913 8.29467 5.91046C8.512 5.72779 8.73333 5.5558 8.96133 5.38913C9.184 5.22246 9.41733 5.06113 9.65067 4.89979C9.884 4.74379 10.1227 4.59446 10.368 4.45046C10.6067 4.30513 10.8507 4.16646 11.1013 4.03313C11.3507 3.8998 11.6013 3.7718 11.856 3.6558C12.112 3.53313 12.368 3.41713 12.628 3.31046C12.8893 3.20513 13.1507 3.0998 13.4173 3.00513C13.684 2.91046 13.9507 2.82246 14.2173 2.73846C14.4893 2.66113 14.7613 2.5838 15.0347 2.51713C15.3067 2.45046 15.584 2.3838 15.856 2.33313C16.1333 2.27713 16.412 2.22779 16.6893 2.18913C16.968 2.14379 17.2507 2.11046 17.528 2.0838C17.812 2.0558 18.0893 2.03313 18.3733 2.02246C18.656 2.00513 18.9347 1.9998 19.2173 1.9998Z" stroke="black" stroke-width="4" stroke-miterlimit="10"/>
<path d="M169.123 22.677C168.639 22.677 168.162 22.8717 167.823 23.2104C167.485 23.5544 167.285 24.0277 167.285 24.5104V24.7157H162.706C162.223 24.7157 161.751 24.9104 161.406 25.2544C161.062 25.5997 160.867 26.0717 160.867 26.549V29.121C160.867 29.605 161.062 30.077 161.406 30.421C161.751 30.7597 162.223 30.9544 162.706 30.9544H163.751C163.079 31.605 162.557 32.405 162.173 33.2944C161.657 34.4824 161.451 35.833 161.451 37.349V39.9717C161.451 41.4824 161.657 42.833 162.173 44.0277C162.651 45.1264 163.346 46.0997 164.267 46.805C165.139 47.477 166.162 47.9384 167.262 48.1824H167.267C168.285 48.405 169.351 48.5157 170.462 48.5157C171.579 48.5157 172.646 48.405 173.662 48.1824C174.767 47.9384 175.795 47.477 176.662 46.805C177.585 46.0997 178.279 45.1264 178.757 44.0277C179.267 42.833 179.473 41.4824 179.479 39.9717V34.1944C179.667 33.8997 179.767 33.5544 179.767 33.205V30.6384C179.767 30.4877 179.751 30.3384 179.713 30.1944C179.734 30.1664 179.751 30.1384 179.767 30.1104V46.9997C179.767 47.4824 179.962 47.9544 180.306 48.2997C180.651 48.6437 181.123 48.8384 181.601 48.8384H184.29C184.773 48.8384 185.246 48.6437 185.59 48.2997C185.929 47.9544 186.129 47.4824 186.129 46.9997V38.5437H187.673H187.701V41.221C187.701 42.3717 187.767 43.3437 187.946 44.1997C188.129 45.133 188.539 46.0384 189.246 46.7277C189.951 47.405 190.839 47.7997 191.767 47.9944C192.651 48.1824 193.667 48.2544 194.873 48.2544H204.467C204.951 48.2544 205.429 48.0544 205.767 47.7157C206.113 47.3717 206.306 46.8997 206.306 46.4157V43.905C206.306 43.421 206.113 42.9544 205.767 42.605C205.429 42.2664 204.951 42.0717 204.467 42.0717H194.851C194.534 42.0717 194.273 42.0544 194.09 42.0384C194.073 41.849 194.057 41.5944 194.057 41.2824V39.3877H203.89C204.373 39.3877 204.846 39.1944 205.19 38.849C205.279 38.7544 205.362 38.649 205.434 38.5437H206.895V46.9997C206.895 47.4824 207.09 47.9544 207.429 48.2997C207.773 48.6437 208.246 48.8384 208.729 48.8384H211.413C211.895 48.8384 212.367 48.6437 212.706 48.2997C213.051 47.9544 213.251 47.4824 213.251 46.9997V25.3877C213.251 24.8997 213.051 24.433 212.706 24.0877C212.367 23.749 211.895 23.5544 211.413 23.5544H208.729C208.246 23.5544 207.773 23.749 207.429 24.0877C207.09 24.433 206.895 24.8997 206.895 25.3877V32.2997H205.723V25.9717C205.723 25.4877 205.529 25.0104 205.19 24.6717C204.846 24.333 204.373 24.133 203.89 24.133H189.539C189.051 24.133 188.585 24.333 188.239 24.6717C187.901 25.0104 187.701 25.4877 187.701 25.9717V28.477C187.701 28.961 187.901 29.4384 188.239 29.777C188.585 30.121 189.051 30.3157 189.539 30.3157H199.367V33.205H189.539C189.446 33.205 189.357 33.2104 189.262 33.221C189.185 33.0824 189.09 32.9544 188.973 32.8384C188.629 32.4997 188.151 32.2997 187.673 32.2997H186.129V25.3877C186.129 24.8997 185.929 24.433 185.59 24.0877C185.246 23.749 184.773 23.5544 184.29 23.5544H181.601C181.123 23.5544 180.651 23.749 180.306 24.0877C179.962 24.433 179.767 24.8997 179.767 25.3877V25.5664C179.695 25.4544 179.618 25.349 179.523 25.2544C179.179 24.9104 178.706 24.7157 178.223 24.7157H173.646V24.5104C173.646 24.0277 173.451 23.5544 173.101 23.2104C172.762 22.8717 172.29 22.677 171.806 22.677H169.123ZM162.706 26.549H169.123V24.5104H171.806V26.549H178.223V29.121H162.706V26.549ZM205.023 34.1384H208.729V25.3877H211.413V46.9997H208.729V36.705H205.023V34.1384ZM181.601 25.3877H184.29V34.1384H187.673V36.705H184.29V46.9997H181.601V25.3877ZM189.539 25.9717H203.89V37.549H192.223V41.2824C192.223 41.805 192.251 42.2384 192.306 42.5664C192.367 42.8997 192.485 43.161 192.657 43.3664C192.834 43.5717 193.101 43.7104 193.451 43.793C193.795 43.8664 194.262 43.905 194.851 43.905H204.467V46.4157H194.873C193.751 46.4157 192.839 46.3437 192.151 46.1997C191.457 46.0544 190.918 45.7877 190.529 45.405C190.139 45.033 189.879 44.505 189.746 43.833C189.606 43.161 189.539 42.2944 189.539 41.221V35.0437H201.201V28.477H189.539V25.9717ZM167.662 46.3877C166.79 46.1944 166.034 45.849 165.39 45.349C164.751 44.8544 164.239 44.1717 163.857 43.2997C163.479 42.421 163.29 41.3104 163.29 39.9717V37.349C163.29 35.9997 163.479 34.8997 163.857 34.021C164.239 33.149 164.751 32.4597 165.39 31.961C166.034 31.4664 166.79 31.121 167.662 30.9264C168.539 30.7384 169.473 30.6384 170.462 30.6384H177.929V33.205H170.462C169.785 33.205 169.173 33.2544 168.629 33.361C168.085 33.4717 167.613 33.6824 167.213 33.9944C166.813 34.2997 166.506 34.7544 166.295 35.349C166.079 35.9437 165.973 36.7104 165.973 37.6664H167.806C167.806 36.849 167.913 36.2664 168.023 35.9717C168.151 35.6157 168.273 35.4997 168.346 35.4437C168.501 35.3157 168.685 35.2277 168.985 35.1664H168.979C169.385 35.0877 169.879 35.0437 170.462 35.0437H173.118V39.649C173.123 40.4877 173.013 41.077 172.906 41.349C172.785 41.6944 172.662 41.8104 172.59 41.877H172.585C172.434 41.9944 172.246 42.0877 171.939 42.149C171.518 42.2277 171.029 42.2717 170.462 42.2717C169.879 42.2717 169.385 42.2277 168.985 42.149H168.979C168.685 42.0877 168.501 41.9997 168.346 41.877C168.262 41.8104 168.151 41.6944 168.018 41.349C167.913 41.077 167.806 40.4877 167.806 39.649V37.6664H165.973V39.649C165.973 40.621 166.079 41.3997 166.295 41.9824C166.506 42.5664 166.813 43.0104 167.213 43.321C167.613 43.6384 168.085 43.8437 168.629 43.949C169.173 44.0544 169.785 44.1104 170.462 44.1104C171.123 44.1104 171.734 44.0544 172.29 43.949C172.846 43.8437 173.318 43.6384 173.718 43.321C174.113 43.0104 174.418 42.5664 174.634 41.9824C174.851 41.3997 174.951 40.621 174.951 39.649V34.105H177.639V39.9717C177.639 41.3104 177.451 42.421 177.067 43.2997C176.695 44.1717 176.179 44.8544 175.539 45.349C174.901 45.849 174.139 46.1944 173.262 46.3877C172.39 46.5824 171.457 46.677 170.462 46.677C169.473 46.677 168.539 46.5824 167.662 46.3877ZM261.223 23.5544C260.739 23.5544 260.267 23.749 259.923 24.0877C259.585 24.433 259.39 24.8997 259.39 25.3877V46.9997C259.39 47.4824 259.585 47.9544 259.923 48.2997C260.267 48.6437 260.739 48.8384 261.223 48.8384H263.906C264.395 48.8384 264.862 48.6437 265.206 48.2997C265.551 47.9544 265.746 47.4824 265.746 46.9997V25.3877C265.746 24.8997 265.551 24.433 265.206 24.0877C264.862 23.749 264.395 23.5544 263.906 23.5544H261.223ZM261.223 25.3877H263.906V46.9984H261.223V25.3877ZM234.101 23.5544C233.618 23.5544 233.146 23.749 232.801 24.0877C232.457 24.433 232.262 24.8997 232.262 25.3877V46.9997C232.262 47.4824 232.457 47.9544 232.801 48.2997C233.146 48.6437 233.618 48.8384 234.101 48.8384H236.785C237.267 48.8384 237.746 48.6437 238.085 48.2997C238.429 47.9544 238.623 47.4824 238.623 46.9997V38.5437H240.167C240.651 38.5437 241.123 38.349 241.467 37.9997C241.806 37.661 242.001 37.1877 242.001 36.705V34.1384C242.001 33.649 241.806 33.1824 241.467 32.8384C241.123 32.4997 240.651 32.2997 240.167 32.2997H238.623V25.3877C238.623 24.8997 238.429 24.433 238.085 24.0877C237.746 23.749 237.267 23.5544 236.785 23.5544H234.101ZM234.101 25.3877H236.785V34.1384H240.167V36.705H236.785V46.9997H234.101V25.3877ZM148.067 23.5544C147.585 23.5544 147.106 23.749 146.767 24.0877C146.423 24.433 146.229 24.8997 146.229 25.3877V37.549H143.834C144.006 37.349 144.162 37.1384 144.301 36.9157C144.79 36.1437 145.095 35.2544 145.218 34.333C145.329 33.5384 145.385 32.705 145.385 31.833V29.4824C145.551 29.1944 145.646 28.8717 145.646 28.5384V25.9717C145.646 25.4877 145.451 25.0104 145.106 24.6717C144.762 24.333 144.295 24.133 143.806 24.133H134.246C132.929 24.1384 131.767 24.2824 130.729 24.677C129.751 25.049 128.867 25.633 128.223 26.449C127.623 27.1997 127.229 28.0997 127.023 29.0544C126.834 29.921 126.746 30.849 126.746 31.833C126.746 32.8157 126.834 33.7437 127.023 34.6104L128.818 34.2277C128.662 33.505 128.585 32.705 128.585 31.833C128.585 30.9544 128.662 30.1597 128.818 29.4437C128.973 28.721 129.251 28.105 129.662 27.5944C130.073 27.077 130.646 26.677 131.385 26.3944C132.123 26.1104 133.073 25.9717 134.246 25.9717H143.806V28.5384H133.801C132.89 28.5384 132.239 28.7997 131.851 29.3104C131.462 29.8277 131.267 30.6664 131.267 31.833C131.267 33.005 131.462 33.8437 131.851 34.3544C132.239 34.8717 132.89 35.1277 133.801 35.1277H138.762C139.229 35.1277 139.601 35.049 139.873 34.8824C140.146 34.7157 140.351 34.4824 140.501 34.1824C140.646 33.8824 140.739 33.533 140.79 33.133C140.839 32.733 140.862 32.2997 140.862 31.833V29.4437H143.546V31.833C143.546 32.633 143.501 33.377 143.401 34.077C143.301 34.777 143.085 35.3997 142.746 35.949C142.401 36.4944 141.901 36.9157 141.229 37.2277C140.557 37.5437 139.639 37.6997 138.473 37.6997H134.246C133.073 37.6997 132.123 37.5544 131.385 37.2717C130.646 36.9944 130.073 36.5944 129.662 36.077C129.251 35.561 128.973 34.9437 128.818 34.2277L127.023 34.6104C127.229 35.5664 127.623 36.4664 128.223 37.2157C128.429 37.4824 128.662 37.721 128.918 37.933C128.857 37.9824 128.795 38.033 128.746 38.0877C128.401 38.433 128.201 38.905 128.201 39.3877V42.3944C128.201 43.2824 128.257 44.0717 128.379 44.7944H128.373C128.506 45.6104 128.818 46.4157 129.362 47.0824C129.951 47.805 130.762 48.2544 131.606 48.4997C132.467 48.749 133.401 48.833 134.501 48.8384H146.29C147.39 48.833 148.323 48.749 149.185 48.4997C150.029 48.2544 150.839 47.805 151.429 47.0824C151.973 46.4157 152.279 45.6104 152.413 44.7944H152.418C152.534 44.0717 152.59 43.2824 152.59 42.3944V39.3877C152.59 39.1944 152.557 38.9997 152.495 38.8157C152.557 38.633 152.59 38.4437 152.59 38.249V25.3877C152.59 24.8997 152.39 24.433 152.046 24.0877C151.706 23.749 151.234 23.5544 150.751 23.5544H148.067ZM148.067 25.3877H150.745V38.249H148.067V25.3877ZM133.357 30.3997C133.413 30.3824 133.529 30.3664 133.801 30.377H139.023V31.833C139.023 32.2384 139.001 32.5997 138.962 32.9104V32.905C138.946 33.0877 138.906 33.2157 138.873 33.305L138.762 33.2944H133.801C133.318 33.2717 133.357 33.2157 133.318 33.249C133.295 33.249 133.09 32.805 133.101 31.833C133.09 30.8544 133.318 30.4157 133.318 30.4157C133.318 30.4157 133.323 30.405 133.357 30.3997ZM132.129 46.7384C131.534 46.561 131.09 46.2877 130.79 45.921C130.485 45.5544 130.285 45.0717 130.19 44.4944C130.09 43.905 130.046 43.205 130.046 42.3944V39.3877H150.751V42.3944C150.751 43.205 150.701 43.905 150.601 44.4944C150.506 45.0717 150.306 45.5544 150.001 45.921C149.701 46.2877 149.257 46.561 148.662 46.7384C148.067 46.9104 147.279 46.9997 146.29 46.9997H134.501C133.513 46.9997 132.718 46.9104 132.129 46.7384ZM121.818 23.5544C121.373 23.5544 120.934 23.7157 120.601 24.0104C120.362 23.8997 120.101 23.8437 119.834 23.8437H117.151C116.667 23.8437 116.195 24.0384 115.851 24.3824C115.506 24.721 115.313 25.1997 115.313 25.677V26.5104C115.129 26.205 114.906 25.921 114.646 25.661C113.946 24.9824 113.051 24.5877 112.123 24.3944C111.234 24.205 110.223 24.1384 109.013 24.133H102.629C102.146 24.133 101.667 24.333 101.329 24.6717C100.99 25.0104 100.79 25.4877 100.79 25.9717V28.477C100.79 28.961 100.99 29.4384 101.329 29.777C101.667 30.121 102.146 30.3157 102.629 30.3157H109.046C109.357 30.3157 109.613 30.333 109.795 30.3544C109.818 30.5544 109.834 30.833 109.834 31.1597V46.4157C109.834 46.8997 110.029 47.3717 110.367 47.7157C110.713 48.0544 111.185 48.2544 111.667 48.2544H114.351C114.823 48.2544 115.29 48.0664 115.629 47.7384C115.695 47.833 115.767 47.921 115.851 48.005C116.195 48.349 116.667 48.5437 117.151 48.5437H119.834C120.101 48.5437 120.362 48.4824 120.601 48.3717C120.934 48.6717 121.373 48.8384 121.818 48.8384H124.501C124.985 48.8384 125.457 48.6437 125.801 48.2997C126.146 47.9544 126.339 47.4824 126.339 46.9997V25.3877C126.339 24.8997 126.146 24.433 125.801 24.0877C125.457 23.749 124.985 23.5544 124.501 23.5544H121.818ZM121.818 25.3877H124.502V46.9984H121.818V25.3877ZM117.151 34.1384V25.677H119.834V46.705H117.151V36.705H114.351V46.4157H111.667V31.1597C111.667 30.6384 111.639 30.205 111.585 29.8544C111.523 29.505 111.406 29.221 111.234 29.0157C111.057 28.8157 110.795 28.6717 110.446 28.5997C110.095 28.5157 109.629 28.477 109.046 28.477H102.629V25.9717H109.013C110.146 25.9717 111.051 26.0437 111.746 26.1944C112.434 26.3384 112.973 26.5997 113.357 26.977C113.751 27.3544 114.013 27.8824 114.151 28.549C114.285 29.221 114.351 30.0944 114.351 31.1597V34.1384H117.151ZM69.3234 23.5544C68.8794 23.5544 68.4408 23.7157 68.1061 24.0104C67.8674 23.8997 67.6061 23.8437 67.3408 23.8437H64.6514C64.1728 23.8437 63.7008 24.0384 63.3568 24.3824C63.0794 24.221 62.7621 24.133 62.4408 24.133H56.6954H56.5181H55.4061H55.2341H49.5514C49.0621 24.133 48.5954 24.333 48.2514 24.6717C47.9061 25.0104 47.7128 25.4877 47.7128 25.9717V28.477C47.7128 28.961 47.9061 29.4384 48.2514 29.777C48.5954 30.121 49.0621 30.3157 49.5514 30.3157H49.6794L47.9234 46.505C47.8674 47.033 48.0341 47.5437 48.3848 47.933C48.7341 48.3277 49.2288 48.5437 49.7514 48.5437H52.4341C53.3794 48.5437 54.1674 47.8264 54.2621 46.8877L55.8394 31.0544L55.8461 31.021C55.8621 30.7437 55.8954 30.505 55.9234 30.3157H55.9848C56.0181 30.505 56.0568 30.7544 56.0901 31.049V31.0544L57.6621 46.8877C57.7568 47.8264 58.5514 48.5437 59.4954 48.5437H62.1794C62.6394 48.5437 63.0794 48.3717 63.4181 48.061C63.7514 48.3664 64.2008 48.5437 64.6514 48.5437H67.3408C67.6061 48.5437 67.8674 48.4824 68.1061 48.377C68.4408 48.6717 68.8794 48.8384 69.3234 48.8384H72.0008C72.4901 48.8384 72.9621 48.6437 73.3008 48.2997C73.5461 48.0544 73.7181 47.749 73.7954 47.4157C73.7954 47.421 73.7954 47.421 73.8008 47.421C74.1394 47.7664 74.6128 47.9597 75.1008 47.9597H99.5954C100.079 47.9597 100.551 47.7664 100.895 47.421C101.239 47.0824 101.434 46.605 101.434 46.121V43.5544C101.434 43.0717 101.239 42.605 100.895 42.2544C100.551 41.9157 100.079 41.721 99.5954 41.721H90.5234V40.0877H97.8461C98.3288 40.0877 98.8008 39.8944 99.1461 39.549C99.4901 39.205 99.6848 38.733 99.6848 38.249V35.7437C99.6848 35.2544 99.4901 34.7824 99.1461 34.4437C99.0394 34.3384 98.9234 34.249 98.8008 34.177C98.9954 33.877 99.1008 33.5277 99.1008 33.177V25.9717C99.1008 25.4877 98.9008 25.0104 98.5621 24.6717C98.2181 24.333 97.7461 24.133 97.2621 24.133H77.4288C76.9461 24.133 76.4728 24.333 76.1288 24.6717C75.7901 25.0104 75.5954 25.4877 75.5954 25.9717V28.477C75.5954 28.8717 75.7234 29.261 75.9514 29.5717C75.7234 29.8877 75.5954 30.2717 75.5954 30.6664V34.2277C75.5954 35.005 75.6514 35.7157 75.7954 36.3824C75.9514 37.149 76.3008 37.8997 76.8461 38.4997C77.4181 39.1277 78.1621 39.5277 78.9408 39.761V39.7544C79.7461 39.9997 80.6061 40.0824 81.5954 40.0877H84.1674V41.721H75.1008C74.6341 41.721 74.1794 41.8997 73.8461 42.2157V25.3877C73.8461 24.8997 73.6461 24.433 73.3008 24.0877C72.9621 23.749 72.4901 23.5544 72.0008 23.5544H69.3234ZM69.3234 25.3877H72.0008V46.9984H69.3234V25.3877ZM62.1181 34.1384H64.6514V25.677H67.3408V46.705H64.6514V36.705H62.1181V34.1384ZM77.4288 25.9717H97.2621V33.177H80.1128V34.2824C80.1128 34.5157 80.1234 34.7277 80.1461 34.9104C80.1621 35.0997 80.2128 35.2544 80.3008 35.377C80.3901 35.505 80.5288 35.5997 80.7234 35.649C80.9181 35.7104 81.2008 35.7437 81.5728 35.7437H97.8461V38.249H81.5954C80.7234 38.249 80.0128 38.1664 79.4728 37.9997C78.9288 37.8384 78.5008 37.5877 78.2008 37.2544C77.8954 36.9277 77.7008 36.505 77.5901 35.9997C77.4848 35.4997 77.4288 34.905 77.4288 34.2277V30.6664H94.5794V28.477H77.4288V25.9717ZM49.5514 25.9717H55.2341H55.4061H56.5181H56.6954H62.4408V28.477H60.0514C60.1848 29.005 60.2954 29.605 60.4008 30.2877L62.1794 46.705H59.4954L57.9181 30.8717C57.8568 30.349 57.7954 29.9264 57.7128 29.6157C57.6394 29.305 57.5394 29.0664 57.4234 28.8997C57.3061 28.7384 57.1674 28.6277 57.0128 28.5664C56.8568 28.505 56.6728 28.477 56.4568 28.477H55.2621C55.0901 28.4997 54.9341 28.5437 54.8008 28.6104C54.6621 28.677 54.5394 28.7997 54.4341 28.977C54.3288 29.149 54.2394 29.3944 54.1728 29.6997C54.1008 30.0157 54.0461 30.405 54.0061 30.8717L52.4341 46.705H49.7514L51.5341 30.2877C51.5901 29.605 51.7061 29.005 51.8848 28.477H49.5514V25.9717ZM62.4408 30.3157C62.5674 30.3157 62.6954 30.305 62.8181 30.277V32.2997H62.4621L62.2461 30.3157H62.4408ZM75.1008 43.5544H86.0008V39.0664H88.6901V43.5544H99.5954V46.121H75.1008V43.5544ZM242.034 24.133C241.546 24.133 241.079 24.333 240.734 24.6717C240.395 25.0104 240.201 25.4877 240.201 25.9717V28.5384C240.201 29.021 240.395 29.4944 240.734 29.8384C241.079 30.177 241.546 30.377 242.034 30.377H251.367C251.679 30.3717 251.939 30.3877 252.123 30.4104C252.139 30.593 252.151 30.849 252.151 31.1597V46.4157C252.151 46.8997 252.346 47.3717 252.695 47.7157C253.034 48.0544 253.506 48.2544 253.995 48.2544H256.673C257.157 48.2544 257.634 48.0544 257.973 47.7157C258.318 47.3717 258.513 46.8997 258.513 46.4157V31.1597C258.513 30.0104 258.446 29.0437 258.274 28.1877C258.085 27.2544 257.673 26.349 256.967 25.661H256.962C256.262 24.9824 255.373 24.5877 254.446 24.3944C253.557 24.205 252.551 24.1384 251.339 24.133H242.034ZM242.034 25.9717H251.339C252.462 25.9717 253.373 26.0437 254.062 26.1944C254.751 26.3384 255.295 26.5997 255.685 26.977C256.073 27.3544 256.334 27.8824 256.467 28.549C256.606 29.221 256.673 30.0944 256.673 31.1597V46.4157H253.995V31.1597C253.995 30.6384 253.962 30.2104 253.901 29.877C253.846 29.549 253.729 29.2824 253.551 29.077C253.379 28.8717 253.118 28.733 252.767 28.6544C252.418 28.577 251.951 28.5384 251.367 28.5384H242.034V25.9717ZM215.79 24.133C215.301 24.133 214.829 24.333 214.49 24.6717C214.146 25.0104 213.951 25.4877 213.951 25.9717V28.5384C213.951 29.021 214.146 29.4944 214.49 29.8384C214.829 30.177 215.301 30.377 215.79 30.377H224.829C225.139 30.3717 225.401 30.3877 225.585 30.4104C225.601 30.593 225.613 30.849 225.613 31.1597V46.4157C225.613 46.8997 225.806 47.3717 226.151 47.7157C226.495 48.0544 226.967 48.2544 227.451 48.2544H230.134C230.618 48.2544 231.095 48.0544 231.434 47.7157C231.779 47.3717 231.973 46.8997 231.973 46.4157V31.1597C231.973 30.0104 231.901 29.0437 231.734 28.1877C231.546 27.2544 231.134 26.349 230.429 25.661H230.423C229.723 24.977 228.834 24.5877 227.901 24.3944C227.018 24.205 226.006 24.1384 224.795 24.133H215.79ZM215.79 25.9717H224.795C225.923 25.9717 226.834 26.0437 227.523 26.1944C228.213 26.3384 228.751 26.5997 229.146 26.977C229.534 27.3544 229.795 27.8824 229.934 28.549C230.067 29.221 230.134 30.0944 230.134 31.1597V46.4157H227.451V31.1597C227.451 30.6384 227.423 30.2104 227.362 29.877C227.306 29.549 227.19 29.2824 227.013 29.077C226.839 28.8717 226.579 28.733 226.229 28.6544C225.879 28.577 225.406 28.5384 224.829 28.5384H215.79V25.9717ZM132.723 41.8997V42.249C132.723 42.6944 132.746 43.0544 132.785 43.3384C132.823 43.621 132.901 43.849 133.018 44.021C133.134 44.1997 133.306 44.321 133.546 44.3877C133.773 44.4544 134.09 44.4944 134.473 44.4944H146.318C146.701 44.4944 147.018 44.4544 147.246 44.3877C147.485 44.321 147.657 44.1997 147.773 44.021C147.895 43.849 147.967 43.621 148.006 43.3384C148.046 43.0544 148.067 42.6944 148.067 42.249V41.8997H132.723Z" fill="black"/>
<path d="M72.0064 46.9995H69.3237V25.3888H72.0064V46.9995ZM62.1198 34.1382H64.6571V25.6809H67.3411V46.7089H64.6571V36.7048H62.1198V34.1382ZM49.5504 25.9729H55.2371H55.4118H56.5197H56.6957H62.4411V28.4808H60.0491C60.1851 29.0048 60.3024 29.6089 60.3997 30.2875L62.1784 46.7089H59.4957L57.9211 30.8715C57.8624 30.3462 57.7944 29.9289 57.7157 29.6169C57.6384 29.3075 57.5411 29.0689 57.4251 28.9035C57.3077 28.7382 57.1717 28.6262 57.0171 28.5675C56.8611 28.5088 56.6757 28.4808 56.4624 28.4808H55.2664C55.0918 28.4995 54.9358 28.5435 54.7998 28.6115C54.6638 28.6795 54.5424 28.8008 54.4344 28.9768C54.3278 29.1515 54.2411 29.3942 54.1731 29.7062C54.1038 30.0168 54.0504 30.4048 54.0131 30.8715L52.4371 46.7089H49.7544L51.5331 30.2875C51.5917 29.6089 51.7091 29.0048 51.8837 28.4808H49.5504V25.9729Z" fill="white"/>
<path d="M81.6024 38.2503C80.7277 38.2503 80.0171 38.1677 79.4731 38.0023C78.9291 37.837 78.5051 37.5903 78.2051 37.2597C77.9024 36.929 77.6984 36.5103 77.5917 36.005C77.4851 35.4997 77.4317 34.9063 77.4317 34.225V30.6677H94.5797V28.481H77.4317V25.973H97.2637V33.1757H80.1144V34.2837C80.1144 34.517 80.1251 34.7263 80.1437 34.9117C80.1624 35.097 80.2171 35.2517 80.3037 35.3783C80.3917 35.5037 80.5331 35.597 80.7277 35.6557C80.9211 35.7143 81.2037 35.7423 81.5731 35.7423H97.8464V38.2503H81.6024ZM75.0984 43.5583H86.0064V39.0663H88.6891V43.5583H99.5971V46.125H75.0984V43.5583Z" fill="white"/>
<path d="M124.502 46.9995H121.82V25.3888H124.502V46.9995ZM102.629 25.9729H109.016C110.144 25.9729 111.052 26.0462 111.742 26.1915C112.433 26.3369 112.972 26.5995 113.361 26.9782C113.75 27.3569 114.013 27.8835 114.149 28.5542C114.285 29.2235 114.353 30.0942 114.353 31.1635V34.1382H117.153V25.6809H119.836V46.7089H117.153V36.7048H114.353V46.4169H111.67V31.1635C111.67 30.6382 111.641 30.2008 111.582 29.8502C111.524 29.5008 111.408 29.2235 111.233 29.0195C111.057 28.8155 110.794 28.6742 110.445 28.5968C110.096 28.5195 109.628 28.4808 109.045 28.4808H102.629V25.9729Z" fill="white"/>
<path d="M150.75 38.2502H148.068V25.3888H150.75V38.2502ZM146.317 44.4915C146.706 44.4915 147.017 44.4582 147.25 44.3888C147.484 44.3222 147.658 44.1995 147.776 44.0249C147.892 43.8502 147.969 43.6209 148.009 43.3395C148.048 43.0569 148.068 42.6928 148.068 42.2462V41.8955H132.726V42.2462C132.726 42.6928 132.745 43.0569 132.785 43.3395C132.824 43.6209 132.902 43.8502 133.018 44.0249C133.134 44.1995 133.31 44.3222 133.544 44.3888C133.777 44.4582 134.088 44.4915 134.477 44.4915H146.317ZM134.506 46.9995C133.514 46.9995 132.721 46.9115 132.129 46.7369C131.536 46.5622 131.089 46.2889 130.788 45.9209C130.486 45.5515 130.286 45.0742 130.189 44.4915C130.092 43.9075 130.044 43.2089 130.044 42.3915V39.3875H150.75V42.3915C150.75 43.2089 150.701 43.9075 150.604 44.4915C150.508 45.0742 150.308 45.5515 150.006 45.9209C149.705 46.2889 149.258 46.5622 148.665 46.7369C148.072 46.9115 147.28 46.9995 146.289 46.9995H134.506ZM128.585 31.8342C128.585 30.9595 128.662 30.1635 128.818 29.4435C128.974 28.7235 129.256 28.1062 129.664 27.5915C130.073 27.0755 130.646 26.6769 131.385 26.3942C132.124 26.1129 133.077 25.9729 134.244 25.9729H143.809V28.5395H133.806C132.892 28.5395 132.24 28.7969 131.852 29.3115C131.462 29.8275 131.268 30.6675 131.268 31.8342C131.268 33.0009 131.462 33.8422 131.852 34.3569C132.24 34.8729 132.892 35.1302 133.806 35.1302H138.764C139.23 35.1302 139.6 35.0475 139.872 34.8822C140.144 34.7182 140.353 34.4835 140.498 34.1822C140.645 33.8808 140.741 33.5315 140.79 33.1315C140.84 32.7328 140.864 32.3009 140.864 31.8342V29.4435H143.546V31.8342C143.546 32.6315 143.498 33.3808 143.401 34.0795C143.304 34.7795 143.085 35.4022 142.745 35.9462C142.405 36.4915 141.9 36.9195 141.228 37.2288C140.557 37.5408 139.638 37.6969 138.472 37.6969H134.244C133.077 37.6969 132.124 37.5542 131.385 37.2742C130.646 36.9928 130.073 36.5929 129.664 36.0782C129.256 35.5622 128.974 34.9449 128.818 34.2249C128.662 33.5062 128.585 32.7102 128.585 31.8342Z" fill="white"/>
<path d="M184.288 25.3893V34.1387H187.671V36.704H184.288V47H181.605V25.3893H184.288ZM165.973 39.6493C165.973 40.6227 166.08 41.4 166.293 41.9827C166.508 42.5667 166.815 43.0147 167.212 43.3253C167.611 43.6373 168.083 43.8453 168.627 43.952C169.171 44.0587 169.784 44.112 170.464 44.112C171.125 44.112 171.733 44.0587 172.287 43.952C172.841 43.8453 173.317 43.6373 173.716 43.3253C174.115 43.0147 174.421 42.5667 174.635 41.9827C174.849 41.4 174.956 40.6227 174.956 39.6493V34.1093H177.639V39.972C177.639 41.312 177.449 42.42 177.071 43.296C176.691 44.1707 176.181 44.856 175.539 45.352C174.897 45.848 174.14 46.1933 173.264 46.3867C172.389 46.5813 171.456 46.6787 170.464 46.6787C169.473 46.6787 168.539 46.5813 167.664 46.3867C166.789 46.1933 166.032 45.848 165.389 45.352C164.748 44.856 164.237 44.1707 163.859 43.296C163.48 42.42 163.289 41.312 163.289 39.972V37.3467C163.289 36.0053 163.48 34.896 163.859 34.0213C164.237 33.1467 164.748 32.4613 165.389 31.9653C166.032 31.4707 166.789 31.1253 167.664 30.9293C168.539 30.736 169.473 30.6387 170.464 30.6387H177.929V33.204H170.464C169.784 33.204 169.171 33.2587 168.627 33.364C168.083 33.472 167.611 33.6813 167.212 33.992C166.815 34.304 166.508 34.7547 166.293 35.3493C166.08 35.9413 165.973 36.7147 165.973 37.6667V39.6493ZM162.707 26.5547H169.123V24.5147H171.807V26.5547H178.221V29.1227H162.707V26.5547Z" fill="white"/>
<path d="M205.024 34.1382H208.728V25.3888H211.41V46.9995H208.728V36.7048H205.024V34.1382ZM194.874 46.4168C193.746 46.4168 192.837 46.3435 192.148 46.1982C191.457 46.0528 190.918 45.7888 190.529 45.4102C190.14 45.0315 189.878 44.5062 189.741 43.8342C189.606 43.1648 189.537 42.2942 189.537 41.2248V35.0422H201.204V28.4808H189.537V25.9728H203.885V37.5515H192.22V41.2835C192.22 41.8088 192.25 42.2355 192.308 42.5662C192.366 42.8968 192.484 43.1648 192.658 43.3688C192.832 43.5728 193.096 43.7142 193.445 43.7915C193.796 43.8702 194.262 43.9075 194.845 43.9075H204.469V46.4168H194.874Z" fill="white"/>
<path d="M236.784 25.3893V34.1387H240.167V36.704H236.784V47H234.101V25.3893H236.784ZM215.785 25.972H224.799C225.924 25.972 226.835 26.0453 227.525 26.192C228.215 26.3373 228.755 26.5987 229.144 26.9773C229.532 27.3573 229.795 27.8827 229.931 28.5533C230.067 29.224 230.135 30.0933 230.135 31.1627V46.4173H227.452V31.1627C227.452 30.6387 227.423 30.2107 227.365 29.88C227.307 29.5493 227.189 29.2827 227.015 29.0787C226.839 28.8733 226.577 28.7333 226.227 28.6547C225.876 28.5787 225.411 28.5387 224.827 28.5387H215.785V25.972Z" fill="white"/>
<path d="M263.906 46.9995H261.224V25.3888H263.906V46.9995ZM242.033 25.9729H251.337C252.464 25.9729 253.374 26.0462 254.064 26.1915C254.754 26.3369 255.293 26.5995 255.682 26.9782C256.07 27.3569 256.333 27.8835 256.47 28.5542C256.605 29.2235 256.673 30.0942 256.673 31.1635V46.4169H253.99V31.1635C253.99 30.6382 253.961 30.2115 253.904 29.8809C253.845 29.5502 253.728 29.2822 253.553 29.0782C253.377 28.8742 253.116 28.7329 252.765 28.6555C252.416 28.5782 251.949 28.5395 251.366 28.5395H242.033V25.9729Z" fill="white"/>
</svg>
