<svg width="108" height="108" viewBox="0 0 108 108" fill="none" xmlns="http://www.w3.org/2000/svg">
<mask id="mask0_147_20" style="mask-type:luminance" maskUnits="userSpaceOnUse" x="0" y="0" width="108" height="108">
<path d="M0 2.86102e-06H108V108H0V2.86102e-06Z" fill="white"/>
</mask>
<g mask="url(#mask0_147_20)">
<path d="M54.381 100.884C40.9784 100.884 34.8584 91.048 32.4037 74.4147C31.6397 69.2347 31.2304 63.3947 31.069 56.988C30.8317 47.6454 31.3237 38.9254 32.873 31.512C35.737 17.816 42.213 8.58136 54.381 8.1227C71.8264 7.46536 78.7824 28.7014 79.0477 56.796C79.3024 83.7827 71.957 100.884 54.381 100.884Z" stroke="#243A5A" stroke-width="1.33333" stroke-miterlimit="10"/>
</g>
<path d="M50.0213 30.3108L48.9987 31.1935L47.6933 32.0401L46.448 32.4095L41.988 33.1775L40.8373 33.2281L39.8133 33.4175L38.484 33.3655L37.4813 33.0641L37.356 32.0841L37 30.8868L38.224 30.3135L39.576 29.7268L40.4547 29.7441L41.9067 29.3868L46.6173 28.3468L47.544 27.7828L48.436 26.9108L49.38 26.0055L50.148 25.6895L51.4387 25.7295L52.1627 26.3935L52.1853 27.4415L51.192 28.9281L50.0213 30.3108Z" fill="#243A5A"/>
<path d="M49.6652 23.809L47.6426 23.6664L46.1106 23.5704H43.9666L42.8652 23.6664L40.5359 22.2904L40.9639 21.3877L42.7426 20.153L44.5799 20.0584L45.8666 20.1064H47.9479L49.7252 20.153L51.2572 20.1064L53.4012 20.2957L55.3012 20.3437L56.7106 19.9637H59.1599L60.8146 20.2477L62.1626 19.9157L64.5532 20.0117L66.2679 20.1064L67.9839 21.4824L67.6759 22.7637L66.0839 23.761L64.3679 23.713L62.5306 23.8557L60.9986 23.761L58.6692 23.5704L54.3199 23.6664L51.2572 23.5704L49.6652 23.809Z" fill="#243A5A"/>
<path d="M57.4193 17.7974L55.614 17.9868H54.202L52.342 17.7014L50.762 17.7974L49.5767 18.0828L47.49 16.5641L47.9393 15.7094L49.4087 14.2841L50.762 14.2374L52.3967 14.0481L54.4287 14.0001L55.6713 14.4268L57.2513 14.1414L59.506 14.2374L60.918 15.6614L61.03 16.5641L59.282 17.7014L57.4193 17.7974Z" fill="#243A5A"/>
<path d="M59.0673 25.5368L60.1473 26.3475L61.1127 26.9648L62.4753 28.0075L68.5513 29.5528L69.7447 30.1715L71.9033 30.6728L72.8127 31.4835L72.4407 32.5675L71.3607 33.4128H69.6887L67.9833 32.8342L62.59 31.2875L60.8847 30.6315L59.5207 30.2848L58.6127 29.4742L57.3633 28.5475L56.2833 28.0075L56.1113 26.8488L57.8167 25.6142L59.0673 25.5368Z" fill="#243A5A"/>
<path d="M69.8618 52.0103L68.4125 50.9663L68.5738 49.5889V48.3076L68.3711 46.8836L68.5738 45.7449L68.6538 44.4156L68.3711 42.7063L68.7738 41.3303L68.6938 40.2849L68.3711 38.5769L67.5271 38.6716L61.8578 38.8129L60.6098 38.9089L59.1605 39.0516L57.9938 38.8623L43.6698 38.8129L42.3805 38.9556L41.2938 38.8623L39.6831 38.6703L38.4351 38.8623L37.7911 38.3863L37.4285 37.3903L37.4685 36.3463L38.4351 34.9689L39.6831 35.3489L41.2125 35.1103L42.1791 35.2063L43.8285 35.3023H57.9938L59.3618 35.0636L60.4485 35.1596L61.5751 35.3489L67.3245 35.3023L68.4525 35.0169L69.7405 35.1116L71.2698 35.3489L72.0765 36.3463L72.3578 37.8649L72.3165 39.2889L72.1165 40.7129V41.9943L72.3978 43.4183L72.0765 45.3169L72.0351 46.5036L72.3978 48.0703V49.6836L72.3578 50.9663L71.1898 51.9143L69.8618 52.0103Z" fill="#243A5A"/>
<path d="M41.012 57.7713L41.252 59.338L41.3333 60.4767L60.0173 60.762H61.144L62.5533 60.8087L63.8013 60.6193L65.1293 60.8553L66.1773 60.7127L67.5053 60.6193H68.472L68.6333 59.4793L68.512 57.7233L68.6333 56.3473L52.9026 56.062L51.856 55.966L50.3666 55.9193L49.1173 56.3473L48.192 56.1087L46.7026 56.2993L45.696 56.394L45.132 55.682L44.8106 54.4007L45.3746 53.3567L46.9026 52.454L47.8706 52.5487L49.44 52.6447H50.4866L51.856 52.406L52.9026 52.502L68.432 52.7393L68.7133 50.9833L68.432 48.942L69.72 47.7553L71.3306 48.0393L72.136 49.1793L72.4173 50.6033L72.3773 51.9807L72.1746 53.31V54.5433L72.4586 55.8727L72.136 57.6753L72.096 58.8153L72.4586 60.286V63.0873L71.2093 64.274L70.0013 64.3687L68.472 64.1313L67.5053 64.322L66.3373 64.4153L65.0906 64.322L63.52 64.3687H62.472L61.2253 64.4153L59.816 64.3687L41.252 64.4633L40.1253 64.51L38.676 64.1793L38.072 63.7993L37.7506 63.0873L37.428 61.378L37.8306 60.0487L37.7093 58.7673L37.7506 57.4393L37.5493 56.2047L37.6293 54.638L37.6706 53.166L37.6293 51.9327L37.8306 50.414L37.428 48.7993L38.5946 47.7073L40.0853 47.898L41.2133 49.1313L41.252 50.746V54.3527L41.012 57.7713Z" fill="#243A5A"/>
<path d="M39.1854 70.8754L40.7947 70.2847L42.7787 70.4434L44.0881 70.9514L44.0854 72.5514L44.0267 74.2407L44.2374 75.1981L44.0854 76.3234V77.6194L44.3867 78.7581L44.4467 79.9381L44.0267 81.0381L44.4467 82.2554L44.0854 83.1994L44.0267 84.2594L44.2667 85.6354H45.6507L47.3947 85.4767L49.1987 85.4394L50.7027 85.5567H52.5667L52.0854 84.2994L52.5081 83.0021L52.0854 81.9807V80.4101L52.3267 79.3874L52.2667 78.2474L52.3267 77.0301L52.0267 75.7327L52.0854 74.3581L52.6281 73.2581L52.3267 72.1194L52.3881 70.7821L52.2667 69.7221L52.0267 68.7794L52.2067 67.5221L52.6454 66.7754L54.1321 66.2647L55.4534 66.1461L56.7187 66.5941L57.2454 67.5461L57.2001 68.4647L57.5587 69.8794L57.4387 70.9394L57.1387 72.0007L57.4387 73.2581V74.4754L57.2001 75.6941L57.6787 76.8727V78.1701L57.6201 79.3087L57.2001 80.3701L57.6787 81.8234L57.2001 82.9247L57.6201 84.1421L57.4387 85.4394L59.3027 85.5167L60.8681 85.3594L62.3707 85.5167L63.8147 85.4767H65.5587L65.6801 84.1821L65.5587 83.3554L65.2587 82.2154L65.6801 80.7234L65.7387 79.9767L65.4387 78.7581L65.8001 77.4621L65.3774 76.5194V75.0261L65.7387 73.7287L65.2587 72.5114L65.6574 71.7194L66.8241 71.2941L68.9521 71.2007L70.4627 71.5047L70.8894 72.5274L70.6121 74.0834L70.7321 75.3407L70.7934 76.1661L70.9121 77.4621L70.6121 78.7194V79.6234L70.9121 80.8807L70.5507 82.0194L70.6121 83.3954V85.6741L70.7934 86.4981L70.4921 87.7181L70.3707 88.9754L69.9894 89.7354L68.8067 89.8781L67.2441 90.1927L65.7334 89.6447L65.3187 88.2287L63.8147 88.4247L61.7094 88.3461L60.2067 88.4247L58.4014 88.6207L56.5374 88.5421L54.6721 88.5821H53.3507L51.4254 88.3061L49.5601 88.4647L47.5761 88.5021L46.3107 88.6207L44.2667 88.5421L44.2054 89.6034L43.8414 90.5447L42.7641 90.7434L40.9587 90.7034L39.5547 90.6061L39.1547 89.6421L39.4547 88.6207L39.2734 87.2447L39.3934 86.2634L39.0347 84.8887L39.1547 83.6314L39.2147 82.3341L39.0934 81.2727L39.2147 80.2514L38.9147 78.8767L39.3934 77.6594L39.1547 76.5981V75.1447L39.3934 73.9247L39.4294 72.7727L38.8894 71.5527L39.1854 70.8754Z" fill="#243A5A"/>
</svg>
