<svg width="1817" height="1373" viewBox="0 0 1817 1373" fill="none" xmlns="http://www.w3.org/2000/svg">
<path d="M0 1283.42H1817V1.5715H0V1283.42Z" fill="#8AD0BF"/>
<path d="M0 1352.47H1817V1281.85H0V1352.47Z" fill="white"/>
<path d="M104.753 1333.17L104.765 1309.79L120.245 1309.79L120.243 1313.87L109.706 1313.86L109.703 1319.44L119.213 1319.44L119.211 1323.51L109.701 1323.51L109.697 1333.17L104.753 1333.17ZM123.559 1333.17L123.57 1309.79L132.795 1309.79C134.56 1309.8 136.067 1310.11 137.315 1310.74C138.57 1311.37 139.525 1312.25 140.179 1313.4C140.841 1314.55 141.171 1315.89 141.17 1317.43C141.17 1318.99 140.834 1320.32 140.164 1321.44C139.493 1322.55 138.523 1323.4 137.251 1324C135.988 1324.59 134.458 1324.89 132.662 1324.89L126.485 1324.89L126.487 1320.91L131.864 1320.91C132.808 1320.91 133.592 1320.79 134.216 1320.53C134.841 1320.27 135.305 1319.88 135.61 1319.36C135.922 1318.84 136.078 1318.2 136.079 1317.43C136.079 1316.66 135.923 1316 135.612 1315.47C135.307 1314.94 134.84 1314.53 134.208 1314.26C133.584 1313.98 132.796 1313.84 131.845 1313.84L128.512 1313.84L128.502 1333.17L123.559 1333.17ZM136.19 1322.54L141.996 1333.18L136.539 1333.18L130.859 1322.53L136.19 1322.54ZM144.656 1333.18L144.667 1309.8L160.422 1309.8L160.42 1313.88L149.609 1313.87L149.606 1319.45L159.607 1319.45L159.605 1323.52L149.604 1323.52L149.601 1329.1L160.458 1329.11L160.456 1333.18L144.656 1333.18ZM164.34 1333.18L164.352 1309.8L180.106 1309.81L180.104 1313.88L169.293 1313.88L169.29 1319.45L179.291 1319.45L179.289 1323.53L169.288 1323.53L169.286 1329.11L180.142 1329.11L180.14 1333.19L164.34 1333.18ZM108.764 1372.17L103.467 1372.17L111.55 1348.79L117.92 1348.79L125.968 1372.17L120.671 1372.17L114.823 1354.13L114.641 1354.13L108.764 1372.17ZM108.437 1362.98L120.95 1362.98L120.948 1366.84L108.435 1366.84L108.437 1362.98ZM133.737 1348.8L133.725 1372.18L128.782 1372.17L128.794 1348.79L133.737 1348.8Z" fill="white"/>
<path d="M282 1284.08H1559V1.57191H282V1284.08Z" fill="#8AD0BF"/>
<path d="M282 1353.17H1559V1282.5H282V1353.17Z" fill="white"/>
<path d="M356.225 1333.83L356.234 1310.45L371.714 1310.46L371.713 1314.53L361.175 1314.53L361.173 1320.1L370.683 1320.11L370.682 1324.18L361.172 1324.18L361.169 1333.84L356.225 1333.83ZM375.031 1333.84L375.039 1310.46L384.263 1310.46C386.029 1310.46 387.536 1310.78 388.784 1311.41C390.039 1312.04 390.994 1312.92 391.648 1314.07C392.31 1315.21 392.641 1316.56 392.64 1318.1C392.64 1319.66 392.304 1320.99 391.634 1322.11C390.964 1323.22 389.993 1324.07 388.722 1324.67C387.458 1325.26 385.929 1325.56 384.132 1325.56L377.956 1325.55L377.958 1321.58L383.335 1321.58C384.278 1321.58 385.062 1321.45 385.687 1321.19C386.311 1320.94 386.775 1320.55 387.08 1320.03C387.392 1319.51 387.548 1318.87 387.548 1318.1C387.549 1317.33 387.393 1316.67 387.081 1316.14C386.777 1315.61 386.309 1315.2 385.677 1314.93C385.053 1314.65 384.266 1314.5 383.314 1314.5L379.981 1314.5L379.974 1333.84L375.031 1333.84ZM387.661 1323.2L393.468 1333.85L388.011 1333.84L382.329 1323.2L387.661 1323.2ZM396.128 1333.85L396.136 1310.47L411.891 1310.47L411.889 1314.55L401.078 1314.54L401.076 1320.12L411.077 1320.12L411.075 1324.19L401.075 1324.19L401.073 1329.77L411.929 1329.78L411.928 1333.85L396.128 1333.85ZM415.812 1333.85L415.821 1310.47L431.575 1310.48L431.574 1314.56L420.762 1314.55L420.76 1320.12L430.761 1320.13L430.76 1324.2L420.759 1324.2L420.757 1329.78L431.614 1329.78L431.613 1333.86L415.812 1333.85ZM360.242 1372.84L354.945 1372.83L363.024 1349.46L369.394 1349.46L377.446 1372.84L372.149 1372.84L366.299 1354.8L366.116 1354.8L360.242 1372.84ZM359.914 1363.64L372.426 1363.65L372.425 1367.51L359.913 1367.5L359.914 1363.64ZM385.211 1349.46L385.203 1372.84L380.26 1372.84L380.268 1349.46L385.211 1349.46Z" fill="white"/>
<mask id="mask0_280_123" style="mask-type:luminance" maskUnits="userSpaceOnUse" x="282" y="-1" width="1277" height="1355">
<path d="M282 -0.000596427H1559V1353.17H282V-0.000596427Z" fill="white"/>
</mask>
<g mask="url(#mask0_280_123)">
<path d="M464.769 1308.25L463.494 1309.72L472.591 1317.84L463.362 1326.08L464.661 1327.53L475.513 1317.85L464.769 1308.25Z" fill="white"/>
<path d="M464.769 1308.25L463.494 1309.72L472.591 1317.84L463.362 1326.08L464.661 1327.53L475.513 1317.85L464.769 1308.25Z" stroke="white" stroke-width="2.348" stroke-miterlimit="10"/>
<path d="M1133.92 796.062H727.062C715.096 796.062 705.308 786.272 705.308 774.307C705.308 762.343 715.096 752.553 727.062 752.553H1133.92C1145.89 752.553 1155.68 762.343 1155.68 774.307C1155.68 786.272 1145.89 796.062 1133.92 796.062Z" fill="#232020"/>
<path d="M1086.94 720.449C1106.19 700.018 1118 672.487 1118 642.198C1118 579.163 1066.89 528.063 1003.86 528.063C975.92 528.063 950.328 538.104 930.49 554.77C910.652 538.104 885.063 528.063 857.128 528.063C794.09 528.063 742.988 579.163 742.988 642.198C742.988 672.911 755.122 700.788 774.854 721.304L845.854 796.061H1016.69L1086.94 720.449Z" fill="#F16180"/>
<path d="M783.945 712.56C765.667 693.556 755.601 668.567 755.601 642.198C755.601 586.219 801.146 540.676 857.127 540.676C880.971 540.676 904.144 549.111 922.376 564.427L930.49 571.244L938.604 564.427C956.835 549.111 980.01 540.676 1003.86 540.676C1059.84 540.676 1105.38 586.219 1105.38 642.198C1105.38 668.175 1095.57 692.893 1077.7 711.863L999.476 796.061H1033.91L1096.12 729.099C1118.36 705.494 1130.61 674.632 1130.61 642.198C1130.61 572.308 1073.75 515.448 1003.86 515.448C977.516 515.448 951.83 523.693 930.49 538.841C909.15 523.693 883.466 515.448 857.127 515.448C787.235 515.448 730.374 572.308 730.374 642.198C730.374 675.121 742.942 706.32 765.707 729.99L828.458 796.061H863.251L783.945 712.56Z" fill="white"/>
<mask id="mask1_280_123" style="mask-type:luminance" maskUnits="userSpaceOnUse" x="788" y="772" width="305" height="25">
<path d="M788.441 772.19H1092.53V796.061H788.441V772.19Z" fill="white"/>
</mask>
<g mask="url(#mask1_280_123)">
<g opacity="0.199997">
<path d="M1092.53 772.19H788.441V796.061H1092.53V772.19Z" fill="#232020"/>
</g>
</g>
</g>
<path d="M721.678 938H698.647V873.03H721.868C728.403 873.03 734.029 874.331 738.745 876.932C743.461 879.512 747.089 883.224 749.626 888.067C752.185 892.91 753.465 898.705 753.465 905.452C753.465 912.219 752.185 918.035 749.626 922.9C747.089 927.764 743.44 931.497 738.682 934.098C733.944 936.699 728.277 938 721.678 938ZM712.383 926.231H721.107C725.168 926.231 728.583 925.512 731.354 924.073C734.145 922.614 736.239 920.362 737.635 917.316C739.052 914.25 739.76 910.295 739.76 905.452C739.76 900.651 739.052 896.728 737.635 893.682C736.239 890.637 734.156 888.395 731.385 886.957C728.615 885.519 725.199 884.8 721.139 884.8H712.383V926.231ZM823.344 905.515C823.344 912.6 822.001 918.628 819.315 923.598C816.65 928.568 813.013 932.364 808.402 934.986C803.813 937.588 798.652 938.888 792.921 938.888C787.147 938.888 781.966 937.577 777.377 934.955C772.787 932.332 769.16 928.536 766.495 923.566C763.831 918.596 762.498 912.579 762.498 905.515C762.498 898.43 763.831 892.403 766.495 887.433C769.16 882.463 772.787 878.677 777.377 876.076C781.966 873.453 787.147 872.142 792.921 872.142C798.652 872.142 803.813 873.453 808.402 876.076C813.013 878.677 816.65 882.463 819.315 887.433C822.001 892.403 823.344 898.43 823.344 905.515ZM809.417 905.515C809.417 900.926 808.73 897.056 807.355 893.904C806.002 890.753 804.088 888.363 801.613 886.735C799.139 885.106 796.241 884.292 792.921 884.292C789.601 884.292 786.703 885.106 784.229 886.735C781.754 888.363 779.83 890.753 778.455 893.904C777.102 897.056 776.425 900.926 776.425 905.515C776.425 910.104 777.102 913.975 778.455 917.126C779.83 920.277 781.754 922.667 784.229 924.295C786.703 925.924 789.601 926.738 792.921 926.738C796.241 926.738 799.139 925.924 801.613 924.295C804.088 922.667 806.002 920.277 807.355 917.126C808.73 913.975 809.417 910.104 809.417 905.515ZM887.861 873.03V938H875.997L847.731 897.108H847.255V938H833.519V873.03H845.574L873.618 913.89H874.189V873.03H887.861ZM910.409 938H895.689L918.118 873.03H935.819L958.216 938H943.497L927.222 887.877H926.715L910.409 938ZM909.489 912.463H944.258V923.185H909.489V912.463ZM955.623 884.356V873.03H1008.98V884.356H989.091V938H975.513V884.356H955.623ZM1031.51 873.03V938H1017.77V873.03H1031.51ZM1102.51 905.515C1102.51 912.6 1101.17 918.628 1098.48 923.598C1095.82 928.568 1092.18 932.364 1087.57 934.986C1082.98 937.588 1077.82 938.888 1072.09 938.888C1066.31 938.888 1061.13 937.577 1056.54 934.955C1051.95 932.332 1048.33 928.536 1045.66 923.566C1043 918.596 1041.66 912.579 1041.66 905.515C1041.66 898.43 1043 892.403 1045.66 887.433C1048.33 882.463 1051.95 878.677 1056.54 876.076C1061.13 873.453 1066.31 872.142 1072.09 872.142C1077.82 872.142 1082.98 873.453 1087.57 876.076C1092.18 878.677 1095.82 882.463 1098.48 887.433C1101.17 892.403 1102.51 898.43 1102.51 905.515ZM1088.58 905.515C1088.58 900.926 1087.9 897.056 1086.52 893.904C1085.17 890.753 1083.25 888.363 1080.78 886.735C1078.31 885.106 1075.41 884.292 1072.09 884.292C1068.77 884.292 1065.87 885.106 1063.4 886.735C1060.92 888.363 1059 890.753 1057.62 893.904C1056.27 897.056 1055.59 900.926 1055.59 905.515C1055.59 910.104 1056.27 913.975 1057.62 917.126C1059 920.277 1060.92 922.667 1063.4 924.295C1065.87 925.924 1068.77 926.738 1072.09 926.738C1075.41 926.738 1078.31 925.924 1080.78 924.295C1083.25 922.667 1085.17 920.277 1086.52 917.126C1087.9 913.975 1088.58 910.104 1088.58 905.515ZM1167.03 873.03V938H1155.16L1126.9 897.108H1126.42V938H1112.69V873.03H1124.74L1152.78 913.89H1153.36V873.03H1167.03Z" fill="white"/>
</svg>
