<svg width="23" height="23" viewBox="0 0 23 23" fill="none" xmlns="http://www.w3.org/2000/svg">
<path d="M11.5 23C5.15628 23 0 17.8437 0 11.5C0 5.15628 5.15628 0 11.5 0C17.8437 0 23 5.15628 23 11.5C23 17.8437 17.8437 23 11.5 23ZM11.5 1.60465C6.04419 1.60465 1.60465 6.04419 1.60465 11.5C1.60465 16.9558 6.04419 21.3953 11.5 21.3953C16.9558 21.3953 21.3953 16.9558 21.3953 11.5C21.3953 6.04419 16.9558 1.60465 11.5 1.60465Z" fill="#FBFBFB"/>
<path d="M14.1743 12.3023H7.75569C7.31709 12.3023 6.95337 11.9386 6.95337 11.5C6.95337 11.0614 7.31709 10.6977 7.75569 10.6977H14.1743C14.6129 10.6977 14.9766 11.0614 14.9766 11.5C14.9766 11.9386 14.6129 12.3023 14.1743 12.3023Z" fill="#FBFBFB"/>
<path d="M12.0343 15.5116C11.831 15.5116 11.6278 15.4367 11.4673 15.2762C11.1571 14.966 11.1571 14.4525 11.4673 14.1423L14.1096 11.4999L11.4673 8.85766C11.1571 8.54742 11.1571 8.03393 11.4673 7.7237C11.7775 7.41347 12.291 7.41347 12.6012 7.7237L15.8105 10.933C16.1208 11.2432 16.1208 11.7567 15.8105 12.0669L12.6012 15.2762C12.4408 15.4367 12.2375 15.5116 12.0343 15.5116Z" fill="#FBFBFB"/>
</svg>
