<svg width="24" height="18" viewBox="0 0 24 18" fill="none" xmlns="http://www.w3.org/2000/svg">
<path d="M2 7.5C1.17157 7.5 0.5 8.17157 0.5 9C0.5 9.82843 1.17157 10.5 2 10.5L2 7.5ZM22 10.5C22.8284 10.5 23.5 9.82843 23.5 9C23.5 8.17157 22.8284 7.5 22 7.5L22 10.5ZM18.1145 0.996023C17.56 0.380522 16.6115 0.331055 15.996 0.885535C15.3805 1.44002 15.3311 2.38847 15.8855 3.00398L18.1145 0.996023ZM19.2037 4.44623L18.0892 5.45021L19.2037 4.44623ZM19.2037 13.5538L20.3182 14.5577L20.3182 14.5577L19.2037 13.5538ZM15.8855 14.996C15.3311 15.6115 15.3805 16.56 15.996 17.1145C16.6115 17.6689 17.56 17.6195 18.1145 17.004L15.8855 14.996ZM21.9751 8.56133L23.4655 8.39172L23.4655 8.39172L21.9751 8.56133ZM21.9751 9.43867L23.4655 9.60828L23.4655 9.60828L21.9751 9.43867ZM2 10.5L22 10.5L22 7.5L2 7.5L2 10.5ZM15.8855 3.00398L18.0892 5.45021L20.3182 3.44225L18.1145 0.996023L15.8855 3.00398ZM18.0892 12.5498L15.8855 14.996L18.1145 17.004L20.3182 14.5577L18.0892 12.5498ZM18.0892 5.45021C18.9907 6.45083 19.5825 7.11105 19.9787 7.6636C20.3542 8.18728 20.4569 8.48602 20.4848 8.73095L23.4655 8.39172C23.3581 7.44778 22.9538 6.66438 22.4167 5.91543C21.9004 5.19535 21.1742 4.39245 20.3182 3.44225L18.0892 5.45021ZM20.3182 14.5577C21.1742 13.6075 21.9004 12.8047 22.4167 12.0846C22.9538 11.3356 23.3581 10.5522 23.4655 9.60828L20.4848 9.26905C20.4569 9.51398 20.3542 9.81272 19.9787 10.3364C19.5825 10.8889 18.9907 11.5492 18.0892 12.5498L20.3182 14.5577ZM20.4848 8.73094C20.5051 8.90952 20.5051 9.09048 20.4848 9.26905L23.4655 9.60828C23.5115 9.20428 23.5115 8.79572 23.4655 8.39172L20.4848 8.73094Z" fill="#656C77"/>
</svg>
