<svg width="160" height="160" viewBox="0 0 160 160" fill="none" xmlns="http://www.w3.org/2000/svg">
<mask id="mask0_147_20" style="mask-type:luminance" maskUnits="userSpaceOnUse" x="0" y="0" width="160" height="160">
<path d="M0 0H160V160H0V0Z" fill="white"/>
</mask>
<g mask="url(#mask0_147_20)">
<path d="M81.381 130.884C67.9784 130.884 61.8584 121.048 59.4037 104.415C58.6397 99.2347 58.2304 93.3947 58.069 86.988C57.8317 77.6454 58.3237 68.9254 59.873 61.512C62.737 47.816 69.213 38.5814 81.381 38.1227C98.8264 37.4654 105.782 58.7014 106.048 86.796C106.302 113.783 98.957 130.884 81.381 130.884Z" stroke="#243A5A" stroke-width="1.33333" stroke-miterlimit="10"/>
</g>
<path d="M77.0213 60.3108L75.9987 61.1935L74.6933 62.0401L73.448 62.4095L68.988 63.1775L67.8373 63.2281L66.8133 63.4175L65.484 63.3655L64.4813 63.0641L64.356 62.0841L64 60.8868L65.224 60.3135L66.576 59.7268L67.4547 59.7441L68.9067 59.3868L73.6173 58.3468L74.544 57.7828L75.436 56.9108L76.38 56.0055L77.148 55.6895L78.4387 55.7295L79.1627 56.3935L79.1853 57.4415L78.192 58.9281L77.0213 60.3108Z" fill="#243A5A"/>
<path d="M76.6652 53.809L74.6426 53.6664L73.1106 53.5704H70.9666L69.8652 53.6664L67.5359 52.2904L67.9639 51.3877L69.7426 50.153L71.5799 50.0584L72.8666 50.1064H74.9479L76.7252 50.153L78.2572 50.1064L80.4012 50.2957L82.3012 50.3437L83.7106 49.9637H86.1599L87.8146 50.2477L89.1626 49.9157L91.5532 50.0117L93.2679 50.1064L94.9839 51.4824L94.6759 52.7637L93.0839 53.761L91.3679 53.713L89.5306 53.8557L87.9986 53.761L85.6692 53.5704L81.3199 53.6664L78.2572 53.5704L76.6652 53.809Z" fill="#243A5A"/>
<path d="M84.4193 47.7974L82.614 47.9868H81.202L79.342 47.7014L77.762 47.7974L76.5767 48.0828L74.49 46.5641L74.9393 45.7094L76.4087 44.2841L77.762 44.2374L79.3967 44.0481L81.4287 44.0001L82.6713 44.4268L84.2513 44.1414L86.506 44.2374L87.918 45.6614L88.03 46.5641L86.282 47.7014L84.4193 47.7974Z" fill="#243A5A"/>
<path d="M86.0673 55.5368L87.1473 56.3475L88.1127 56.9648L89.4753 58.0075L95.5513 59.5528L96.7447 60.1715L98.9033 60.6728L99.8127 61.4835L99.4407 62.5675L98.3607 63.4128H96.6887L94.9833 62.8342L89.59 61.2875L87.8847 60.6315L86.5207 60.2848L85.6127 59.4742L84.3633 58.5475L83.2833 58.0075L83.1113 56.8488L84.8167 55.6142L86.0673 55.5368Z" fill="#243A5A"/>
<path d="M96.8618 82.0103L95.4125 80.9663L95.5738 79.5889V78.3076L95.3711 76.8836L95.5738 75.7449L95.6538 74.4156L95.3711 72.7063L95.7738 71.3303L95.6938 70.2849L95.3711 68.5769L94.5271 68.6716L88.8578 68.8129L87.6098 68.9089L86.1605 69.0516L84.9938 68.8623L70.6698 68.8129L69.3805 68.9556L68.2938 68.8623L66.6831 68.6703L65.4351 68.8623L64.7911 68.3863L64.4285 67.3903L64.4685 66.3463L65.4351 64.9689L66.6831 65.3489L68.2125 65.1103L69.1791 65.2063L70.8285 65.3023H84.9938L86.3618 65.0636L87.4485 65.1596L88.5751 65.3489L94.3245 65.3023L95.4525 65.0169L96.7405 65.1116L98.2698 65.3489L99.0765 66.3463L99.3578 67.8649L99.3165 69.2889L99.1165 70.7129V71.9943L99.3978 73.4183L99.0765 75.3169L99.0351 76.5036L99.3978 78.0703V79.6836L99.3578 80.9663L98.1898 81.9143L96.8618 82.0103Z" fill="#243A5A"/>
<path d="M68.012 87.7713L68.252 89.338L68.3333 90.4767L87.0173 90.762H88.144L89.5533 90.8087L90.8013 90.6193L92.1293 90.8553L93.1773 90.7127L94.5053 90.6193H95.472L95.6333 89.4793L95.512 87.7233L95.6333 86.3473L79.9026 86.062L78.856 85.966L77.3666 85.9193L76.1173 86.3473L75.192 86.1087L73.7026 86.2993L72.696 86.394L72.132 85.682L71.8106 84.4007L72.3746 83.3567L73.9026 82.454L74.8706 82.5487L76.44 82.6447H77.4866L78.856 82.406L79.9026 82.502L95.432 82.7393L95.7133 80.9833L95.432 78.942L96.72 77.7553L98.3306 78.0393L99.136 79.1793L99.4173 80.6033L99.3773 81.9807L99.1746 83.31V84.5433L99.4586 85.8727L99.136 87.6753L99.096 88.8153L99.4586 90.286V93.0873L98.2093 94.274L97.0013 94.3687L95.472 94.1313L94.5053 94.322L93.3373 94.4153L92.0906 94.322L90.52 94.3687H89.472L88.2253 94.4153L86.816 94.3687L68.252 94.4633L67.1253 94.51L65.676 94.1793L65.072 93.7993L64.7506 93.0873L64.428 91.378L64.8306 90.0487L64.7093 88.7673L64.7506 87.4393L64.5493 86.2047L64.6293 84.638L64.6706 83.166L64.6293 81.9327L64.8306 80.414L64.428 78.7993L65.5946 77.7073L67.0853 77.898L68.2133 79.1313L68.252 80.746V84.3527L68.012 87.7713Z" fill="#243A5A"/>
<path d="M66.1854 100.875L67.7947 100.285L69.7787 100.443L71.0881 100.951L71.0854 102.551L71.0267 104.241L71.2374 105.198L71.0854 106.323V107.619L71.3867 108.758L71.4467 109.938L71.0267 111.038L71.4467 112.255L71.0854 113.199L71.0267 114.259L71.2667 115.635H72.6507L74.3947 115.477L76.1987 115.439L77.7027 115.557H79.5667L79.0854 114.299L79.5081 113.002L79.0854 111.981V110.41L79.3267 109.387L79.2667 108.247L79.3267 107.03L79.0267 105.733L79.0854 104.358L79.6281 103.258L79.3267 102.119L79.3881 100.782L79.2667 99.7221L79.0267 98.7794L79.2067 97.5221L79.6454 96.7754L81.1321 96.2647L82.4534 96.1461L83.7187 96.5941L84.2454 97.5461L84.2001 98.4647L84.5587 99.8794L84.4387 100.939L84.1387 102.001L84.4387 103.258V104.475L84.2001 105.694L84.6787 106.873V108.17L84.6201 109.309L84.2001 110.37L84.6787 111.823L84.2001 112.925L84.6201 114.142L84.4387 115.439L86.3027 115.517L87.8681 115.359L89.3707 115.517L90.8147 115.477H92.5587L92.6801 114.182L92.5587 113.355L92.2587 112.215L92.6801 110.723L92.7387 109.977L92.4387 108.758L92.8001 107.462L92.3774 106.519V105.026L92.7387 103.729L92.2587 102.511L92.6574 101.719L93.8241 101.294L95.9521 101.201L97.4627 101.505L97.8894 102.527L97.6121 104.083L97.7321 105.341L97.7934 106.166L97.9121 107.462L97.6121 108.719V109.623L97.9121 110.881L97.5507 112.019L97.6121 113.395V115.674L97.7934 116.498L97.4921 117.718L97.3707 118.975L96.9894 119.735L95.8067 119.878L94.2441 120.193L92.7334 119.645L92.3187 118.229L90.8147 118.425L88.7094 118.346L87.2067 118.425L85.4014 118.621L83.5374 118.542L81.6721 118.582H80.3507L78.4254 118.306L76.5601 118.465L74.5761 118.502L73.3107 118.621L71.2667 118.542L71.2054 119.603L70.8414 120.545L69.7641 120.743L67.9587 120.703L66.5547 120.606L66.1547 119.642L66.4547 118.621L66.2734 117.245L66.3934 116.263L66.0347 114.889L66.1547 113.631L66.2147 112.334L66.0934 111.273L66.2147 110.251L65.9147 108.877L66.3934 107.659L66.1547 106.598V105.145L66.3934 103.925L66.4294 102.773L65.8894 101.553L66.1854 100.875Z" fill="#243A5A"/>
</svg>
