<svg width="346" height="288" viewBox="0 0 346 288" fill="none" xmlns="http://www.w3.org/2000/svg">
<g clip-path="url(#clip0_326_2)">
<path d="M-175 398.667H346.333V-240H-175V398.667Z" fill="white"/>
<mask id="mask0_326_2" style="mask-type:luminance" maskUnits="userSpaceOnUse" x="-175" y="-240" width="522" height="639">
<path d="M-175 398.667H346.333V-240H-175V398.667Z" fill="white"/>
</mask>
<g mask="url(#mask0_326_2)">
</g>
<mask id="mask1_326_2" style="mask-type:luminance" maskUnits="userSpaceOnUse" x="-175" y="-240" width="522" height="639">
<path d="M-175 -240H346.333V398.667H-175V-240Z" fill="white"/>
</mask>
<g mask="url(#mask1_326_2)">
<g opacity="0.5">
<mask id="mask2_326_2" style="mask-type:luminance" maskUnits="userSpaceOnUse" x="141" y="60" width="107" height="23">
<path d="M141.444 82.7185H247.699V60.0785H141.444V82.7185Z" fill="white"/>
</mask>
<g mask="url(#mask2_326_2)">
<path d="M247.699 82.7185H141.444V60.0785H247.699V82.7185Z" fill="#FF9FED"/>
</g>
</g>
<g opacity="0.309998">
<mask id="mask3_326_2" style="mask-type:luminance" maskUnits="userSpaceOnUse" x="190" y="117" width="103" height="112">
<path d="M190.699 228.061H292.909V117.096H190.699V228.061Z" fill="white"/>
</mask>
<g mask="url(#mask3_326_2)">
<path d="M292.91 199.228L226.195 228.061L190.699 145.929L257.414 117.096L292.91 199.228Z" fill="#00EDFF"/>
</g>
</g>
</g>
<path d="M275.374 158.312L297.706 148.794L292.91 137.629L270.578 147.221L275.374 158.312Z" stroke="black" stroke-width="1.12" stroke-linecap="round" stroke-linejoin="round"/>
<path d="M270.578 147.221L292.91 137.629L288.114 126.464L265.782 136.056L270.578 147.221Z" stroke="black" stroke-width="1.12" stroke-linecap="round" stroke-linejoin="round"/>
<path d="M280.17 169.478L302.426 159.96L297.706 148.795L275.374 158.312L280.17 169.478Z" stroke="black" stroke-width="1.12" stroke-linecap="round" stroke-linejoin="round"/>
<path d="M225.99 227.929L218.046 209.345L199.462 217.288L207.406 235.873L225.99 227.929Z" stroke="black" stroke-width="1.12" stroke-linecap="round" stroke-linejoin="round"/>
<path d="M198.862 164.756L190.918 146.172L172.334 154.115L180.278 172.7L198.862 164.756Z" stroke="black" stroke-width="1.12" stroke-linecap="round" stroke-linejoin="round"/>
<path d="M284.367 128.037L276.423 109.453L257.839 117.47L265.783 136.055L284.367 128.037Z" stroke="black" stroke-width="1.12" stroke-linecap="round" stroke-linejoin="round"/>
<path d="M275.374 219.911L297.706 210.394L292.91 199.228L270.578 208.82L275.374 219.911Z" stroke="black" stroke-width="1.12" stroke-linecap="round" stroke-linejoin="round"/>
<path d="M253.043 229.503L275.375 219.911L270.579 208.82L248.321 218.338L253.043 229.503Z" stroke="black" stroke-width="1.12" stroke-linecap="round" stroke-linejoin="round"/>
<path d="M230.786 239.095L253.042 229.503L248.322 218.338L225.99 227.93L230.786 239.095Z" stroke="black" stroke-width="1.12" stroke-linecap="round" stroke-linejoin="round"/>
<path d="M311.494 191.285L303.55 172.701L284.966 180.643L292.91 199.229L311.494 191.285Z" stroke="black" stroke-width="1.12" stroke-linecap="round" stroke-linejoin="round"/>
<path d="M284.966 180.643L307.222 171.051L302.426 159.961L280.17 169.478L284.966 180.643Z" stroke="black" stroke-width="1.12" stroke-linecap="round" stroke-linejoin="round"/>
<path d="M186.123 196.605L208.455 187.013L203.659 175.848L181.402 185.44L186.123 196.605Z" stroke="black" stroke-width="1.12" stroke-linecap="round" stroke-linejoin="round"/>
<path d="M181.402 185.439L203.658 175.847L198.862 164.757L176.606 174.274L181.402 185.439Z" stroke="black" stroke-width="1.12" stroke-linecap="round" stroke-linejoin="round"/>
<path d="M190.432 145.572L182.414 126.988L163.83 134.931L171.848 153.516L190.432 145.572Z" stroke="black" stroke-width="1.12" stroke-linecap="round" stroke-linejoin="round"/>
<path d="M187.285 124.89L182.414 126.988M182.414 126.988L190.433 145.572L209.017 137.554L201.073 118.97L182.414 126.988Z" stroke="black" stroke-width="1.12" stroke-linecap="round" stroke-linejoin="round"/>
<path d="M227.601 129.61L219.657 111.026L201.073 118.969L209.017 137.554L227.601 129.61Z" stroke="black" stroke-width="1.12" stroke-linecap="round" stroke-linejoin="round"/>
<mask id="mask4_326_2" style="mask-type:luminance" maskUnits="userSpaceOnUse" x="-175" y="-240" width="522" height="639">
<path d="M-175 -240H346.333V398.667H-175V-240Z" fill="white"/>
</mask>
<g mask="url(#mask4_326_2)">
<g opacity="0.5">
<mask id="mask5_326_2" style="mask-type:luminance" maskUnits="userSpaceOnUse" x="62" y="86" width="43" height="85">
<path d="M62.2681 170.717H104.441V86.2986H62.2681V170.717Z" fill="white"/>
</mask>
<g mask="url(#mask5_326_2)">
<path d="M83.5987 170.717L62.2681 165.073L83.1121 86.2984L104.441 91.9424L83.5987 170.717Z" fill="#FFE600"/>
</g>
</g>
</g>
<mask id="mask6_326_2" style="mask-type:luminance" maskUnits="userSpaceOnUse" x="-175" y="-14" width="513" height="324">
<path d="M-175 309.687H337.647V-13.9708H-175V309.687Z" fill="white"/>
</mask>
<g mask="url(#mask6_326_2)">
<path d="M226.528 167.096H227.597V178.321H226.528V167.096ZM224.024 178.144V172.229H222.073V171.249H224.024V167.096H225.107V178.144H224.024ZM222.351 177.403C221.268 176.521 220.513 175.452 219.997 174.117C219.595 175.439 218.751 176.673 217.581 177.628L216.739 176.887C218.311 175.677 219.431 173.703 219.431 171.424V168.48H217.267V167.549H222.64V168.48H220.552V171.424C220.552 173.716 221.621 175.489 223.029 176.572L222.351 177.403Z" fill="black"/>
<path d="M230.248 174.181V170.292H238.402V168.33H230.248V167.398H239.497V171.212H231.33V173.249H239.8V174.181H230.248ZM229.178 177.742V176.81H234.452V174.873H235.572V176.81H240.63V177.742H229.178Z" fill="black"/>
<path d="M251.207 167.096H252.276V178.321H251.207V167.096ZM248.628 178.144V172.733H246.865V171.74H248.628V167.096H249.711V178.144H248.628ZM241.832 176.785C244.929 174.244 245.684 171.275 245.76 168.48H242.236V167.549H246.879C246.865 171.5 245.872 174.772 242.637 177.479L241.832 176.785Z" fill="black"/>
<path d="M263.348 167.096H264.431V173.261H263.348V167.096ZM263.36 174.797H256.755V177.325H263.36V174.797ZM255.685 173.865H264.431V178.257H255.685V173.865ZM260.253 169.776C260.253 168.693 259.423 167.964 257.949 167.964C256.477 167.964 255.66 168.693 255.66 169.776V170.18C255.66 171.275 256.477 171.991 257.949 171.991C259.423 171.991 260.253 171.275 260.253 170.18V169.776ZM261.335 170.268C261.335 171.803 260.063 172.923 257.949 172.923C255.823 172.923 254.577 171.803 254.577 170.268V169.689C254.577 168.152 255.823 167.033 257.949 167.033C260.063 167.033 261.335 168.152 261.335 169.689V170.268Z" fill="black"/>
</g>
<path d="M216.398 205.598L208.454 187.014L189.87 195.031L197.814 213.616L216.398 205.598Z" stroke="black" stroke-width="1.12" stroke-linecap="round" stroke-linejoin="round"/>
<path d="M246.146 121.509L238.202 102.925L219.618 110.868L227.562 129.453L246.146 121.509Z" stroke="black" stroke-width="1.12" stroke-linecap="round" stroke-linejoin="round"/>
<path d="M45.6146 205.897L45.0146 206.872L139.512 265.173L45.6146 205.897ZM45.0146 206.872L139.512 265.173L139.437 266.523L45.0146 206.872ZM139.512 265.173L139.437 266.523L177.731 247.713L139.512 265.173ZM139.437 266.523L177.731 247.713L177.131 249.287L139.437 266.523ZM177.731 247.713L177.131 249.287L179.828 252.284L177.731 247.713ZM177.131 249.287L179.828 252.284L179.229 253.932L177.131 249.287ZM179.828 252.284L179.229 253.932L195.716 245.464L179.828 252.284ZM179.229 253.932L195.716 245.464L195.116 247.113L179.229 253.932ZM195.716 245.464L195.116 247.113L198.637 252.284L195.716 245.464ZM195.116 247.113L198.637 252.284L197.964 253.857L195.116 247.113ZM198.637 252.284L197.964 253.857L330.379 195.705L198.637 252.284ZM197.964 253.857L330.379 195.705L331.952 196.38L197.964 253.857ZM330.379 195.705L331.952 196.38L268.255 50.9254L330.379 195.705ZM331.952 196.38L268.255 50.9254L269.08 49.7267L331.952 196.38ZM268.255 50.9254L269.08 49.7267L195.716 51.2254L268.255 50.9254ZM269.08 49.7267L195.716 51.2254V50.0267L269.08 49.7267Z" fill="black"/>
<path d="M184.774 51.3004V50.1017L101.593 51.6751L184.774 51.3004ZM184.774 50.1017L101.593 51.6751L102.792 50.4764L184.774 50.1017ZM101.593 51.6751L102.792 50.4764L101.593 39.4604V51.6751ZM102.792 50.4764L101.593 39.4604L102.792 38.1858V50.4764ZM101.593 39.4604L102.792 38.1858L56.8556 40.2097L101.593 39.4604ZM102.792 38.1858L56.8556 40.2097L58.0543 38.9351L102.792 38.1858ZM56.8556 40.2097L58.0543 38.9351L56.8556 37.9618V40.2097ZM58.0543 38.9351L56.8556 37.9618L58.129 36.7631L58.0543 38.9351ZM56.8556 37.9618L58.129 36.7631L-16.0591 38.7858L56.8556 37.9618ZM58.129 36.7631L-16.0591 38.7858V37.5124L58.129 36.7631ZM-16.0591 38.7858V37.5124L-88.0751 39.2351L-16.0591 38.7858ZM-16.0591 37.5124L-88.0751 39.2351L-87.7751 38.0364L-16.0591 37.5124ZM-88.0751 39.2351L-87.7751 38.0364L-112.954 27.9204L-88.0751 39.2351ZM-87.7751 38.0364L-112.954 27.9204L-112.28 26.8711L-87.7751 38.0364ZM-112.954 27.9204L-112.28 26.8711L-120.448 22.4497L-112.954 27.9204ZM-112.28 26.8711L-120.448 22.4497L-120.748 20.7257L-112.28 26.8711ZM-120.448 22.4497L-120.748 20.7257L-154.77 75.9551L-120.448 22.4497ZM-120.748 20.7257L-154.77 75.9551L-156.418 76.3297L-120.748 20.7257ZM-154.77 75.9551L-156.418 76.3297L45.6143 205.898L-154.77 75.9551ZM-156.418 76.3297L45.6143 205.898L45.0156 206.871L-156.418 76.3297Z" fill="black"/>
<path d="M44.7153 206.197L45.914 206.572L84.4327 60.4424L44.7153 206.197ZM45.914 206.572L84.4327 60.4424L85.8567 59.7678L45.914 206.572ZM84.4327 60.4424L85.8567 59.7678L51.01 45.2304L84.4327 60.4424ZM85.8567 59.7678L51.01 45.2304L52.2847 44.4811L85.8567 59.7678ZM51.01 45.2304L52.2847 44.4811L50.9353 37.4371L51.01 45.2304ZM52.2847 44.4811L50.9353 37.4371H52.2087L52.2847 44.4811Z" fill="black"/>
<path d="M179.529 253.108L185.523 267.047L201.41 260.227L195.415 246.288L179.529 253.108Z" stroke="black" stroke-width="1.12" stroke-linecap="round" stroke-linejoin="round"/>
<path d="M102.193 23.7987H88.3293V38.8613H102.193V23.7987Z" stroke="black" stroke-width="1.12" stroke-linecap="round" stroke-linejoin="round"/>
<path d="M153.525 259.478L161.244 277.463L185.524 267.047L177.43 248.537L153.525 259.478Z" stroke="black" stroke-width="1.12" stroke-linecap="round" stroke-linejoin="round"/>
<path d="M88.3294 20.876H62.176V38.8613H88.3294V20.876Z" stroke="black" stroke-width="1.12" stroke-linecap="round" stroke-linejoin="round"/>
<path d="M83.3083 106.979L78.7376 105.781L68.2456 144.823L87.8043 150.069L98.2203 111.026L94.3989 109.977" stroke="black" stroke-width="1.12" stroke-linecap="round" stroke-linejoin="round"/>
<path d="M151.052 243.366L133.967 232.576L123.175 249.661L140.261 260.452L151.052 243.366Z" stroke="black" stroke-width="1.12" stroke-linecap="round" stroke-linejoin="round"/>
<path d="M133.966 232.575L116.881 221.785L106.089 238.87L123.176 249.661L133.966 232.575Z" stroke="black" stroke-width="1.12" stroke-linecap="round" stroke-linejoin="round"/>
<path d="M116.88 221.784L99.7951 210.918L88.9285 228.079L106.09 238.87L116.88 221.784Z" stroke="black" stroke-width="1.12" stroke-linecap="round" stroke-linejoin="round"/>
<path d="M98.2208 111.026L103.466 91.4672L83.9075 86.2219L78.7368 105.781L98.2208 111.026Z" stroke="black" stroke-width="1.12" stroke-linecap="round" stroke-linejoin="round"/>
<path d="M221.007 60.0786H247.7V83.2786H221.007V60.0786Z" stroke="black" stroke-width="1.12" stroke-linecap="round" stroke-linejoin="round"/>
<path d="M201.153 60.0793H220.925V83.2793H194.233V66.8526" stroke="black" stroke-width="1.12" stroke-linecap="round" stroke-linejoin="round"/>
<path d="M189.495 50.7009V50.4756" stroke="black" stroke-width="1.12" stroke-linecap="round" stroke-linejoin="round"/>
<path d="M194.313 66.852V83.28H167.62V60.0787H188.959" stroke="black" stroke-width="1.12" stroke-linecap="round" stroke-linejoin="round"/>
<path d="M188.514 60.0793H201.658" stroke="black" stroke-width="1.12" stroke-linecap="round" stroke-linejoin="round"/>
<path d="M194.313 66.5073V60.6833" stroke="black" stroke-width="1.12" stroke-linecap="round" stroke-linejoin="round"/>
<path d="M183.188 50.7009H197.817" stroke="black" stroke-width="2.66667" stroke-linecap="round" stroke-linejoin="round"/>
<path d="M141.011 60.0786H167.621V83.2786H141.011V60.0786Z" stroke="black" stroke-width="1.12" stroke-linecap="round" stroke-linejoin="round"/>
<path d="M102.118 174.873L107.363 155.314L87.8044 150.069L82.5591 169.628L102.118 174.873Z" stroke="black" stroke-width="1.12" stroke-linecap="round" stroke-linejoin="round"/>
<path d="M82.5589 169.627L87.8042 150.069L68.2456 144.823L63.0002 164.382L82.5589 169.627Z" stroke="black" stroke-width="1.12" stroke-linecap="round" stroke-linejoin="round"/>
<path d="M102.193 21.4747H136.44V51.0747H102.193V21.4747Z" stroke="black" stroke-width="1.12" stroke-linecap="round" stroke-linejoin="round"/>
<path d="M98.2959 35.8633H92.2266V32.0419" stroke="black" stroke-width="0.333333" stroke-miterlimit="10"/>
<path d="M95.1484 35.8633V33.5406" stroke="black" stroke-width="0.333333" stroke-miterlimit="10"/>
<path d="M98.2959 35.8633V32.0419" stroke="black" stroke-width="0.333333" stroke-miterlimit="10"/>
<path d="M92.2258 30.3179L98.2952 27.9952L92.2258 25.7472" stroke="black" stroke-width="0.333333" stroke-miterlimit="10"/>
<path d="M195.865 260.152L190.245 262.551L188.821 259.103" stroke="black" stroke-width="0.333333" stroke-miterlimit="10"/>
<path d="M192.943 261.426L192.044 259.328" stroke="black" stroke-width="0.333333" stroke-miterlimit="10"/>
<path d="M195.865 260.152L194.366 256.706" stroke="black" stroke-width="0.333333" stroke-miterlimit="10"/>
<path d="M188.071 257.53L192.793 253.034L186.273 253.258" stroke="black" stroke-width="0.333333" stroke-miterlimit="10"/>
<mask id="mask7_326_2" style="mask-type:luminance" maskUnits="userSpaceOnUse" x="-175" y="-240" width="522" height="639">
<path d="M-175 -240H346.333V398.667H-175V-240Z" fill="white"/>
</mask>
<g mask="url(#mask7_326_2)">
<path d="M70.6256 27.7844C70.7923 27.9137 70.8763 28.0884 70.8763 28.3097V29.311C70.8763 30.5604 70.6229 31.5364 70.1163 32.2364C69.6429 32.9044 68.9829 33.275 68.1376 33.351C68.0616 33.3564 68.0003 33.3404 67.9509 33.3017C67.9083 33.2644 67.8843 33.219 67.8789 33.1657C67.8736 33.1057 67.8896 33.055 67.9269 33.011C67.9643 32.9684 68.0243 32.9444 68.1056 32.939C68.8696 32.8524 69.4403 32.5217 69.8176 31.9457C70.2056 31.3524 70.3989 30.4884 70.3989 29.351V28.391C70.3989 28.2617 70.3589 28.1644 70.2789 28.099C70.2029 28.035 70.0923 28.003 69.9469 28.003H68.2589C68.1069 28.003 68.0323 27.9324 68.0323 27.7924C68.0269 27.6577 68.1003 27.591 68.2509 27.591H69.9949C70.2536 27.591 70.4643 27.655 70.6256 27.7844ZM73.9136 34.0377C73.8709 34.0804 73.8189 34.103 73.7603 34.103C73.6949 34.103 73.6416 34.0804 73.5989 34.0377C73.5496 33.9884 73.5256 33.927 73.5256 33.8524V27.5577C73.5256 27.4884 73.5496 27.4324 73.5989 27.3884C73.6416 27.351 73.6949 27.3324 73.7603 27.3324C73.8189 27.3324 73.8709 27.351 73.9136 27.3884C73.9669 27.427 73.9949 27.4804 73.9949 27.5497V33.8524C73.9949 33.927 73.9669 33.9884 73.9136 34.0377ZM72.2816 27.3324C72.4429 27.3324 72.5243 27.4057 72.5243 27.5497V33.8524C72.5243 33.927 72.4963 33.9884 72.4429 34.0377C72.4003 34.0804 72.3469 34.103 72.2816 34.103C72.2176 34.103 72.1629 34.083 72.1203 34.0457C72.0709 33.9977 72.0469 33.9364 72.0469 33.8604V31.5817H70.7629C70.6069 31.5817 70.5283 31.5124 70.5283 31.371C70.5283 31.2364 70.6096 31.1697 70.7709 31.1697H72.0469V29.5537H70.4723V29.1497H72.0469V27.5497C72.0469 27.4057 72.1256 27.3324 72.2816 27.3324Z" fill="black"/>
<path d="M80.021 27.7929C80.0157 27.9329 79.9344 28.0023 79.7784 28.0023H77.3304C77.169 28.0023 77.0584 28.0383 76.9997 28.1076C76.945 28.1716 76.9184 28.2996 76.9184 28.4876V30.2409C76.9184 30.3969 76.957 30.5129 77.0317 30.5876C77.1024 30.6583 77.2117 30.6929 77.3637 30.6929C77.9504 30.6929 78.5024 30.6556 79.0197 30.5796C79.6384 30.4943 80.1664 30.3623 80.6024 30.1836C80.6717 30.1516 80.737 30.1463 80.7957 30.1676C80.8504 30.1956 80.8904 30.2356 80.917 30.2889C80.9384 30.3476 80.9384 30.4049 80.917 30.4583C80.8904 30.5183 80.8424 30.5663 80.7717 30.6049C80.3037 30.7823 79.757 30.9116 79.133 30.9916C78.6317 31.0556 78.0584 31.0889 77.4117 31.0889C77.0877 31.0889 76.8464 31.0196 76.685 30.8783C76.5224 30.7383 76.4424 30.5396 76.4424 30.2809V28.3503C76.4424 28.1289 76.509 27.9489 76.6437 27.8089C76.789 27.6636 76.9837 27.5903 77.225 27.5903H79.7864C79.9424 27.5903 80.021 27.6583 80.021 27.7929ZM82.6957 29.7796C82.8344 29.7796 82.905 29.8476 82.905 29.9823C82.905 30.1223 82.8344 30.1916 82.6957 30.1916H81.8144V32.0343C81.8144 32.1089 81.7877 32.1689 81.733 32.2116C81.6904 32.2556 81.637 32.2769 81.5717 32.2769C81.5077 32.2769 81.453 32.2556 81.4104 32.2116C81.3624 32.1689 81.337 32.1103 81.337 32.0343V27.5663C81.337 27.4209 81.4157 27.3489 81.5717 27.3489C81.733 27.3489 81.8144 27.4209 81.8144 27.5663V29.7796H82.6957ZM77.3144 33.1249C77.3144 33.2703 77.341 33.3703 77.3957 33.4236C77.449 33.4716 77.5517 33.4956 77.7024 33.4956H81.8224C81.9624 33.4956 82.0317 33.5636 82.0317 33.6983C82.0317 33.8383 81.9624 33.9089 81.8224 33.9089H77.6384C77.385 33.9089 77.185 33.8409 77.0397 33.7063C76.905 33.5769 76.837 33.3996 76.837 33.1729V32.1076C76.837 32.0156 76.8624 31.9449 76.9104 31.8969C76.953 31.8489 77.0077 31.8236 77.073 31.8236C77.137 31.8236 77.1904 31.8489 77.2344 31.8969C77.2877 31.9449 77.3144 32.0156 77.3144 32.1076V33.1249Z" fill="black"/>
<path d="M170.001 266.871C169.979 266.928 169.94 266.968 169.887 266.992C169.827 267.018 169.769 267.019 169.712 266.998C169.648 266.971 169.601 266.924 169.572 266.856L167.059 261.086C167.031 261.022 167.029 260.96 167.057 260.902C167.081 260.85 167.124 260.811 167.183 260.784C167.237 260.762 167.291 260.759 167.347 260.775C167.411 260.788 167.456 260.827 167.484 260.891L170.001 266.668C170.031 266.738 170.031 266.806 170.001 266.871ZM165.828 261.375C165.975 261.311 166.077 261.346 166.136 261.479L168.652 267.256C168.683 267.324 168.683 267.392 168.653 267.458C168.631 267.515 168.591 267.556 168.531 267.582C168.471 267.608 168.415 267.612 168.36 267.595C168.296 267.57 168.249 267.523 168.22 267.454L167.309 265.364L166.132 265.878C165.988 265.94 165.889 265.907 165.833 265.779C165.78 265.655 165.827 265.562 165.975 265.498L167.145 264.987L166.499 263.506L165.055 264.135L164.893 263.764L166.339 263.135L165.699 261.668C165.641 261.535 165.684 261.438 165.828 261.375ZM164.489 262.452C164.695 262.503 164.84 262.631 164.928 262.834L165.329 263.751C165.828 264.896 165.985 265.891 165.801 266.735C165.633 267.538 165.177 268.142 164.431 268.548C164.364 268.583 164.301 268.594 164.241 268.578C164.187 268.56 164.147 268.528 164.12 268.482C164.091 268.43 164.085 268.376 164.104 268.322C164.12 268.267 164.165 268.22 164.236 268.184C164.904 267.799 165.295 267.268 165.411 266.588C165.529 265.891 165.361 265.02 164.908 263.979L164.524 263.098C164.472 262.979 164.396 262.907 164.297 262.879C164.201 262.85 164.088 262.864 163.955 262.923L162.407 263.598C162.268 263.658 162.171 263.623 162.115 263.495C162.056 263.374 162.096 263.283 162.235 263.222L163.833 262.526C164.071 262.422 164.289 262.398 164.489 262.452Z" fill="black"/>
<path d="M176.352 259.461C176.48 259.405 176.571 259.439 176.624 259.562C176.682 259.69 176.644 259.783 176.516 259.839L175.708 260.19L176.446 261.879C176.475 261.949 176.474 262.014 176.442 262.074C176.419 262.131 176.378 262.173 176.319 262.198C176.259 262.223 176.202 262.226 176.144 262.203C176.084 262.183 176.038 262.139 176.008 262.07L174.223 257.973C174.166 257.841 174.207 257.742 174.351 257.679C174.499 257.615 174.603 257.65 174.66 257.782L175.544 259.813L176.352 259.461ZM173.107 258.707C173.158 258.838 173.111 258.934 172.968 258.997L170.724 259.974C170.576 260.038 170.488 260.114 170.462 260.202C170.439 260.283 170.464 260.41 170.54 260.583L171.24 262.19C171.302 262.333 171.383 262.425 171.482 262.463C171.574 262.499 171.69 262.487 171.827 262.427C172.366 262.193 172.858 261.938 173.3 261.662C173.835 261.335 174.266 261.005 174.595 260.666C174.646 260.609 174.703 260.578 174.766 260.575C174.826 260.578 174.879 260.598 174.926 260.638C174.968 260.683 174.991 260.735 174.992 260.793C174.992 260.858 174.967 260.922 174.918 260.985C174.559 261.334 174.11 261.671 173.57 261.994C173.135 262.254 172.623 262.513 172.031 262.771C171.735 262.899 171.484 262.933 171.28 262.869C171.076 262.805 170.922 262.654 170.819 262.417L170.048 260.647C169.96 260.445 169.95 260.253 170.018 260.07C170.092 259.879 170.242 259.734 170.463 259.638L172.811 258.615C172.954 258.553 173.054 258.583 173.107 258.707ZM172.755 264.677C172.812 264.809 172.876 264.89 172.947 264.918C173.016 264.941 173.12 264.922 173.259 264.862L177.036 263.217C177.164 263.161 177.255 263.194 177.31 263.318C177.364 263.446 177.328 263.538 177.2 263.594L173.364 265.265C173.132 265.366 172.922 265.385 172.735 265.319C172.56 265.254 172.427 265.118 172.338 264.911L171.911 263.933C171.874 263.849 171.87 263.775 171.894 263.711C171.914 263.65 171.954 263.606 172.014 263.581C172.072 263.554 172.131 263.555 172.191 263.582C172.259 263.605 172.311 263.659 172.348 263.743L172.755 264.677Z" fill="black"/>
<path d="M114.675 35.8391C114.746 35.8391 114.799 35.8578 114.838 35.8965C114.875 35.9338 114.896 35.9791 114.903 36.0325C114.903 36.0871 114.887 36.1325 114.854 36.1698C114.822 36.2138 114.775 36.2351 114.715 36.2351H113.804V39.1271C113.804 39.1965 113.776 39.2538 113.723 39.2965C113.68 39.3391 113.626 39.3618 113.562 39.3618C113.496 39.3618 113.443 39.3391 113.4 39.2965C113.351 39.2538 113.327 39.1951 113.327 39.1191V32.8338C113.327 32.7631 113.351 32.7071 113.4 32.6645C113.443 32.6272 113.496 32.6071 113.562 32.6071C113.626 32.6071 113.68 32.6272 113.723 32.6645C113.776 32.7018 113.804 32.7551 113.804 32.8258V35.8391H114.675ZM109.506 35.3951C109.296 35.5511 109.191 35.7471 109.191 35.9845C109.191 36.2271 109.296 36.4285 109.506 36.5911C109.748 36.7738 110.084 36.8645 110.516 36.8645C110.942 36.8645 111.27 36.7738 111.502 36.5911C111.712 36.4285 111.816 36.2271 111.816 35.9845C111.816 35.7471 111.712 35.5511 111.502 35.3951C111.264 35.2165 110.936 35.1285 110.516 35.1285C110.084 35.1285 109.748 35.2165 109.506 35.3951ZM111.856 33.0351C111.863 33.1711 111.79 33.2378 111.639 33.2378H109.384C109.234 33.2378 109.159 33.1711 109.159 33.0351C109.159 32.9018 109.234 32.8338 109.384 32.8338H111.623C111.779 32.8338 111.856 32.9018 111.856 33.0351ZM111.848 35.1125C112.15 35.3538 112.302 35.6458 112.302 35.9845C112.302 36.3298 112.15 36.6258 111.848 36.8738C111.52 37.1418 111.076 37.2778 110.516 37.2778C109.939 37.2778 109.484 37.1418 109.151 36.8738C108.855 36.6311 108.707 36.3351 108.707 35.9845C108.707 35.6391 108.855 35.3485 109.151 35.1125C109.49 34.8485 109.946 34.7165 110.516 34.7165C111.071 34.7165 111.515 34.8485 111.848 35.1125ZM112.592 33.8591C112.63 33.8978 112.651 33.9458 112.658 34.0058C112.658 34.0591 112.638 34.1045 112.6 34.1431C112.563 34.1911 112.508 34.2151 112.439 34.2151H108.594C108.443 34.2151 108.367 34.1458 108.367 34.0058C108.367 33.8645 108.443 33.7951 108.594 33.7951H112.407C112.482 33.7951 112.543 33.8165 112.592 33.8591ZM111.679 38.2631C112.04 38.1925 112.392 38.1005 112.738 37.9885C112.883 37.9338 112.978 37.9698 113.02 38.0925C113.058 38.2165 113.015 38.3058 112.891 38.3591C112.315 38.5591 111.626 38.6991 110.823 38.7805C110.166 38.8498 109.315 38.8845 108.27 38.8845C108.178 38.8845 108.108 38.8631 108.06 38.8205C108.011 38.7765 107.987 38.7285 107.987 38.6751C107.987 38.6205 108.007 38.5725 108.043 38.5298C108.092 38.4911 108.154 38.4725 108.23 38.4725C108.483 38.4725 108.768 38.4698 109.086 38.4645C109.495 38.4538 109.883 38.4431 110.25 38.4325V37.0511H110.726V38.4005C111.055 38.3725 111.372 38.3271 111.679 38.2631Z" fill="black"/>
<path d="M122.941 34.5548C123.011 34.5548 123.065 34.5734 123.102 34.6108C123.141 34.6548 123.162 34.7028 123.167 34.7561C123.167 34.8108 123.15 34.8588 123.118 34.9014C123.081 34.9454 123.033 34.9668 122.973 34.9668H122.077V36.5414C122.077 36.6174 122.049 36.6761 121.995 36.7201C121.953 36.7574 121.898 36.7761 121.834 36.7761C121.769 36.7761 121.715 36.7574 121.673 36.7201C121.625 36.6721 121.599 36.6094 121.599 36.5348V32.8254C121.599 32.6801 121.678 32.6081 121.834 32.6081C121.995 32.6081 122.077 32.6774 122.077 32.8161V34.5548H122.941ZM117.957 37.5601C117.617 37.7054 117.447 37.9041 117.447 38.1574C117.447 38.4001 117.617 38.5908 117.957 38.7308C118.333 38.8881 118.879 38.9654 119.597 38.9654C120.307 38.9654 120.849 38.8881 121.219 38.7308C121.565 38.5908 121.737 38.4001 121.737 38.1574C121.737 37.9041 121.565 37.7054 121.219 37.5601C120.849 37.4094 120.307 37.3334 119.597 37.3334C118.874 37.3334 118.327 37.4094 117.957 37.5601ZM121.583 37.2774C122.003 37.4974 122.214 37.7908 122.214 38.1574C122.214 38.5134 122.003 38.7988 121.583 39.0134C121.121 39.2561 120.458 39.3774 119.597 39.3774C118.729 39.3774 118.063 39.2561 117.601 39.0134C117.181 38.7988 116.97 38.5134 116.97 38.1574C116.97 37.7908 117.181 37.4974 117.601 37.2774C118.063 37.0348 118.729 36.9134 119.597 36.9134C120.458 36.9134 121.121 37.0348 121.583 37.2774ZM120.801 32.9948C120.801 33.1361 120.733 33.2054 120.598 33.2054H118.998V33.4561C118.998 34.0161 119.198 34.5001 119.597 34.9094C119.909 35.2334 120.334 35.5028 120.873 35.7174C120.942 35.7441 120.989 35.7881 121.01 35.8468C121.026 35.9068 121.021 35.9654 120.994 36.0254C120.962 36.0841 120.913 36.1241 120.849 36.1454C120.778 36.1681 120.706 36.1628 120.63 36.1294C120.189 35.9414 119.795 35.6988 119.45 35.4028C119.079 35.0801 118.847 34.7588 118.755 34.4414C118.633 34.8028 118.406 35.1388 118.077 35.4508C117.738 35.7641 117.326 36.0148 116.842 36.2028C116.771 36.2241 116.707 36.2214 116.647 36.1948C116.594 36.1734 116.551 36.1321 116.518 36.0734C116.491 36.0201 116.486 35.9654 116.502 35.9121C116.523 35.8521 116.569 35.8094 116.639 35.7828C117.215 35.5454 117.657 35.2601 117.965 34.9268C118.335 34.5228 118.522 34.0374 118.522 33.4721V33.2054H116.922C116.771 33.2054 116.698 33.1361 116.703 32.9948C116.703 32.8601 116.779 32.7934 116.93 32.7934H120.598C120.733 32.7934 120.801 32.8601 120.801 32.9948Z" fill="black"/>
<path d="M130.511 36.0575C130.468 36.0949 130.413 36.1136 130.349 36.1136C130.279 36.1136 130.223 36.0949 130.179 36.0575C130.131 36.0149 130.107 35.9575 130.107 35.8882V32.8322C130.107 32.7629 130.131 32.7069 130.179 32.6642C130.223 32.6269 130.279 32.6082 130.349 32.6082C130.413 32.6082 130.468 32.6269 130.511 32.6642C130.564 32.7015 130.591 32.7549 130.591 32.8242V35.8882C130.591 35.9575 130.564 36.0149 130.511 36.0575ZM130.405 36.7202C130.529 36.8282 130.591 36.9749 130.591 37.1642V37.5109C130.591 37.6789 130.532 37.8136 130.413 37.9149C130.295 38.0176 130.139 38.0682 129.945 38.0682H126.116C126.008 38.0682 125.929 38.0896 125.881 38.1336C125.844 38.1762 125.824 38.2416 125.824 38.3269V38.6429C125.824 38.7229 125.849 38.7802 125.897 38.8122C125.94 38.8442 126.011 38.8602 126.108 38.8602H130.551C130.625 38.8602 130.688 38.8789 130.736 38.9176C130.775 38.9602 130.796 39.0082 130.801 39.0629C130.801 39.1162 130.783 39.1642 130.745 39.2082C130.707 39.2509 130.653 39.2722 130.583 39.2722H125.971C125.787 39.2722 125.639 39.2216 125.525 39.1189C125.408 39.0109 125.348 38.8709 125.348 38.6989V38.2309C125.348 38.0536 125.404 37.9122 125.517 37.8109C125.631 37.7082 125.776 37.6562 125.953 37.6562H129.8C129.896 37.6562 129.969 37.6402 130.017 37.6082C130.077 37.5762 130.107 37.5229 130.107 37.4469V37.2282C130.107 37.1309 130.081 37.0642 130.033 37.0269C129.985 36.9896 129.904 36.9696 129.792 36.9696H125.567C125.404 36.9696 125.324 36.9002 125.324 36.7602C125.319 36.6256 125.4 36.5589 125.567 36.5589H129.856C130.093 36.5589 130.276 36.6122 130.405 36.7202ZM126.608 32.7856C126.652 32.7482 126.705 32.7295 126.769 32.7295C126.835 32.7295 126.888 32.7482 126.932 32.7856C126.985 32.8282 127.012 32.8909 127.012 32.9709C127.012 33.1269 126.993 33.2815 126.956 33.4309C126.933 33.5242 126.893 33.6522 126.835 33.8189L126.819 33.8922C127.276 34.1402 127.664 34.4069 127.981 34.6922C128.245 34.9349 128.536 35.2629 128.855 35.6775C128.903 35.7482 128.924 35.8175 128.919 35.8869C128.908 35.9522 128.879 36.0029 128.829 36.0415C128.776 36.0735 128.72 36.0869 128.66 36.0815C128.591 36.0709 128.531 36.0336 128.483 35.9682C128.213 35.5922 127.939 35.2709 127.659 35.0069C127.363 34.7322 127.033 34.4962 126.673 34.2962C126.447 34.6789 126.229 34.9962 126.019 35.2495C125.749 35.5669 125.416 35.8789 125.017 36.1869C124.952 36.2295 124.888 36.2455 124.823 36.2349C124.764 36.2242 124.717 36.1949 124.685 36.1456C124.648 36.0975 124.635 36.0442 124.645 35.9842C124.656 35.9202 124.699 35.8656 124.775 35.8229C125.34 35.4242 125.789 34.9242 126.124 34.3202C126.399 33.8135 126.536 33.3642 126.536 32.9709C126.536 32.8909 126.56 32.8282 126.608 32.7856Z" fill="black"/>
<path d="M99.0598 226.999C98.7998 227.154 98.6892 227.331 98.7265 227.53C98.7638 227.719 98.9305 227.838 99.2292 227.882C99.5598 227.937 100.046 227.902 100.689 227.778C101.328 227.655 101.792 227.509 102.078 227.334C102.344 227.183 102.458 227.011 102.421 226.821C102.382 226.622 102.213 226.499 101.91 226.453C101.578 226.402 101.094 226.437 100.456 226.559C99.8118 226.683 99.3465 226.83 99.0598 226.999ZM102.141 226.185C102.518 226.274 102.734 226.463 102.789 226.75C102.842 227.03 102.71 227.283 102.396 227.511C102.049 227.761 101.501 227.959 100.752 228.102C99.9985 228.247 99.4145 228.267 98.9998 228.162C98.6265 228.067 98.4118 227.881 98.3598 227.601C98.3052 227.317 98.4332 227.062 98.7452 226.835C99.0918 226.585 99.6412 226.387 100.394 226.243C101.148 226.098 101.73 226.079 102.141 226.185ZM102.912 225.023C102.932 225.129 102.882 225.193 102.765 225.215L97.7945 226.169C97.6812 226.191 97.6172 226.149 97.6052 226.041C97.5905 225.938 97.6438 225.875 97.7665 225.851L102.693 224.907C102.816 224.883 102.888 224.922 102.912 225.023ZM98.4105 223.583C98.1505 223.734 98.0398 223.911 98.0785 224.114C98.1172 224.317 98.2852 224.438 98.5825 224.478C98.8932 224.519 99.3758 224.477 100.032 224.351C100.684 224.226 101.146 224.087 101.42 223.934C101.689 223.781 101.804 223.606 101.766 223.406C101.728 223.203 101.554 223.081 101.248 223.038C100.933 222.998 100.452 223.041 99.8052 223.165C99.1532 223.289 98.6878 223.429 98.4105 223.583ZM101.485 222.762C101.861 222.853 102.078 223.043 102.134 223.337C102.189 223.623 102.058 223.879 101.741 224.103C101.402 224.342 100.853 224.537 100.096 224.682C99.3332 224.827 98.7505 224.851 98.3452 224.754C97.9732 224.663 97.7598 224.474 97.7038 224.186C97.6478 223.894 97.7758 223.637 98.0892 223.414C98.4292 223.178 98.9798 222.986 99.7425 222.841C100.5 222.695 101.081 222.669 101.485 222.762Z" fill="black"/>
<path d="M105.276 226.095L105.368 226.578C105.383 226.65 105.41 226.698 105.45 226.721C105.49 226.753 105.555 226.759 105.644 226.742L108.703 226.155C108.796 226.138 108.855 226.111 108.879 226.075C108.907 226.039 108.914 225.982 108.898 225.901L108.806 225.418L105.276 226.095ZM108.675 224.43C108.703 224.394 108.744 224.37 108.799 224.361C108.851 224.35 108.895 224.358 108.935 224.381C108.984 224.406 109.014 224.449 109.026 224.507L109.292 225.905C109.319 226.035 109.298 226.151 109.228 226.253C109.152 226.359 109.036 226.427 108.879 226.458L105.559 227.094C105.416 227.122 105.291 227.101 105.184 227.027C105.088 226.959 105.027 226.857 105.002 226.721L104.734 225.331C104.723 225.273 104.734 225.222 104.764 225.181C104.792 225.145 104.834 225.121 104.89 225.11C104.94 225.101 104.986 225.107 105.026 225.13C105.074 225.157 105.104 225.199 105.115 225.258L105.212 225.766L108.742 225.089L108.644 224.581C108.634 224.522 108.643 224.471 108.675 224.43ZM109.255 223.234C109.295 223.261 109.319 223.295 109.327 223.338C109.335 223.381 109.326 223.422 109.299 223.462C109.271 223.502 109.23 223.527 109.175 223.538L104.211 224.49C104.096 224.513 104.034 224.467 104.022 224.355C104.004 224.249 104.059 224.183 104.182 224.161L109.107 223.215C109.166 223.205 109.215 223.21 109.255 223.234ZM108.228 221.417C108.38 221.502 108.476 221.643 108.514 221.842L108.572 222.147C108.619 222.393 108.635 222.626 108.62 222.849C108.603 223.093 108.55 223.334 108.464 223.569L108.083 223.642C108.186 223.377 108.242 223.125 108.254 222.886C108.262 222.701 108.24 222.474 108.19 222.207L108.139 221.946C108.12 221.845 108.068 221.771 107.984 221.726C107.907 221.685 107.808 221.675 107.69 221.697L104.262 222.355C104.148 222.377 104.08 222.333 104.059 222.223C104.038 222.113 104.084 222.046 104.199 222.025L107.683 221.357C107.899 221.315 108.08 221.335 108.228 221.417Z" fill="black"/>
<path d="M132.431 248.87C132.452 248.985 132.488 249.059 132.539 249.093C132.588 249.123 132.675 249.126 132.798 249.102L136.219 248.446C136.324 248.426 136.387 248.469 136.408 248.574C136.428 248.685 136.387 248.749 136.28 248.77L132.796 249.438C132.606 249.474 132.447 249.457 132.319 249.385C132.182 249.311 132.095 249.181 132.06 248.994L131.898 248.15C131.884 248.082 131.894 248.026 131.924 247.981C131.952 247.939 131.992 247.914 132.048 247.903C132.099 247.894 132.144 247.903 132.184 247.93C132.235 247.961 132.266 248.009 132.279 248.077L132.431 248.87ZM135.931 247.455C135.903 247.495 135.863 247.521 135.812 247.53C135.758 247.541 135.711 247.531 135.67 247.505C135.624 247.474 135.596 247.427 135.584 247.365L134.914 243.873C134.903 243.817 134.914 243.769 134.946 243.729C134.974 243.691 135.015 243.669 135.07 243.658C135.122 243.649 135.166 243.655 135.206 243.678C135.254 243.699 135.283 243.738 135.294 243.793L135.964 247.291C135.976 247.354 135.966 247.409 135.931 247.455ZM131.579 245.217C131.447 245.47 131.414 245.762 131.476 246.091C131.54 246.421 131.679 246.681 131.895 246.867C132.138 247.079 132.435 247.151 132.786 247.085C133.128 247.018 133.374 246.842 133.52 246.555C133.655 246.302 133.691 246.009 133.628 245.678C133.566 245.349 133.423 245.091 133.204 244.905C132.962 244.693 132.668 244.619 132.326 244.685C131.979 244.751 131.73 244.929 131.579 245.217ZM133.434 244.631C133.73 244.867 133.918 245.194 133.996 245.609C134.076 246.023 134.023 246.395 133.836 246.725C133.63 247.094 133.3 247.322 132.848 247.409C132.387 247.497 131.991 247.409 131.659 247.143C131.362 246.901 131.175 246.575 131.096 246.165C131.016 245.75 131.07 245.378 131.256 245.049C131.467 244.679 131.803 244.45 132.263 244.362C132.716 244.275 133.107 244.365 133.434 244.631Z" fill="black"/>
<path d="M140.206 245.97C140.234 245.934 140.274 245.914 140.326 245.908C140.371 245.899 140.415 245.908 140.457 245.935C140.505 245.962 140.534 246.004 140.546 246.063L140.778 247.275L143.051 246.84C143.11 246.828 143.159 246.834 143.199 246.858C143.239 246.884 143.263 246.919 143.271 246.962C143.281 247.003 143.27 247.046 143.243 247.086C143.215 247.126 143.174 247.151 143.119 247.162L138.137 248.118C138.09 248.127 138.051 248.116 138.019 248.087C137.987 248.058 137.97 248.022 137.966 247.979C137.962 247.936 137.971 247.895 137.994 247.855C138.022 247.819 138.066 247.796 138.126 247.784L140.411 247.346L140.173 246.108C140.162 246.052 140.173 246.007 140.206 245.97ZM142.478 245.192C142.503 245.302 142.463 245.367 142.358 245.387L138.226 246.179C138.123 246.199 138.065 246.152 138.047 246.042C138.027 245.936 138.073 245.872 138.182 245.852L138.969 245.7L138.441 244.006C138.421 243.948 138.426 243.896 138.457 243.851C138.481 243.816 138.518 243.791 138.567 243.778C138.618 243.763 138.663 243.766 138.707 243.784C138.755 243.806 138.789 243.844 138.809 243.903L139.343 245.628L141.121 245.288L140.987 243.491C140.981 243.431 140.993 243.383 141.025 243.346C141.058 243.312 141.101 243.294 141.153 243.287C141.203 243.282 141.247 243.292 141.282 243.316C141.329 243.346 141.354 243.394 141.362 243.458L141.495 245.216L142.283 245.064C142.393 245.044 142.458 245.086 142.478 245.192ZM141.922 242.567C141.958 242.592 141.979 242.627 141.989 242.674C142.001 242.715 141.995 242.754 141.971 242.788C141.949 242.832 141.913 242.859 141.862 242.868L137.767 243.654C137.653 243.676 137.586 243.632 137.565 243.522C137.539 243.412 137.586 243.347 137.705 243.324L141.773 242.543C141.827 242.534 141.878 242.542 141.922 242.567Z" fill="black"/>
<path d="M116.145 238.612L116.248 239.125C116.263 239.197 116.291 239.247 116.331 239.273C116.376 239.304 116.444 239.311 116.532 239.293L119.34 238.731C119.428 238.713 119.487 238.684 119.513 238.644C119.541 238.608 119.547 238.551 119.532 238.475L119.428 237.955L116.145 238.612ZM119.315 237.088C119.343 237.052 119.384 237.028 119.439 237.017C119.489 237.007 119.535 237.013 119.575 237.036C119.624 237.061 119.653 237.104 119.665 237.163L119.929 238.481C119.955 238.612 119.932 238.727 119.86 238.825C119.784 238.932 119.669 239.001 119.512 239.032L116.451 239.645C116.303 239.675 116.177 239.653 116.076 239.581C115.979 239.513 115.917 239.412 115.889 239.277L115.628 237.971C115.617 237.912 115.627 237.861 115.659 237.82C115.685 237.784 115.725 237.76 115.776 237.749C115.825 237.74 115.872 237.747 115.912 237.769C115.96 237.795 115.991 237.837 116.003 237.895L116.08 238.288L119.364 237.632L119.284 237.239C119.273 237.18 119.284 237.129 119.315 237.088ZM119.495 236.637C119.467 236.677 119.428 236.703 119.377 236.713C119.323 236.724 119.275 236.716 119.235 236.689C119.189 236.659 119.16 236.615 119.148 236.555L118.932 235.472L117.88 235.681C117.816 235.695 117.763 235.687 117.717 235.661C117.676 235.635 117.651 235.6 117.637 235.559C117.629 235.517 117.636 235.476 117.659 235.436C117.683 235.4 117.724 235.376 117.784 235.364L118.867 235.148L118.647 234.051C118.635 233.992 118.645 233.941 118.676 233.9C118.704 233.86 118.745 233.835 118.8 233.824C118.851 233.813 118.896 233.819 118.936 233.843C118.984 233.868 119.015 233.909 119.027 233.968L119.529 236.479C119.541 236.537 119.529 236.591 119.495 236.637ZM117.859 234.328C117.881 234.437 117.839 234.503 117.733 234.524L116.479 234.776L116.519 234.972C116.607 235.411 116.839 235.76 117.216 236.019C117.511 236.224 117.887 236.367 118.344 236.452C118.403 236.463 118.445 236.489 118.471 236.532C118.493 236.576 118.499 236.624 118.487 236.675C118.471 236.725 118.439 236.764 118.392 236.792C118.34 236.82 118.283 236.827 118.219 236.813C117.843 236.735 117.495 236.607 117.179 236.428C116.836 236.233 116.604 236.017 116.483 235.783C116.443 236.085 116.317 236.385 116.109 236.681C115.892 236.98 115.608 237.241 115.257 237.465C115.205 237.493 115.155 237.501 115.104 237.489C115.057 237.48 115.017 237.455 114.983 237.413C114.953 237.376 114.941 237.335 114.945 237.289C114.953 237.24 114.983 237.199 115.032 237.167C115.448 236.891 115.749 236.597 115.937 236.287C116.165 235.912 116.236 235.503 116.147 235.059L116.105 234.849L114.849 235.101C114.732 235.125 114.664 235.081 114.647 234.971C114.625 234.865 114.673 234.8 114.792 234.777L117.669 234.201C117.775 234.18 117.839 234.221 117.859 234.328Z" fill="black"/>
<path d="M126.737 235.611C126.759 235.721 126.715 235.785 126.605 235.808L124.304 236.268L124.643 237.96C124.655 238.02 124.644 238.072 124.609 238.119C124.583 238.16 124.545 238.184 124.499 238.193C124.448 238.204 124.403 238.197 124.363 238.175C124.317 238.144 124.288 238.1 124.277 238.04L123.937 236.341L121.637 236.801C121.527 236.824 121.464 236.78 121.445 236.669C121.428 236.563 121.479 236.497 121.597 236.473L126.528 235.488C126.643 235.465 126.712 235.505 126.737 235.611ZM123.32 232.959C123.347 232.919 123.385 232.893 123.436 232.883C123.483 232.873 123.527 232.883 123.567 232.909C123.617 232.94 123.649 232.988 123.663 233.056C123.768 233.584 124.077 233.979 124.592 234.241C125.036 234.468 125.535 234.555 126.087 234.501C126.151 234.493 126.205 234.507 126.247 234.543C126.284 234.575 126.301 234.617 126.299 234.671C126.299 234.719 126.281 234.761 126.245 234.799C126.201 234.844 126.143 234.868 126.069 234.875C125.556 234.903 125.067 234.817 124.601 234.62C124.155 234.429 123.832 234.179 123.635 233.872C123.576 234.235 123.376 234.589 123.036 234.933C122.677 235.296 122.244 235.565 121.735 235.741C121.672 235.763 121.617 235.76 121.568 235.735C121.524 235.713 121.493 235.679 121.476 235.635C121.463 235.589 121.467 235.544 121.489 235.501C121.511 235.456 121.555 235.427 121.621 235.408C122.145 235.26 122.572 234.987 122.901 234.592C123.271 234.149 123.401 233.659 123.293 233.123C123.281 233.059 123.289 233.005 123.32 232.959Z" fill="black"/>
<path d="M45.3149 206.422L51.6843 182.966" stroke="black" stroke-width="0.96" stroke-linecap="round" stroke-linejoin="round"/>
<path d="M51.6846 182.967L-144.353 58.6439" stroke="black" stroke-width="1.12" stroke-linecap="round" stroke-linejoin="round"/>
<path d="M51.5347 37.437L51.6093 44.8557L85.1067 60.1437L79.8613 79.6277" stroke="black" stroke-width="0.96" stroke-linecap="round" stroke-linejoin="round"/>
<path d="M85.1067 60.1431L51.6094 44.8564L51.5347 37.4364L-87.9253 38.6364L-112.655 27.3951L-120.599 21.6244" stroke="black" stroke-width="0.96" stroke-linecap="round" stroke-linejoin="round"/>
<path d="M79.7863 79.8518L31.5263 57.9705V57.8198L-92.2711 58.8691L-122.846 44.9305L-131.539 38.6358" stroke="black" stroke-width="1.12" stroke-linecap="round" stroke-linejoin="round"/>
<path d="M298.23 119.344L297.256 117.021" stroke="#545454" stroke-width="0.96" stroke-linecap="round" stroke-linejoin="round"/>
<path d="M99.8321 211.142L82.7468 200.276L71.8801 217.437L89.0415 228.228L99.8321 211.142Z" stroke="black" stroke-width="1.12" stroke-linecap="round" stroke-linejoin="round"/>
<path d="M265.023 113.432L257.079 94.8482L238.495 102.791L246.439 121.376L265.023 113.432Z" stroke="black" stroke-width="1.12" stroke-linecap="round" stroke-linejoin="round"/>
<path d="M18.6781 110.855C16.6407 110.231 15.0087 109.043 14.1101 107.558C13.2101 109.043 11.5807 110.231 9.53005 110.855L8.95405 110.039C11.6394 109.285 13.5821 107.462 13.5821 105.771V104.057H14.6367V105.771C14.6367 107.462 16.5794 109.285 19.2661 110.039L18.6781 110.855ZM8.65405 113.098H19.5661V113.986H8.65405V113.098Z" fill="black"/>
<path d="M29.6439 103.841H30.6626V114.536H29.6439V103.841ZM27.2093 114.368V109.164H25.4346V108.205H27.2093V103.841H28.2399V114.368H27.2093ZM20.9746 113.648V104.164H25.4119V105.039H21.9813V108.433H24.8586V109.308H21.9813V112.761H26.1786V113.648H20.9746Z" fill="black"/>
<path d="M41.0893 103.841H42.12V114.536H41.0893V103.841ZM38.032 107.247C38.032 105.843 37.456 104.931 36.0173 104.931C34.5786 104.931 33.9906 105.843 33.9906 107.247V110.615C33.9906 112.019 34.5786 112.929 36.0173 112.929C37.456 112.929 38.032 112.019 38.032 110.615V107.247ZM39.0626 110.628C39.0626 112.545 38.152 113.817 36.0173 113.817C33.872 113.817 32.96 112.545 32.96 110.628V107.233C32.96 105.316 33.872 104.044 36.0173 104.044C38.152 104.044 39.0626 105.316 39.0626 107.233V110.628Z" fill="black"/>
<path d="M52.8468 103.841H53.8774V114.536H52.8468V103.841ZM50.9761 113.757C49.7054 112.869 48.5654 111.623 47.9428 110.208C47.4268 111.647 46.2761 112.977 44.8854 113.948L44.1174 113.217C45.9401 112.029 47.3668 110.015 47.3668 107.904V105.159H44.5734V104.272H51.1921V105.159H48.4454V107.904C48.4454 109.836 49.9561 111.897 51.6348 112.964L50.9761 113.757Z" fill="black"/>
<path d="M17.887 124.496V121.606H16.2683V124.496H15.2483V118.238H16.2683V120.672H17.887V118.238H18.9057V124.496H17.887ZM13.235 120.802C13.235 119.7 12.707 119.064 11.6643 119.064C10.6443 119.064 10.1177 119.7 10.1177 120.802V121.56C10.1177 122.662 10.6443 123.285 11.6643 123.285C12.707 123.285 13.235 122.662 13.235 121.56V120.802ZM17.875 128.993V125.996H10.0203V125.096H18.9057V128.993H17.875ZM14.2537 121.582C14.2537 123.177 13.271 124.173 11.6643 124.173C10.0817 124.173 9.09766 123.177 9.09766 121.582V120.778C9.09766 119.161 10.0817 118.178 11.6643 118.178C13.271 118.178 14.2537 119.161 14.2537 120.778V121.582Z" fill="black"/>
<path d="M29.332 118.237H30.3626V128.932H29.332V118.237ZM21.2026 128.044V118.561H27.1853V119.436H22.2333V122.829H27.0773V123.704H22.2333V127.159H28.4933V128.044H21.2026Z" fill="black"/>
<path d="M41.0893 118.237H42.12V128.932H41.0893V118.237ZM38.032 123.249H33.9906V127.159H38.032V123.249ZM32.96 128.044V118.561H33.9906V122.361H38.032V118.561H39.0626V128.044H32.96Z" fill="black"/>
<path d="M52.8466 118.237H53.8773V128.932H52.8466V118.237ZM44.7173 128.044V118.561H50.7V119.436H45.748V122.829H50.592V123.704H45.748V127.159H52.0066V128.044H44.7173Z" fill="black"/>
<path d="M174.075 147.081L172.967 147.56L169.735 140.077L170.841 139.6L174.075 147.081Z" fill="black"/>
<path d="M177.85 145.596C176.238 146.294 174.869 145.798 174.317 144.519L174.25 144.366L175.366 143.884L175.442 144.055C175.754 144.782 176.522 145.038 177.438 144.642C178.365 144.242 178.694 143.511 178.38 142.784C178.116 142.174 177.558 141.906 176.674 142.084L175.624 142.3C174.332 142.566 173.326 142.228 172.824 141.064C172.333 139.93 172.774 138.618 174.368 137.93C175.98 137.231 177.229 137.814 177.72 138.948L177.769 139.064L176.653 139.547L176.604 139.431C176.318 138.774 175.652 138.518 174.784 138.892C173.925 139.263 173.656 139.924 173.94 140.582C174.212 141.214 174.724 141.376 175.568 141.203L176.618 140.987C177.984 140.715 178.986 141.12 179.489 142.284C180.041 143.563 179.473 144.895 177.85 145.596Z" fill="black"/>
<path d="M178.213 136.414L182.585 134.525L182.999 135.489L179.737 136.9L180.734 139.209L183.673 137.938L184.09 138.902L181.15 140.173L182.551 143.417L181.445 143.896L178.213 136.414Z" fill="black"/>
<path d="M191.856 124.854L193.633 128.966L193.14 129.18L191.363 125.068L191.856 124.854ZM190.795 128.649C190.817 129.198 190.501 129.788 190.052 130.186L189.855 129.733C190.251 129.293 190.519 128.682 190.024 127.536L189.357 125.994L189.848 125.782L190.513 127.324C191.009 128.47 191.636 128.689 192.225 128.709L192.421 129.162C191.828 129.209 191.183 129.036 190.795 128.649Z" fill="black"/>
<path d="M197.248 125.366L196.754 125.579L196.365 124.678L195.553 125.027L195.37 124.606L196.181 124.255L195.72 123.185L196.213 122.971L197.248 125.366ZM195.03 127.481C195.076 127.586 195.172 127.646 195.306 127.669C195.542 127.695 195.906 127.602 196.333 127.418C196.76 127.234 197.076 127.033 197.218 126.842C197.3 126.726 197.316 126.617 197.27 126.511C197.224 126.402 197.134 126.345 196.994 126.325C196.758 126.299 196.394 126.391 195.969 126.575C195.542 126.759 195.226 126.961 195.082 127.151C195.008 127.265 194.984 127.371 195.03 127.481ZM194.541 127.691C194.422 127.415 194.476 127.155 194.65 126.923C194.882 126.626 195.297 126.366 195.786 126.154C196.277 125.942 196.754 125.815 197.125 125.854C197.409 125.887 197.645 126.022 197.764 126.299C197.884 126.575 197.818 126.834 197.65 127.07C197.424 127.366 197.004 127.623 196.513 127.835C196.024 128.047 195.552 128.175 195.176 128.139C194.885 128.102 194.661 127.967 194.541 127.691ZM193.23 125.197L193.045 124.766L193.861 124.413L193.656 123.937L194.145 123.725L194.35 124.201L195.166 123.849L195.352 124.281L194.537 124.633C194.84 125.259 195.349 125.417 195.892 125.311L196.081 125.753C195.546 125.874 195.016 125.802 194.65 125.541C194.592 125.991 194.297 126.49 193.83 126.783L193.644 126.347C194.1 126.021 194.306 125.507 194.046 124.845L193.23 125.197Z" fill="black"/>
<path d="M192.785 134.262L193.164 135.136L195.784 134.003L195.968 134.428L192.858 135.772L192.296 134.472L192.785 134.262ZM193.76 133.44L191.914 134.239L190.858 131.796L192.868 130.928L193.045 131.339L191.532 131.994L191.789 132.592L193.209 131.979L193.386 132.388L191.966 133L192.232 133.612L193.622 133.011C194.048 132.827 194.305 132.662 194.434 132.45L193.612 130.546L194.106 130.332L194.574 131.416L195.173 131.158L195.36 131.588L194.761 131.848L195.392 133.307L194.897 133.52L194.598 132.83C194.489 133.051 194.222 133.242 193.76 133.44Z" fill="black"/>
<path d="M196.83 133.821L196.646 133.395L198.218 132.715L197.683 131.477L198.172 131.265L198.707 132.504L200.295 131.817L200.479 132.244L196.83 133.821ZM197.543 130.467C197.474 131.067 197.088 131.771 196.266 132.331L196.078 131.896C196.924 131.277 197.236 130.443 196.848 129.545L196.724 129.26L197.214 129.049L197.338 129.335C197.726 130.232 198.562 130.571 199.587 130.38L199.775 130.815C198.807 131.028 198.027 130.828 197.543 130.467Z" fill="black"/>
<path d="M193.11 141.307C193.15 141.398 193.232 141.454 193.347 141.469C193.579 141.493 193.939 141.385 194.438 141.169C194.938 140.953 195.264 140.763 195.4 140.581C195.472 140.486 195.488 140.387 195.45 140.297C195.411 140.206 195.33 140.154 195.208 140.137C194.983 140.111 194.62 140.219 194.122 140.434C193.623 140.65 193.296 140.839 193.155 141.023C193.091 141.122 193.071 141.217 193.11 141.307ZM191.92 140.443L191.738 140.023L195.442 138.422L195.623 138.843L194.01 139.541L194.175 139.922C194.656 139.73 195.064 139.639 195.371 139.675C195.638 139.71 195.828 139.831 195.938 140.085C196.048 140.338 196.006 140.562 195.847 140.781C195.632 141.067 195.207 141.327 194.618 141.582C194.034 141.835 193.543 141.97 193.187 141.93C192.919 141.895 192.726 141.774 192.616 141.521C192.507 141.267 192.551 141.043 192.708 140.825C192.894 140.578 193.23 140.351 193.69 140.131L193.526 139.75L191.92 140.443ZM194.568 137.137L193.227 137.715C193.462 138.099 194.25 138.029 194.906 137.803L195.086 138.222C194.408 138.459 193.674 138.525 193.194 138.313C193.015 138.809 192.462 139.307 191.822 139.631L191.642 139.214C192.259 138.901 192.846 138.365 192.728 137.931L191.404 138.503L191.224 138.087L194.388 136.719L194.568 137.137Z" fill="black"/>
<path d="M199.695 138.354L197.609 139.255L197.775 139.635L199.86 138.734L199.695 138.354ZM199.515 137.937L199.337 137.523L199.829 137.31L200.532 138.934L197.457 140.262L196.757 138.638L197.251 138.425L197.429 138.839L199.515 137.937ZM198.256 137.589L196.36 138.409L195.805 137.125L197.329 136.466L197.136 136.017L195.612 136.675L195.436 136.267L197.449 135.398L197.996 136.663L196.472 137.321L196.676 137.791L198.203 137.131C198.589 136.965 198.816 136.795 198.933 136.59L198.243 134.994L198.737 134.781L199.74 137.102L199.247 137.315L199.099 136.977C198.993 137.193 198.721 137.387 198.256 137.589Z" fill="black"/>
<path d="M201.75 137.579L200.939 135.706L201.431 135.495L202.238 137.367L203.155 136.971C203.522 136.814 203.776 136.617 203.883 136.405L202.483 133.162L202.975 132.949L203.702 134.626L204.344 134.349L204.531 134.781L203.887 135.058L204.752 137.061L204.259 137.274L204.06 136.813C203.959 137.039 203.656 137.262 203.243 137.439L201.344 138.261L201.16 137.834L201.75 137.579ZM202.128 135.359L201.604 134.145L200.023 134.829L199.834 134.393L201.906 133.498L202.587 135.075C202.748 135.447 202.906 135.911 202.963 136.215L202.478 136.426C202.416 136.123 202.279 135.703 202.128 135.359Z" fill="black"/>
<path d="M210.673 123.737L210.107 123.981L209.461 122.484L208.534 122.884L208.325 122.404L209.251 122.002L208.682 120.682L209.246 120.438L210.673 123.737ZM211.369 125.12L207.774 126.673L207.107 125.13L207.671 124.886L208.129 125.944L211.158 124.634L211.369 125.12ZM205.865 123.036L205.654 122.549L206.586 122.146L206.323 121.541L206.885 121.3L207.146 121.905L208.078 121.502L208.287 121.989L207.355 122.393L207.387 122.465C207.735 123.268 208.33 123.452 208.971 123.329L209.186 123.825C208.579 123.972 207.973 123.889 207.555 123.59C207.486 124.1 207.147 124.669 206.618 125.009L206.405 124.513C206.943 124.125 207.182 123.524 206.829 122.706L206.797 122.634L205.865 123.036Z" fill="black"/>
<path d="M216.311 122.959L215.763 123.197L214.753 120.861L214.224 121.089L215.209 123.369L214.671 123.601L212.679 118.99L213.216 118.758L214.012 120.598L214.54 120.369L213.732 118.499L214.281 118.262L216.311 122.959ZM212.267 120.97L211.848 120.001L210.677 120.506L210.463 120.01L212.188 119.265L212.808 120.699C213.46 122.206 213.395 123.463 212.288 124.373L212.053 123.829C212.703 123.229 212.823 122.254 212.267 120.97Z" fill="black"/>
<path d="M219.18 116.145L221.209 120.842L220.645 121.086L220.415 120.551C220.296 120.83 219.903 121.087 219.385 121.311L217.2 122.255L216.991 121.774L219.321 120.767C219.745 120.583 220.076 120.367 220.215 120.091L218.616 116.389L219.18 116.145ZM216.656 119.006C216.808 119.358 217.003 119.611 217.249 119.701C217.419 119.763 217.604 119.751 217.796 119.667C217.993 119.583 218.133 119.454 218.192 119.293C218.297 119.051 218.252 118.733 218.1 118.381C217.951 118.034 217.744 117.773 217.497 117.683C217.339 117.615 217.151 117.637 216.953 117.721C216.763 117.805 216.624 117.925 216.553 118.091C216.451 118.333 216.505 118.658 216.656 119.006ZM216.089 119.249C215.867 118.733 215.839 118.258 216.021 117.879C216.155 117.605 216.411 117.373 216.741 117.229C217.073 117.086 217.419 117.059 217.709 117.15C218.119 117.274 218.436 117.623 218.659 118.139C218.883 118.658 218.919 119.122 218.731 119.511C218.595 119.783 218.34 120.017 218.008 120.159C217.677 120.303 217.332 120.33 217.041 120.241C216.639 120.107 216.315 119.767 216.089 119.249Z" fill="black"/>
<path d="M213.405 131.683L212.972 130.678L209.889 132.01L209.681 131.527L213.328 129.952L213.97 131.439L213.405 131.683ZM209.409 129.274L211.898 128.198L211.573 127.442L209.082 128.518L209.409 129.274ZM211.93 126.72L212.666 128.42L211.128 129.084L211.372 129.648L213.214 128.852L213.422 129.332L209.192 131.162L208.984 130.68L210.812 129.891L210.568 129.327L209.05 129.982L208.317 128.282L211.93 126.72Z" fill="black"/>
<path d="M214.924 130.688L214.715 130.2L216.511 129.424L215.9 128.011L216.46 127.768L217.071 129.182L218.883 128.399L219.095 128.886L214.924 130.688ZM215.74 126.856C215.662 127.542 215.222 128.346 214.282 128.987L214.067 128.49C215.034 127.784 215.39 126.83 214.946 125.804L214.807 125.478L215.366 125.236L215.506 125.562C215.95 126.588 216.903 126.976 218.075 126.758L218.291 127.255C217.184 127.498 216.294 127.27 215.74 126.856Z" fill="black"/>
<path d="M222.118 127.45L220.01 128.361L218.964 125.943L220.6 125.235L220.004 123.854L218.367 124.561L218.151 124.062L220.342 123.115L221.368 125.487L219.736 126.193L220.356 127.627L222.014 126.911C222.443 126.725 222.746 126.485 222.866 126.222L221.302 122.603L221.866 122.359L223.896 127.057L223.331 127.301L223.067 126.689C222.96 126.957 222.604 127.239 222.118 127.45Z" fill="black"/>
<path d="M83.5144 211.733H81.5864V207.582H82.1224V211.261H83.6144C84.0371 211.261 84.3758 211.166 84.5691 210.993V207.528H85.1104V209.368H85.8158V209.838H85.1104V212.037H84.5691V211.429C84.3811 211.624 83.9824 211.733 83.5144 211.733Z" fill="black"/>
<path d="M86.9495 208.96C86.9495 209.298 87.0189 209.572 87.1882 209.73C87.3029 209.84 87.4562 209.894 87.6402 209.894C87.8295 209.894 87.9882 209.84 88.0922 209.73C88.2615 209.572 88.3375 209.298 88.3375 208.96C88.3375 208.626 88.2615 208.344 88.0922 208.185C87.9882 208.074 87.8295 208.025 87.6402 208.025C87.4562 208.025 87.3029 208.074 87.1882 208.185C87.0189 208.344 86.9495 208.626 86.9495 208.96ZM86.4082 208.96C86.4082 208.462 86.5522 208.07 86.8309 207.826C87.0335 207.653 87.3229 207.553 87.6402 207.553C87.9589 207.553 88.2469 207.653 88.4509 207.826C88.7389 208.07 88.8735 208.462 88.8735 208.96C88.8735 209.457 88.7389 209.845 88.4509 210.093C88.2469 210.266 87.9589 210.366 87.6402 210.366C87.3229 210.366 87.0335 210.266 86.8309 210.093C86.5522 209.845 86.4082 209.457 86.4082 208.96ZM89.9922 207.528V212.037H89.4509V211.525C89.2562 211.709 88.8495 211.778 88.3522 211.778H86.2549V211.316H88.4909C88.8989 211.316 89.2402 211.256 89.4509 211.082V207.528H89.9922Z" fill="black"/>
<path d="M77.3417 215.093C77.3417 215.168 77.3857 215.232 77.4604 215.282C77.5751 215.352 77.7737 215.386 78.0124 215.386C78.2471 215.386 78.4444 215.356 78.5591 215.282C78.6337 215.232 78.6777 215.168 78.6777 215.093C78.6777 215.024 78.6377 214.969 78.5684 214.92C78.4551 214.845 78.2564 214.8 78.0124 214.8C77.7697 214.8 77.5697 214.845 77.4551 214.92C77.3817 214.969 77.3417 215.024 77.3417 215.093ZM80.4231 218.045H77.0124V216.902H77.5497V217.598H80.4231V218.045ZM77.7444 213.364H78.2911V213.786H79.3057V214.208H76.7257V213.786H77.7444V213.364ZM76.8297 215.093C76.8297 214.889 76.9391 214.72 77.1137 214.61C77.3271 214.472 77.6497 214.406 78.0124 214.406C78.3604 214.406 78.6631 214.466 78.8724 214.592C79.0711 214.7 79.1844 214.869 79.1844 215.093C79.1844 215.317 79.0711 215.49 78.8777 215.6C78.7244 215.694 78.5191 215.749 78.2857 215.769V216.137H78.9417C79.3444 216.137 79.6271 216.068 79.7977 215.953V213.493H80.3391V214.949H81.0004V215.416H80.3391V217.002H79.7977V216.365C79.6124 216.51 79.3004 216.58 78.7977 216.58H76.6604V216.137H77.7444V215.769C77.5004 215.749 77.2924 215.689 77.1337 215.59C76.9431 215.47 76.8297 215.312 76.8297 215.093Z" fill="black"/>
<path d="M83.5651 216.649C83.1571 216.649 82.7597 216.698 82.5304 216.837C82.4117 216.917 82.3371 217.017 82.3371 217.146C82.3371 217.276 82.4117 217.374 82.5304 217.449C82.7597 217.588 83.1571 217.642 83.5651 217.642C83.9771 217.642 84.3744 217.588 84.5984 217.449C84.7171 217.374 84.7917 217.276 84.7917 217.146C84.7917 217.017 84.7171 216.917 84.5984 216.837C84.3744 216.698 83.9771 216.649 83.5651 216.649ZM83.5651 218.105C83.0477 218.105 82.5357 218.036 82.1917 217.822C81.9544 217.673 81.8011 217.449 81.8011 217.146C81.8011 216.842 81.9544 216.618 82.1917 216.47C82.5357 216.261 83.0477 216.186 83.5651 216.186C84.0811 216.186 84.5984 216.261 84.9371 216.47C85.1757 216.618 85.3344 216.842 85.3344 217.146C85.3344 217.449 85.1757 217.673 84.9371 217.822C84.5984 218.036 84.0811 218.105 83.5651 218.105ZM83.1864 214.014H81.5864V213.548H83.7237V213.87C83.7237 213.92 83.7237 213.965 83.7184 214.01H84.6877V213.493H85.2291V216.106H84.6877V215.441H83.5997V214.973H84.6877V214.472H83.6637C83.4504 215.45 82.6797 215.904 81.4771 216.022V215.55C82.5651 215.436 83.1864 214.938 83.1864 214.014Z" fill="black"/>
<path d="M90.0615 218.001H89.5348V213.493H90.0615V218.001ZM89.1215 217.947H88.5948V215.795H88.0681V215.317H88.5948V213.523H89.1215V217.947ZM87.5308 217.697H86.3628V215.376H87.3828V214.049H86.3628V213.572H87.9095V215.848H86.8908V217.225H87.5561C87.8148 217.225 88.0681 217.211 88.2561 217.141V217.588C88.0681 217.668 87.8054 217.697 87.5308 217.697Z" fill="black"/>
<path d="M94.3161 213.492H94.8388V215.753H94.3161V213.492ZM92.3522 214.611H91.6028V215.217H92.3522V214.611ZM91.9695 217.245V217.608H94.8935V218.045H91.4281V216.812H94.3015V216.44H91.4281V216.003H94.8388V217.245H91.9695ZM91.6028 214.169H92.3522V213.547H92.8601V214.352H93.3668V213.523H93.8735V215.729H93.3668V214.809H92.8601V215.66H91.1055V213.547H91.6028V214.169Z" fill="black"/>
<path d="M153.371 70.3936H152.563V63.6669H153.371V70.3936ZM150.433 65.2389V64.4976H148.001V63.7856H151.228V65.1429C151.228 67.7016 150.279 69.4082 147.956 69.9936V69.2375C149.188 68.8815 149.921 68.0735 150.24 66.8869C149.944 66.9749 149.492 67.0269 148.943 67.0269H147.956V66.3229H148.972C149.588 66.3229 150.085 66.2709 150.381 66.1669C150.419 65.8776 150.433 65.5669 150.433 65.2389Z" fill="black"/>
<path d="M159.848 69.2738C159.848 69.1405 159.774 69.0151 159.626 68.9325C159.336 68.7551 158.758 68.6738 158.016 68.6738C157.282 68.6738 156.696 68.7551 156.399 68.9325C156.266 69.0151 156.184 69.1405 156.184 69.2738C156.184 69.4071 156.266 69.5258 156.399 69.6071C156.696 69.7858 157.282 69.8671 158.016 69.8671C158.758 69.8671 159.336 69.7858 159.626 69.6071C159.774 69.5258 159.848 69.4071 159.848 69.2738ZM155.384 69.2738C155.384 68.9031 155.539 68.6285 155.836 68.4285C156.311 68.1018 157.096 67.9845 158.016 67.9845C158.935 67.9845 159.722 68.1018 160.19 68.4285C160.486 68.6285 160.656 68.9031 160.656 69.2738C160.656 69.6378 160.486 69.9125 160.19 70.1125C159.722 70.4311 158.935 70.5498 158.016 70.5498C157.096 70.5498 156.311 70.4311 155.836 70.1125C155.539 69.9125 155.384 69.6378 155.384 69.2738ZM158.164 67.4125H155.064V65.2325H157.556V64.4245H155.064V63.7485H158.356V65.9071H155.866V66.7458H158.364C158.995 66.7458 159.41 66.6565 159.692 66.4405V63.6671H160.5V67.8058H159.692V67.0711C159.418 67.3085 158.928 67.4125 158.164 67.4125Z" fill="black"/>
<path d="M149.649 72.5616V74.3936H150.628V75.1056H149.649V77.271H148.84V72.5616H149.649ZM146.809 73.3403H145.096V75.6016H146.809V73.3403ZM145.489 77.0336V78.6216H149.775V79.3176H144.688V77.0336H145.489ZM147.587 76.2843H144.301V72.643H147.587V76.2843Z" fill="black"/>
<path d="M152.529 78.2128V78.7021H157.053V79.3555H151.729V77.5675H156.097V77.0715H151.729V76.4181H156.905V78.2128H152.529ZM156.905 73.3115H152.529V74.0155H156.942V74.6835H151.729V72.6435H156.905V73.3115ZM151.282 75.2021H157.342V75.8701H151.282V75.2021Z" fill="black"/>
<path d="M164.043 79.2881H163.235V72.5614H164.043V79.2881ZM161.105 74.1334V73.3921H158.673V72.6801H161.9V74.0374C161.9 76.5961 160.951 78.3028 158.629 78.8948V78.1308C160.335 77.6348 161.105 76.2334 161.105 74.1334Z" fill="black"/>
<path d="M175.643 66.8762H179.257V64.5588H175.643V66.8762ZM180.057 63.8562V67.5802H177.864V69.4068H180.401V70.0962H174.499V69.4068H177.072V67.5802H174.844V63.8562H180.057Z" fill="black"/>
<path d="M187.068 70.3894H186.269V63.7387H187.068V70.3894ZM184.164 65.2934V64.5601H181.759V63.8561H184.948V65.1974C184.948 67.7267 184.011 69.4134 181.715 70.0001V69.2454C183.402 68.7534 184.164 67.3681 184.164 65.2934Z" fill="black"/>
<path d="M174.656 73.3218H172.075V74.3711H174.619V75.0378H172.075V76.0791H174.774V76.7458H173.395V78.1178H174.304C174.904 78.1178 175.412 78.0298 175.719 77.7724V72.5298H176.519V79.1804H175.719V78.4258C175.434 78.6964 174.832 78.7991 174.099 78.7991H171.004V78.1178H172.603V76.7458H171.283V72.6471H174.656V73.3218Z" fill="black"/>
<path d="M183.552 79.1814H182.753V72.5307H183.552V79.1814ZM178.163 74.0627V73.3734H179.555V72.3387H180.361V73.3734H181.769V74.0627H180.361V75.1401C180.361 76.9147 181.059 77.6334 181.828 78.0001V78.7334C180.999 78.4481 180.281 77.8014 179.959 77.0974C179.636 77.8014 178.909 78.4547 178.088 78.7334V78.0001C178.844 77.6401 179.555 76.9147 179.555 75.1401V74.0627H178.163Z" fill="black"/>
<path d="M190.688 79.1814H189.911V72.5307H190.688V79.1814ZM187.543 75.8147V75.1107H188.525V72.5734H189.301V79.1001H188.525V75.8147H187.543ZM185.232 73.3507V72.6467H187.916V73.3507H186.971V75.6161C186.971 77.1281 187.36 77.6774 187.997 78.0001V78.7334C187.308 78.4907 186.831 78.0294 186.573 77.5014C186.333 78.0294 185.856 78.4907 185.167 78.7254V78.0001C185.789 77.6774 186.193 77.1347 186.193 75.6161V73.3507H185.232Z" fill="black"/>
<path d="M233.172 64.0834H234.168V64.8287H233.172V65.7087H234.168V66.462H233.172V67.3581H232.316V63.298H233.172V64.0834ZM228.68 69.0687C228.68 69.2647 228.782 69.4301 228.97 69.5567C229.285 69.7674 229.858 69.8541 230.589 69.8541C231.31 69.8541 231.884 69.7674 232.214 69.5567C232.394 69.4301 232.488 69.2647 232.488 69.0687C232.488 68.8727 232.394 68.7087 232.214 68.5821C231.884 68.3781 231.31 68.2834 230.589 68.2834C229.858 68.2834 229.285 68.3781 228.97 68.5821C228.782 68.7087 228.68 68.8727 228.68 69.0687ZM228.265 65.1354C228.265 65.5287 228.382 65.8341 228.586 66.0301C228.768 66.1874 229.002 66.2821 229.293 66.2821C229.59 66.2821 229.834 66.1874 230 66.0301C230.212 65.8341 230.329 65.5287 230.329 65.1354C230.329 64.7434 230.212 64.4367 230 64.2407C229.834 64.0754 229.59 63.9887 229.293 63.9887C229.002 63.9887 228.768 64.0754 228.586 64.2407C228.382 64.4367 228.265 64.7434 228.265 65.1354ZM227.824 69.0687C227.824 68.6381 228.029 68.3074 228.35 68.0647C228.861 67.7034 229.661 67.554 230.589 67.554C231.506 67.554 232.316 67.7034 232.818 68.0647C233.14 68.3074 233.344 68.6381 233.344 69.0687C233.344 69.5087 233.14 69.8381 232.818 70.0821C232.316 70.4434 231.506 70.5847 230.589 70.5847C229.661 70.5847 228.861 70.4434 228.35 70.0821C228.029 69.8381 227.824 69.5087 227.824 69.0687ZM227.432 65.1354C227.432 64.4767 227.644 63.9741 228.029 63.6514C228.342 63.3927 228.782 63.2514 229.293 63.2514C229.82 63.2514 230.242 63.3927 230.565 63.6514C230.949 63.9741 231.161 64.4767 231.161 65.1354C231.161 65.7874 230.949 66.2901 230.565 66.6114C230.242 66.8794 229.82 67.0127 229.293 67.0127C228.782 67.0127 228.342 66.8794 228.029 66.6114C227.644 66.2901 227.432 65.7874 227.432 65.1354Z" fill="black"/>
<path d="M240.712 63.2985V64.6331H241.748V65.3865H240.712V66.7611H239.856V63.2985H240.712ZM237.704 64.0985H235.891V65.7945H237.704V64.0985ZM236.308 69.1785V69.7998H240.798V70.4905H235.459V68.5038H239.856V67.8678H235.459V67.1851H240.712V69.1785H236.308ZM238.53 66.5011H235.051V63.3838H238.53V66.5011Z" fill="black"/>
<path d="M228.74 75.6928C228.136 75.8342 227.335 75.8808 226.487 75.8808H224.014V75.1355H226.503C227.311 75.1355 228.136 75.1035 228.74 74.9862V73.6035H224.014V72.8502H229.596V75.4888C229.596 76.3595 229.526 77.2075 229.408 77.7888H228.568C228.678 77.2155 228.74 76.3915 228.74 75.6928ZM223.644 79.5315V78.7942H225.764V76.6422H226.622V78.7942H229.964V79.5315H223.644Z" fill="black"/>
<path d="M234.342 75.1742C233.863 76.0062 232.858 76.7915 231.303 77.0902V76.3288C232.928 75.9595 233.91 74.9462 233.91 73.3915V72.8115H234.759V73.3915C234.759 74.9462 235.763 75.9595 237.38 76.3288V77.0902C235.834 76.7915 234.82 76.0062 234.342 75.1742ZM231.186 78.7942H237.506V79.5315H231.186V78.7942Z" fill="black"/>
<path d="M244.655 72.7249V79.8462H243.799V76.3355H242.457V75.5902H243.799V72.7249H244.655ZM241.657 79.3675H238.97V72.8502H242.386V73.6035H239.819V75.7009H242.089V76.4462H239.819V78.6209H241.695C242.23 78.6209 242.717 78.5822 243.077 78.4569V79.1635C242.723 79.3035 242.206 79.3675 241.657 79.3675Z" fill="black"/>
<path d="M202.06 66.7642H205.807V64.3629H202.06V66.7642ZM206.636 63.6322V67.4936H204.363V69.3869H206.993V70.1016H200.875V69.3869H203.543V67.4936H201.232V63.6322H206.636Z" fill="black"/>
<path d="M213.903 70.4041H213.075V63.5107H213.903V70.4041ZM210.893 65.1227V64.3627H208.4V63.6321H211.707V65.0241C211.707 67.6454 210.733 69.3934 208.355 70.0014V69.2187C210.103 68.7094 210.893 67.2734 210.893 65.1227Z" fill="black"/>
<path d="M201.037 73.4445H198.361V74.5312H201V75.2232H198.361V76.3032H201.16V76.9938H199.731V78.4152H200.673C201.296 78.4152 201.82 78.3245 202.14 78.0578V72.6232H202.968V79.5178H202.14V78.7352C201.843 79.0165 201.22 79.1218 200.46 79.1218H197.253V78.4152H198.909V76.9938H197.541V72.7458H201.037V73.4445Z" fill="black"/>
<path d="M210.259 79.5173H209.431V72.624H210.259V79.5173ZM204.672 74.212V73.4973H206.116V72.4253H206.952V73.4973H208.411V74.212H206.952V75.3293C206.952 77.168 207.673 77.9133 208.472 78.2933V79.0533C207.612 78.7573 206.868 78.088 206.533 77.3587C206.2 78.088 205.447 78.764 204.596 79.0533V78.2933C205.379 77.9213 206.116 77.168 206.116 75.3293V74.212H204.672Z" fill="black"/>
<path d="M217.655 79.5173H216.849V72.624H217.655V79.5173ZM214.393 76.028V75.2987H215.413V72.6693H216.219V79.4333H215.413V76.028H214.393ZM212 73.4747V72.7453H214.781V73.4747H213.801V75.824C213.801 77.3893 214.204 77.9587 214.865 78.2933V79.0533C214.151 78.8027 213.656 78.324 213.391 77.776C213.14 78.324 212.647 78.8027 211.932 79.0453V78.2933C212.577 77.9587 212.996 77.3973 212.996 75.824V73.4747H212Z" fill="black"/>
</g>
<path d="M209.268 202.81L208.677 202.347L209.268 202.81ZM203.971 202.81L203.381 203.273L203.971 202.81ZM206.619 205.005V204.255V205.005ZM213.488 193.199C213.488 194.357 212.883 195.913 211.925 197.607C210.983 199.272 209.766 200.959 208.677 202.347L209.858 203.273C210.969 201.856 212.237 200.103 213.231 198.346C214.208 196.618 214.988 194.771 214.988 193.199H213.488ZM204.561 202.347C203.472 200.959 202.255 199.272 201.313 197.607C200.355 195.913 199.75 194.357 199.75 193.199H198.25C198.25 194.771 199.03 196.618 200.008 198.346C201.001 200.103 202.269 201.856 203.381 203.273L204.561 202.347ZM199.75 193.199C199.75 189.032 202.876 185.75 206.619 185.75V184.25C201.946 184.25 198.25 188.309 198.25 193.199H199.75ZM206.619 185.75C210.362 185.75 213.488 189.032 213.488 193.199H214.988C214.988 188.309 211.292 184.25 206.619 184.25V185.75ZM208.677 202.347C208.087 203.1 207.701 203.588 207.356 203.902C207.044 204.186 206.84 204.255 206.619 204.255V205.755C207.325 205.755 207.872 205.46 208.365 205.012C208.826 204.593 209.3 203.984 209.858 203.273L208.677 202.347ZM203.381 203.273C203.938 203.984 204.413 204.593 204.873 205.012C205.366 205.46 205.913 205.755 206.619 205.755V204.255C206.398 204.255 206.195 204.186 205.882 203.902C205.537 203.588 205.151 203.1 204.561 202.347L203.381 203.273ZM203.012 193.572C203.012 195.564 204.627 197.179 206.619 197.179V195.679C205.455 195.679 204.512 194.735 204.512 193.572H203.012ZM206.619 197.179C208.611 197.179 210.226 195.564 210.226 193.572H208.726C208.726 194.735 207.783 195.679 206.619 195.679V197.179ZM210.226 193.572C210.226 191.579 208.611 189.964 206.619 189.964V191.464C207.783 191.464 208.726 192.408 208.726 193.572H210.226ZM206.619 189.964C204.627 189.964 203.012 191.579 203.012 193.572H204.512C204.512 192.408 205.455 191.464 206.619 191.464V189.964Z" fill="#ED4600"/>
<rect x="135" y="55" width="117" height="34" stroke="#ED4600" stroke-width="2"/>
<rect x="154.698" y="132.934" width="75.1813" height="32.2208" transform="rotate(-23.1626 154.698 132.934)" stroke="#ED4600" stroke-width="2"/>
<path d="M272.52 253.1H273.516V261.368H272.52V253.1ZM270.684 255.968H272.94V256.784H270.684V255.968ZM270.684 258.26H272.94V259.064H270.684V258.26ZM264.612 254.408H270.684V255.212H264.612V254.408ZM267.684 255.812C269.124 255.812 270.132 256.64 270.132 257.888C270.132 259.124 269.124 259.964 267.684 259.964C266.232 259.964 265.224 259.124 265.224 257.888C265.224 256.64 266.232 255.812 267.684 255.812ZM267.684 256.592C266.784 256.592 266.172 257.12 266.172 257.888C266.172 258.656 266.784 259.172 267.684 259.172C268.584 259.172 269.196 258.656 269.196 257.888C269.196 257.12 268.584 256.592 267.684 256.592ZM267.192 253.076H268.188V254.924H267.192V253.076ZM266.544 262.88H273.78V263.696H266.544V262.88ZM266.544 260.66H267.54V263.276H266.544V260.66ZM279.179 253.592C280.799 253.592 281.951 254.492 281.951 255.824C281.951 257.144 280.799 258.068 279.179 258.068C277.571 258.068 276.419 257.144 276.419 255.824C276.419 254.492 277.571 253.592 279.179 253.592ZM279.179 254.42C278.123 254.42 277.367 254.996 277.367 255.824C277.367 256.664 278.123 257.228 279.179 257.228C280.235 257.228 280.991 256.664 280.991 255.824C280.991 254.996 280.235 254.42 279.179 254.42ZM278.735 259.268H279.731V263.6H278.735V259.268ZM283.535 253.088H284.519V263.948H283.535V253.088ZM275.747 259.808L275.615 258.968C277.631 258.968 280.379 258.944 282.767 258.584L282.839 259.328C280.391 259.772 277.727 259.808 275.747 259.808ZM294.562 253.088H295.558V263.936H294.562V253.088ZM289.678 255.668H290.482V256.592C290.482 258.908 289.174 261.008 287.434 261.848L286.87 261.08C288.478 260.336 289.678 258.488 289.678 256.592V255.668ZM289.87 255.668H290.662V256.592C290.662 258.404 291.898 260.168 293.518 260.876L292.954 261.656C291.202 260.864 289.87 258.836 289.87 256.592V255.668ZM287.17 254.972H293.146V255.776H287.17V254.972ZM289.678 253.28H290.674V255.416H289.678V253.28Z" fill="#ED4600"/>
<path d="M217.361 201.654L218.734 207.262L222.904 203.269L217.361 201.654ZM220.112 205.25L262 249L262.722 248.309L220.834 204.559L220.112 205.25Z" fill="#ED4600"/>
<path d="M265.384 17.8H267.796V18.628H265.384V17.8ZM267.52 15.088H268.516V21.436H267.52V15.088ZM261.484 21.964H268.516V25.792H261.484V21.964ZM267.544 22.756H262.456V24.988H267.544V22.756ZM262.36 16.12H263.176V16.996C263.176 18.976 261.952 20.668 260.14 21.34L259.624 20.548C261.244 19.972 262.36 18.532 262.36 16.996V16.12ZM262.552 16.12H263.356V16.984C263.356 18.388 264.412 19.744 265.984 20.296L265.48 21.088C263.716 20.452 262.552 18.808 262.552 16.984V16.12ZM259.936 15.784H265.732V16.588H259.936V15.784ZM275.019 15.472H275.895V16.072C275.895 18.148 273.783 19.636 271.527 20.02L271.131 19.216C273.111 18.916 275.019 17.62 275.019 16.072V15.472ZM275.199 15.472H276.063V16.072C276.063 17.584 277.995 18.916 279.951 19.216L279.555 20.02C277.323 19.636 275.199 18.124 275.199 16.072V15.472ZM275.019 21.808H276.003V25.936H275.019V21.808ZM270.639 21.196H280.443V22.024H270.639V21.196ZM285.25 16.072H291.598V16.816H285.25V16.072ZM288.43 17.236C289.99 17.236 291.01 17.86 291.01 18.844C291.01 19.84 289.99 20.464 288.43 20.464C286.882 20.464 285.862 19.84 285.862 18.844C285.862 17.86 286.882 17.236 288.43 17.236ZM288.43 17.932C287.458 17.932 286.798 18.28 286.798 18.844C286.798 19.396 287.458 19.768 288.43 19.768C289.426 19.768 290.062 19.396 290.062 18.844C290.062 18.28 289.426 17.932 288.43 17.932ZM287.926 15.016H288.934V16.468H287.926V15.016ZM287.926 20.068H288.934V21.544H287.926V20.068ZM292.726 15.1H293.722V22.36H292.726V15.1ZM286.45 22.864H293.722V25.936H292.726V23.656H286.45V22.864ZM285.034 22.024L284.902 21.22C286.894 21.22 289.582 21.208 291.862 20.896L291.934 21.592C289.57 21.988 286.99 22.024 285.034 22.024ZM295.893 20.368H305.697V21.172H295.893V20.368ZM296.973 22.468H304.497V25.996H303.501V23.284H296.973V22.468ZM297.129 18.364H304.569V19.168H297.129V18.364ZM297.129 15.496H304.473V16.312H298.125V18.772H297.129V15.496ZM310.096 21.508H319.936V22.324H310.096V21.508ZM314.488 21.892H315.472V25.936H314.488V21.892ZM311.332 15.52H312.328V17.008H317.692V15.52H318.676V20.212H311.332V15.52ZM312.328 17.812V19.408H317.692V17.812H312.328ZM325.491 15.832H326.355V16.66C326.355 19.024 324.159 20.86 321.987 21.352L321.543 20.524C323.451 20.164 325.491 18.508 325.491 16.66V15.832ZM325.671 15.832H326.535V16.66C326.535 18.52 328.587 20.164 330.483 20.524L330.039 21.352C327.879 20.86 325.671 19.036 325.671 16.66V15.832ZM321.147 23.656H330.975V24.472H321.147V23.656Z" fill="#ED4600"/>
<path d="M240.31 47.3923L246.023 46.5599L242.445 42.0284L240.31 47.3923ZM259 31.9999L243.532 44.2115L244.152 44.9964L259.62 32.7848L259 31.9999Z" fill="#ED4600"/>
<path d="M240.445 113.228L245.295 110.096L240.158 107.462L240.445 113.228ZM280 35.0001L242.053 108.996L242.943 109.452L280.89 35.4564L280 35.0001Z" fill="#ED4600"/>
</g>
<defs>
<clipPath id="clip0_326_2">
<rect width="346" height="288" fill="white"/>
</clipPath>
</defs>
</svg>
