<svg width="667" height="738" viewBox="0 0 667 738" fill="none" xmlns="http://www.w3.org/2000/svg">
<path d="M471.556 483.364L474.011 477.08C474.657 475.73 474.686 474.138 474.078 472.654C473.444 471.011 472.093 469.682 470.394 469.018L464.213 466.603C458.857 464.511 455.891 461.541 455.834 458.194C455.756 454.899 458.627 451.806 463.855 449.515L501.279 433.119L499.93 430.039C499.287 428.571 499.971 426.82 501.439 426.177C502.908 425.533 504.659 426.218 505.302 427.686L534.328 493.939C534.971 495.407 534.287 497.158 532.819 497.802C531.35 498.445 529.599 497.761 528.956 496.292L521.3 478.816L483.875 495.212C478.719 497.471 474.554 497.417 472.133 495.106C469.712 492.794 469.519 488.653 471.556 483.364Z" fill="#E22525"/>
</svg>
