<svg width="31" height="30" viewBox="0 0 31 30" fill="none" xmlns="http://www.w3.org/2000/svg">
<path d="M5.09161 25.841L6.12855 24.1308L5.09161 25.841ZM3.43237 24.4563L4.94082 23.143L3.43237 24.4563ZM27.5676 24.4563L26.0592 23.143L27.5676 24.4563ZM25.9084 25.841L24.8714 24.1308L25.9084 25.841ZM25.9084 3.19538L24.8714 4.90557L25.9084 3.19538ZM27.5676 4.58009L26.0592 5.89332L27.5676 4.58009ZM5.09161 3.19538L6.12855 4.90557L5.09161 3.19538ZM3.43237 4.58009L4.94082 5.89332L3.43237 4.58009ZM27 13.2664V15.77H31V13.2664H27ZM4 15.77V13.2664H0V15.77H4ZM15.5 25.0364C12.6504 25.0364 10.6475 25.0344 9.10599 24.8951C7.5844 24.7575 6.73803 24.5003 6.12855 24.1308L4.05467 27.5512C5.41668 28.377 6.9622 28.7175 8.74579 28.8788C10.5095 29.0383 12.725 29.0364 15.5 29.0364V25.0364ZM0 15.77C0 18.0638 -0.00392082 19.9763 0.19569 21.5139C0.403484 23.1145 0.855625 24.5424 1.92392 25.7695L4.94082 23.143C4.57675 22.7248 4.3127 22.1566 4.1624 20.9989C4.00392 19.7782 4 18.1702 4 15.77H0ZM6.12855 24.1308C5.65849 23.8458 5.26017 23.5099 4.94082 23.143L1.92392 25.7695C2.52977 26.4654 3.25132 27.0641 4.05467 27.5512L6.12855 24.1308ZM27 15.77C27 18.1702 26.9961 19.7782 26.8376 20.9989C26.6873 22.1566 26.4233 22.7248 26.0592 23.143L29.0761 25.7695C30.1444 24.5424 30.5965 23.1145 30.8043 21.5139C31.0039 19.9763 31 18.0638 31 15.77H27ZM15.5 29.0364C18.275 29.0364 20.4905 29.0383 22.2542 28.8788C24.0378 28.7175 25.5833 28.377 26.9453 27.5512L24.8714 24.1308C24.262 24.5003 23.4156 24.7575 21.894 24.8951C20.3525 25.0344 18.3496 25.0364 15.5 25.0364V29.0364ZM26.0592 23.143C25.7398 23.5099 25.3415 23.8458 24.8714 24.1308L26.9453 27.5512C27.7487 27.0641 28.4702 26.4654 29.0761 25.7695L26.0592 23.143ZM15.5 4C18.3496 4 20.3525 4.00192 21.894 4.1413C23.4156 4.27887 24.262 4.53602 24.8714 4.90557L26.9453 1.48519C25.5833 0.659358 24.0378 0.318815 22.2542 0.157548C20.4905 -0.00191904 18.275 0 15.5 0V4ZM31 13.2664C31 10.9725 31.0039 9.06005 30.8043 7.52249C30.5965 5.92189 30.1444 4.49396 29.0761 3.26686L26.0592 5.89332C26.4233 6.31152 26.6873 6.87973 26.8376 8.03746C26.9961 9.25821 27 10.8662 27 13.2664H31ZM24.8714 4.90557C25.3415 5.19059 25.7398 5.52651 26.0592 5.89332L29.0761 3.26686C28.4702 2.57094 27.7487 1.97229 26.9453 1.48519L24.8714 4.90557ZM15.5 0C12.725 0 10.5095 -0.00191904 8.74579 0.157548C6.9622 0.318815 5.41668 0.659358 4.05467 1.48519L6.12855 4.90557C6.73803 4.53602 7.58441 4.27887 9.10599 4.1413C10.6475 4.00192 12.6504 4 15.5 4V0ZM4 13.2664C4 10.8662 4.00392 9.25821 4.1624 8.03746C4.3127 6.87973 4.57675 6.31152 4.94082 5.89332L1.92392 3.26686C0.855625 4.49396 0.403484 5.92189 0.19569 7.52248C-0.00392082 9.06005 0 10.9725 0 13.2664H4ZM4.05467 1.48519C3.25132 1.97229 2.52977 2.57094 1.92392 3.26686L4.94082 5.89332C5.26017 5.52651 5.65848 5.19059 6.12855 4.90557L4.05467 1.48519Z" fill="#11AC33"/>
<path d="M27.1507 21.7769L23.5222 14.84C22.8614 13.5701 21.876 12.8499 20.7515 12.8025C19.6386 12.7551 18.5605 13.3901 17.7374 14.6031L15.5348 17.8346C15.0711 18.5169 14.4103 18.9244 13.6916 18.9718C12.9612 19.0287 12.2308 18.716 11.6396 18.1L11.3846 17.8346C10.5615 16.9912 9.54134 16.5837 8.498 16.669C7.45466 16.7543 6.56202 17.3418 5.97079 18.299L3.96526 21.5684C3.24651 22.753 3.31607 24.1271 4.16233 25.2453C5.0086 26.3636 6.48087 27.0364 8.09226 27.0364H22.8846C24.438 27.0364 25.8871 26.4015 26.7449 25.3401C27.626 24.2787 27.7651 22.9425 27.1507 21.7769Z" fill="#11AC33"/>
<path d="M9.49539 13.7383C11.2457 13.7383 12.6646 12.3194 12.6646 10.5691C12.6646 8.81881 11.2457 7.3999 9.49539 7.3999C7.74508 7.3999 6.32617 8.81881 6.32617 10.5691C6.32617 12.3194 7.74508 13.7383 9.49539 13.7383Z" fill="#11AC33"/>
</svg>
