<svg width="59" height="55" viewBox="0 0 59 55" fill="none" xmlns="http://www.w3.org/2000/svg">
<path d="M8.29773 50.565L9.33467 48.8548L8.29773 50.565ZM4.9178 47.7443L6.42624 46.431L4.9178 47.7443ZM54.0822 47.7443L52.5738 46.431L54.0822 47.7443ZM50.7023 50.565L49.6653 48.8548L50.7023 50.565ZM50.7023 4.43503L49.6653 6.14522L50.7023 4.43503ZM54.0822 7.25574L52.5738 8.56897L54.0822 7.25574ZM8.29773 4.43503L9.33467 6.14522L8.29773 4.43503ZM4.9178 7.25574L6.42624 8.56897L4.9178 7.25574ZM55 24.95V30.05H59V24.95H55ZM4 30.05V24.95H0V30.05H4ZM29.5 51C23.734 51 19.5437 50.9981 16.2884 50.7037C13.053 50.4112 10.9664 49.8442 9.33467 48.8548L7.26078 52.2752C9.64505 53.7208 12.4308 54.3713 15.9282 54.6875C19.4057 55.0019 23.8085 55 29.5 55V51ZM0 30.05C0 34.7777 -0.00392082 38.5157 0.381368 41.4835C0.77484 44.5143 1.59834 46.9773 3.40935 49.0575L6.42624 46.431C5.31946 45.1597 4.68406 43.5565 4.34808 40.9685C4.00392 38.3175 4 34.8841 4 30.05H0ZM9.33467 48.8548C8.20431 48.1694 7.22532 47.3489 6.42624 46.431L3.40935 49.0575C4.49493 50.3045 5.79714 51.3877 7.26078 52.2752L9.33467 48.8548ZM55 30.05C55 34.8841 54.9961 38.3175 54.6519 40.9685C54.3159 43.5565 53.6805 45.1597 52.5738 46.431L55.5907 49.0575C57.4017 46.9773 58.2252 44.5143 58.6186 41.4835C59.0039 38.5157 59 34.7777 59 30.05H55ZM29.5 55C35.1915 55 39.5943 55.0019 43.0718 54.6875C46.5692 54.3713 49.355 53.7208 51.7392 52.2752L49.6653 48.8548C48.0336 49.8442 45.947 50.4112 42.7116 50.7037C39.4563 50.9981 35.266 51 29.5 51V55ZM52.5738 46.431C51.7747 47.3489 50.7957 48.1694 49.6653 48.8548L51.7392 52.2752C53.2029 51.3877 54.5051 50.3045 55.5907 49.0575L52.5738 46.431ZM29.5 4C35.266 4 39.4563 4.00192 42.7116 4.29625C45.947 4.58879 48.0336 5.15585 49.6653 6.14522L51.7392 2.72484C49.355 1.27918 46.5692 0.628729 43.0718 0.312505C39.5943 -0.00191904 35.1915 0 29.5 0V4ZM59 24.95C59 20.2223 59.0039 16.4843 58.6186 13.5165C58.2252 10.4857 57.4017 8.02273 55.5907 5.94251L52.5738 8.56897C53.6805 9.84028 54.3159 11.4435 54.6519 14.0315C54.9961 16.6825 55 20.1159 55 24.95H59ZM49.6653 6.14522C50.7957 6.8306 51.7747 7.65111 52.5738 8.56897L55.5907 5.94251C54.5051 4.69555 53.2029 3.6123 51.7392 2.72484L49.6653 6.14522ZM29.5 0C23.8085 0 19.4057 -0.00191904 15.9282 0.312505C12.4308 0.628729 9.64505 1.27918 7.26078 2.72484L9.33467 6.14522C10.9664 5.15585 13.053 4.58879 16.2884 4.29625C19.5437 4.00192 23.734 4 29.5 4V0ZM4 24.95C4 20.1159 4.00392 16.6825 4.34808 14.0315C4.68406 11.4435 5.31946 9.84028 6.42624 8.56897L3.40935 5.94251C1.59834 8.02273 0.77484 10.4857 0.381368 13.5165C-0.00392082 16.4843 0 20.2223 0 24.95H4ZM7.26078 2.72484C5.79714 3.6123 4.49493 4.69555 3.40935 5.94251L6.42624 8.56897C7.22532 7.65111 8.20431 6.8306 9.33467 6.14522L7.26078 2.72484Z" fill="#ED4600"/>
<path d="M53.233 42.2862L45.8416 28.1554C44.4955 25.5687 42.4883 24.1016 40.1977 24.005C37.9306 23.9085 35.7345 25.2019 34.0578 27.6728L29.571 34.2556C28.6264 35.6455 27.2804 36.4756 25.8163 36.5721C24.3285 36.688 22.8408 36.0509 21.6364 34.7961L21.1169 34.2556C19.4402 32.5376 17.3621 31.7075 15.2368 31.8812C13.1115 32.0549 11.2931 33.2518 10.0888 35.2015L6.00344 41.8615C4.53933 44.2745 4.68102 47.0736 6.40489 49.3515C8.12877 51.6294 11.1278 53 14.4103 53H44.5428C47.7072 53 50.659 51.7066 52.4065 49.5445C54.2012 47.3825 54.4846 44.6606 53.233 42.2862Z" fill="#ED4600"/>
<path d="M17.2683 25.9116C20.8338 25.9116 23.7241 23.0213 23.7241 19.4558C23.7241 15.8904 20.8338 13 17.2683 13C13.7029 13 10.8125 15.8904 10.8125 19.4558C10.8125 23.0213 13.7029 25.9116 17.2683 25.9116Z" fill="#ED4600"/>
</svg>
