<svg width="55" height="60" viewBox="0 0 55 60" fill="none" xmlns="http://www.w3.org/2000/svg">
<path d="M0 30.2582C0 32.4673 1.79086 34.2582 4 34.2582C6.20914 34.2582 8 32.4673 8 30.2582H0ZM55 30.2582C55 28.0491 53.2091 26.2582 51 26.2582C48.7909 26.2582 47 28.0491 47 30.2582H55ZM12.6795 42.9318C11.2428 41.2537 8.71776 41.0579 7.03961 42.4946C5.36145 43.9313 5.16571 46.4564 6.60241 48.1346L12.6795 42.9318ZM42.3205 17.5846C43.7572 19.2627 46.2822 19.4585 47.9604 18.0218C49.6385 16.5851 49.8343 14.06 48.3976 12.3818L42.3205 17.5846ZM51.8416 4.39036C51.8317 2.18124 50.0329 0.398387 47.8238 0.408243C45.6147 0.418099 43.8318 2.21693 43.8417 4.42605L51.8416 4.39036ZM47.8624 9.07463L51.8624 9.05678L51.8624 9.05678L47.8624 9.07463ZM39.2144 17.7226L39.1966 21.7226L39.1966 21.7226L39.2144 17.7226ZM34.5659 13.7018C32.3567 13.692 30.5579 15.4748 30.5481 17.684C30.5382 19.8931 32.321 21.6919 34.5302 21.7018L34.5659 13.7018ZM46.9024 15.9295L50.0657 18.3776L50.0657 18.3776L46.9024 15.9295ZM46.0693 16.7625L48.5174 19.9259L48.5174 19.9259L46.0693 16.7625ZM2.96537 55.9371C2.97523 58.1462 4.77406 59.9291 6.98318 59.9192C9.1923 59.9093 10.9751 58.1105 10.9653 55.9014L2.96537 55.9371ZM6.94451 51.2528L2.94455 51.2707L2.94455 51.2707L6.94451 51.2528ZM15.5925 42.6048L15.6104 38.6048L15.6104 38.6048L15.5925 42.6048ZM20.2411 46.6256C22.4502 46.6354 24.249 44.8526 24.2589 42.6435C24.2688 40.4344 22.4859 38.6355 20.2768 38.6257L20.2411 46.6256ZM7.9046 44.398L4.74126 41.9498L4.74125 41.9499L7.9046 44.398ZM8.73767 43.5649L6.28956 40.4015L6.28956 40.4015L8.73767 43.5649ZM27.5 2.7582C12.3122 2.7582 0 15.0704 0 30.2582H8C8 19.4886 16.7304 10.7582 27.5 10.7582V2.7582ZM27.5 57.7582C42.6878 57.7582 55 45.446 55 30.2582H47C47 41.0278 38.2696 49.7582 27.5 49.7582V57.7582ZM6.60241 48.1346C11.64 54.0188 19.1355 57.7582 27.5 57.7582V49.7582C21.5704 49.7582 16.2621 47.1165 12.6795 42.9318L6.60241 48.1346ZM48.3976 12.3818C43.36 6.49758 35.8645 2.7582 27.5 2.7582V10.7582C33.4296 10.7582 38.7379 13.3999 42.3205 17.5846L48.3976 12.3818ZM43.8417 4.42605L43.8625 9.09247L51.8624 9.05678L51.8416 4.39036L43.8417 4.42605ZM39.2323 13.7227L34.5659 13.7018L34.5302 21.7018L39.1966 21.7226L39.2323 13.7227ZM43.8625 9.09247C43.8712 11.0472 43.8702 12.1753 43.7816 12.986C43.7019 13.7163 43.5947 13.6678 43.739 13.4814L50.0657 18.3776C51.195 16.9184 51.5762 15.3031 51.7344 13.8545C51.8838 12.4864 51.8703 10.8234 51.8624 9.05678L43.8625 9.09247ZM39.1966 21.7226C40.9632 21.7305 42.6262 21.7439 43.9943 21.5945C45.4429 21.4364 47.0582 21.0552 48.5174 19.9259L43.6212 13.5992C43.8076 13.4549 43.8562 13.5621 43.1258 13.6418C42.3151 13.7304 41.187 13.7314 39.2323 13.7227L39.1966 21.7226ZM43.739 13.4814C43.7049 13.5255 43.6653 13.565 43.6212 13.5992L48.5174 19.9259C49.097 19.4774 49.6172 18.9571 50.0657 18.3776L43.739 13.4814ZM10.9653 55.9014L10.9445 51.235L2.94455 51.2707L2.96537 55.9371L10.9653 55.9014ZM15.5747 46.6048L20.2411 46.6256L20.2768 38.6257L15.6104 38.6048L15.5747 46.6048ZM10.9445 51.235C10.9358 49.2802 10.9368 48.1522 11.0253 47.3414C11.1051 46.6111 11.2122 46.6596 11.068 46.8461L4.74125 41.9499C3.61198 43.4091 3.23079 45.0243 3.0726 46.4729C2.92319 47.841 2.93667 49.504 2.94455 51.2707L10.9445 51.235ZM15.6104 38.6048C13.8437 38.597 12.1807 38.5835 10.8126 38.7329C9.36405 38.8911 7.74877 39.2723 6.28956 40.4015L11.1858 46.7282C10.9993 46.8725 10.9508 46.7654 11.6811 46.6856C12.4919 46.5971 13.6199 46.596 15.5747 46.6048L15.6104 38.6048ZM11.0679 46.8461C11.1021 46.8019 11.1417 46.7624 11.1858 46.7282L6.28956 40.4015C5.71 40.8501 5.18978 41.3703 4.74126 41.9498L11.0679 46.8461Z" fill="#FBFBFB"/>
</svg>
