<svg width="667" height="738" viewBox="0 0 667 738" fill="none" xmlns="http://www.w3.org/2000/svg">
<path d="M556 570.5L552.75 570.5L556 570.5ZM559.25 566C559.25 564.205 557.795 562.75 556 562.75C554.205 562.75 552.75 564.205 552.75 566L559.25 566ZM583 596.25C584.795 596.25 586.25 594.795 586.25 593C586.25 591.205 584.795 589.75 583 589.75V596.25ZM578.5 593L578.5 589.75H578.5L578.5 593ZM583 515.25C584.795 515.25 586.25 513.795 586.25 512C586.25 510.205 584.795 508.75 583 508.75V515.25ZM552.75 539C552.75 540.795 554.205 542.25 556 542.25C557.795 542.25 559.25 540.795 559.25 539H552.75ZM637 534.5L633.75 534.5V534.5H637ZM633.75 539C633.75 540.795 635.205 542.25 637 542.25C638.795 542.25 640.25 540.795 640.25 539H633.75ZM610 508.75C608.205 508.75 606.75 510.205 606.75 512C606.75 513.795 608.205 515.25 610 515.25L610 508.75ZM614.5 512L614.5 508.75L614.5 512ZM614.5 593L614.5 589.75H614.5V593ZM610 589.75C608.205 589.75 606.75 591.205 606.75 593C606.75 594.795 608.205 596.25 610 596.25V589.75ZM640.25 566C640.25 564.205 638.795 562.75 637 562.75C635.205 562.75 633.75 564.205 633.75 566H640.25ZM637 570.5L640.25 570.5V570.5H637ZM596.5 558.25C593.324 558.25 590.75 555.676 590.75 552.5H584.25C584.25 559.265 589.735 564.75 596.5 564.75V558.25ZM602.25 552.5C602.25 555.676 599.676 558.25 596.5 558.25V564.75C603.265 564.75 608.75 559.265 608.75 552.5H602.25ZM596.5 546.75C599.676 546.75 602.25 549.324 602.25 552.5H608.75C608.75 545.735 603.265 540.25 596.5 540.25V546.75ZM596.5 540.25C589.735 540.25 584.25 545.735 584.25 552.5H590.75C590.75 549.324 593.324 546.75 596.5 546.75V540.25ZM559.25 570.5L559.25 566L552.75 566L552.75 570.5L559.25 570.5ZM583 589.75H578.5V596.25H583V589.75ZM552.75 570.5C552.75 584.721 564.279 596.25 578.5 596.25L578.5 589.75C567.869 589.75 559.25 581.131 559.25 570.5L552.75 570.5ZM578.5 515.25H583V508.75H578.5V515.25ZM559.25 539V534.5H552.75V539H559.25ZM578.5 508.75C564.279 508.75 552.75 520.279 552.75 534.5H559.25C559.25 523.869 567.869 515.25 578.5 515.25V508.75ZM633.75 534.5V539H640.25V534.5H633.75ZM610 515.25L614.5 515.25L614.5 508.75L610 508.75L610 515.25ZM640.25 534.5C640.25 520.279 628.721 508.75 614.5 508.75L614.5 515.25C625.131 515.25 633.75 523.869 633.75 534.5L640.25 534.5ZM614.5 589.75H610V596.25H614.5V589.75ZM633.75 566V570.5H640.25V566H633.75ZM614.5 596.25C628.721 596.25 640.25 584.721 640.25 570.5L633.75 570.5C633.75 581.131 625.131 589.75 614.5 589.75L614.5 596.25Z" fill="#E22525"/>
</svg>
