<svg width="667" height="738" viewBox="0 0 667 738" fill="none" xmlns="http://www.w3.org/2000/svg">
<path d="M557 86.5L553.75 86.5L557 86.5ZM560.25 82C560.25 80.2051 558.795 78.75 557 78.75C555.205 78.75 553.75 80.2051 553.75 82L560.25 82ZM584 112.25C585.795 112.25 587.25 110.795 587.25 109C587.25 107.205 585.795 105.75 584 105.75V112.25ZM579.5 109L579.5 105.75H579.5L579.5 109ZM584 31.25C585.795 31.25 587.25 29.7949 587.25 28C587.25 26.2051 585.795 24.75 584 24.75V31.25ZM553.75 55C553.75 56.7949 555.205 58.25 557 58.25C558.795 58.25 560.25 56.7949 560.25 55H553.75ZM638 50.5L634.75 50.5V50.5H638ZM634.75 55C634.75 56.7949 636.205 58.25 638 58.25C639.795 58.25 641.25 56.7949 641.25 55H634.75ZM611 24.75C609.205 24.75 607.75 26.2051 607.75 28C607.75 29.7949 609.205 31.25 611 31.25L611 24.75ZM615.5 28L615.5 24.75L615.5 28ZM615.5 109L615.5 105.75H615.5V109ZM611 105.75C609.205 105.75 607.75 107.205 607.75 109C607.75 110.795 609.205 112.25 611 112.25V105.75ZM641.25 82C641.25 80.2051 639.795 78.75 638 78.75C636.205 78.75 634.75 80.2051 634.75 82H641.25ZM638 86.5L641.25 86.5V86.5H638ZM597.5 74.25C594.324 74.25 591.75 71.6756 591.75 68.5H585.25C585.25 75.2655 590.735 80.75 597.5 80.75V74.25ZM603.25 68.5C603.25 71.6756 600.676 74.25 597.5 74.25V80.75C604.265 80.75 609.75 75.2655 609.75 68.5H603.25ZM597.5 62.75C600.676 62.75 603.25 65.3244 603.25 68.5H609.75C609.75 61.7345 604.265 56.25 597.5 56.25V62.75ZM597.5 56.25C590.735 56.25 585.25 61.7345 585.25 68.5H591.75C591.75 65.3244 594.324 62.75 597.5 62.75V56.25ZM560.25 86.5L560.25 82L553.75 82L553.75 86.5L560.25 86.5ZM584 105.75H579.5V112.25H584V105.75ZM553.75 86.5C553.75 100.721 565.279 112.25 579.5 112.25L579.5 105.75C568.869 105.75 560.25 97.1315 560.25 86.5L553.75 86.5ZM579.5 31.25H584V24.75H579.5V31.25ZM560.25 55V50.5H553.75V55H560.25ZM579.5 24.75C565.279 24.75 553.75 36.2787 553.75 50.5H560.25C560.25 39.8685 568.869 31.25 579.5 31.25V24.75ZM634.75 50.5V55H641.25V50.5H634.75ZM611 31.25L615.5 31.25L615.5 24.75L611 24.75L611 31.25ZM641.25 50.5C641.25 36.2787 629.721 24.75 615.5 24.75L615.5 31.25C626.131 31.25 634.75 39.8685 634.75 50.5L641.25 50.5ZM615.5 105.75H611V112.25H615.5V105.75ZM634.75 82V86.5H641.25V82H634.75ZM615.5 112.25C629.721 112.25 641.25 100.721 641.25 86.5L634.75 86.5C634.75 97.1315 626.131 105.75 615.5 105.75L615.5 112.25Z" fill="#E22525"/>
</svg>
