<svg width="667" height="738" viewBox="0 0 667 738" fill="none" xmlns="http://www.w3.org/2000/svg">
<path d="M30 86.5L26.75 86.5L30 86.5ZM33.25 82C33.25 80.2051 31.7949 78.75 30 78.75C28.2051 78.75 26.75 80.2051 26.75 82L33.25 82ZM57 112.25C58.7949 112.25 60.25 110.795 60.25 109C60.25 107.205 58.7949 105.75 57 105.75V112.25ZM52.5 109L52.5 105.75H52.5L52.5 109ZM57 31.25C58.7949 31.25 60.25 29.7949 60.25 28C60.25 26.2051 58.7949 24.75 57 24.75V31.25ZM26.75 55C26.75 56.7949 28.2051 58.25 30 58.25C31.7949 58.25 33.25 56.7949 33.25 55H26.75ZM111 50.5L107.75 50.5V50.5H111ZM107.75 55C107.75 56.7949 109.205 58.25 111 58.25C112.795 58.25 114.25 56.7949 114.25 55H107.75ZM84 24.75C82.2051 24.75 80.75 26.2051 80.75 28C80.75 29.7949 82.2051 31.25 84 31.25L84 24.75ZM88.5 28L88.5 24.75L88.5 28ZM88.5 109L88.5 105.75H88.5V109ZM84 105.75C82.2051 105.75 80.75 107.205 80.75 109C80.75 110.795 82.2051 112.25 84 112.25V105.75ZM114.25 82C114.25 80.2051 112.795 78.75 111 78.75C109.205 78.75 107.75 80.2051 107.75 82H114.25ZM111 86.5L114.25 86.5V86.5H111ZM70.5 74.25C67.3244 74.25 64.75 71.6756 64.75 68.5H58.25C58.25 75.2655 63.7345 80.75 70.5 80.75V74.25ZM76.25 68.5C76.25 71.6756 73.6756 74.25 70.5 74.25V80.75C77.2655 80.75 82.75 75.2655 82.75 68.5H76.25ZM70.5 62.75C73.6756 62.75 76.25 65.3244 76.25 68.5H82.75C82.75 61.7345 77.2655 56.25 70.5 56.25V62.75ZM70.5 56.25C63.7345 56.25 58.25 61.7345 58.25 68.5H64.75C64.75 65.3244 67.3244 62.75 70.5 62.75V56.25ZM33.25 86.5L33.25 82L26.75 82L26.75 86.5L33.25 86.5ZM57 105.75H52.5V112.25H57V105.75ZM26.75 86.5C26.75 100.721 38.2787 112.25 52.5 112.25L52.5 105.75C41.8685 105.75 33.25 97.1315 33.25 86.5L26.75 86.5ZM52.5 31.25H57V24.75H52.5V31.25ZM33.25 55V50.5H26.75V55H33.25ZM52.5 24.75C38.2787 24.75 26.75 36.2787 26.75 50.5H33.25C33.25 39.8685 41.8685 31.25 52.5 31.25V24.75ZM107.75 50.5V55H114.25V50.5H107.75ZM84 31.25L88.5 31.25L88.5 24.75L84 24.75L84 31.25ZM114.25 50.5C114.25 36.2787 102.721 24.75 88.5 24.75L88.5 31.25C99.1315 31.25 107.75 39.8685 107.75 50.5L114.25 50.5ZM88.5 105.75H84V112.25H88.5V105.75ZM107.75 82V86.5H114.25V82H107.75ZM88.5 112.25C102.721 112.25 114.25 100.721 114.25 86.5L107.75 86.5C107.75 97.1315 99.1315 105.75 88.5 105.75L88.5 112.25Z" fill="#E22525"/>
</svg>
