<svg width="667" height="738" viewBox="0 0 667 738" fill="none" xmlns="http://www.w3.org/2000/svg">
<path d="M30 568.5L26.75 568.5L30 568.5ZM33.25 564C33.25 562.205 31.7949 560.75 30 560.75C28.2051 560.75 26.75 562.205 26.75 564L33.25 564ZM57 594.25C58.7949 594.25 60.25 592.795 60.25 591C60.25 589.205 58.7949 587.75 57 587.75V594.25ZM52.5 591L52.5 587.75H52.5L52.5 591ZM57 513.25C58.7949 513.25 60.25 511.795 60.25 510C60.25 508.205 58.7949 506.75 57 506.75V513.25ZM26.75 537C26.75 538.795 28.2051 540.25 30 540.25C31.7949 540.25 33.25 538.795 33.25 537H26.75ZM111 532.5L107.75 532.5V532.5H111ZM107.75 537C107.75 538.795 109.205 540.25 111 540.25C112.795 540.25 114.25 538.795 114.25 537H107.75ZM84 506.75C82.2051 506.75 80.75 508.205 80.75 510C80.75 511.795 82.2051 513.25 84 513.25L84 506.75ZM88.5 510L88.5 506.75L88.5 510ZM88.5 591L88.5 587.75H88.5V591ZM84 587.75C82.2051 587.75 80.75 589.205 80.75 591C80.75 592.795 82.2051 594.25 84 594.25V587.75ZM114.25 564C114.25 562.205 112.795 560.75 111 560.75C109.205 560.75 107.75 562.205 107.75 564H114.25ZM111 568.5L114.25 568.5V568.5H111ZM70.5 556.25C67.3244 556.25 64.75 553.676 64.75 550.5H58.25C58.25 557.265 63.7345 562.75 70.5 562.75V556.25ZM76.25 550.5C76.25 553.676 73.6756 556.25 70.5 556.25V562.75C77.2655 562.75 82.75 557.265 82.75 550.5H76.25ZM70.5 544.75C73.6756 544.75 76.25 547.324 76.25 550.5H82.75C82.75 543.735 77.2655 538.25 70.5 538.25V544.75ZM70.5 538.25C63.7345 538.25 58.25 543.735 58.25 550.5H64.75C64.75 547.324 67.3244 544.75 70.5 544.75V538.25ZM33.25 568.5L33.25 564L26.75 564L26.75 568.5L33.25 568.5ZM57 587.75H52.5V594.25H57V587.75ZM26.75 568.5C26.75 582.721 38.2787 594.25 52.5 594.25L52.5 587.75C41.8685 587.75 33.25 579.131 33.25 568.5L26.75 568.5ZM52.5 513.25H57V506.75H52.5V513.25ZM33.25 537V532.5H26.75V537H33.25ZM52.5 506.75C38.2787 506.75 26.75 518.279 26.75 532.5H33.25C33.25 521.869 41.8685 513.25 52.5 513.25V506.75ZM107.75 532.5V537H114.25V532.5H107.75ZM84 513.25L88.5 513.25L88.5 506.75L84 506.75L84 513.25ZM114.25 532.5C114.25 518.279 102.721 506.75 88.5 506.75L88.5 513.25C99.1315 513.25 107.75 521.869 107.75 532.5L114.25 532.5ZM88.5 587.75H84V594.25H88.5V587.75ZM107.75 564V568.5H114.25V564H107.75ZM88.5 594.25C102.721 594.25 114.25 582.721 114.25 568.5L107.75 568.5C107.75 579.131 99.1315 587.75 88.5 587.75L88.5 594.25Z" fill="#E22525"/>
</svg>
